<svg width="30" height="31" viewBox="0 0 30 31" fill="none" xmlns="http://www.w3.org/2000/svg">
<rect y="0.5" width="30" height="30" rx="15" fill="#FF9800"/>
<rect y="0.5" width="30" height="30" rx="15" fill="white" fill-opacity="0.9"/>
<path d="M17.7273 22.8295H12.2727C9.12272 22.8295 8.53636 21.3636 8.38636 19.9386L7.87499 14.4773C7.79999 13.7614 7.77954 12.7045 8.48863 11.9136C9.10227 11.2318 10.1182 10.9045 11.5909 10.9045H18.4091C19.8886 10.9045 20.9045 11.2386 21.5114 11.9136C22.2204 12.7045 22.2 13.7614 22.125 14.4841L21.6136 19.9318C21.4636 21.3636 20.8773 22.8295 17.7273 22.8295ZM11.5909 11.9204C10.4386 11.9204 9.64772 12.1454 9.24545 12.5954C8.91136 12.9636 8.80227 13.5295 8.8909 14.375L9.40227 19.8364C9.51818 20.9136 9.81136 21.8068 12.2727 21.8068H17.7273C20.1818 21.8068 20.4818 20.9136 20.5977 19.8295L21.1091 14.3818C21.1977 13.5295 21.0886 12.9636 20.7545 12.5954C20.3523 12.1454 19.5614 11.9204 18.4091 11.9204H11.5909Z" fill="#FF9800"/>
<path d="M17.7273 11.9204C17.4477 11.9204 17.2159 11.6886 17.2159 11.4091V10.8636C17.2159 9.64999 17.2159 9.19317 15.5454 9.19317H14.4545C12.7841 9.19317 12.7841 9.64999 12.7841 10.8636V11.4091C12.7841 11.6886 12.5523 11.9204 12.2727 11.9204C11.9932 11.9204 11.7614 11.6886 11.7614 11.4091V10.8636C11.7614 9.66362 11.7614 8.17044 14.4545 8.17044H15.5454C18.2386 8.17044 18.2386 9.66362 18.2386 10.8636V11.4091C18.2386 11.6886 18.0068 11.9204 17.7273 11.9204Z" fill="#FF9800"/>
<path d="M15 18.7386C13.125 18.7386 13.125 17.5796 13.125 16.8841V16.1818C13.125 15.2205 13.3568 14.9886 14.3182 14.9886H15.6818C16.6432 14.9886 16.875 15.2205 16.875 16.1818V16.8636C16.875 17.5727 16.875 18.7386 15 18.7386ZM14.1477 16.0114C14.1477 16.0659 14.1477 16.1273 14.1477 16.1818V16.8841C14.1477 17.5864 14.1477 17.7159 15 17.7159C15.8523 17.7159 15.8523 17.6068 15.8523 16.8773V16.1818C15.8523 16.1273 15.8523 16.0659 15.8523 16.0114C15.7977 16.0114 15.7364 16.0114 15.6818 16.0114H14.3182C14.2636 16.0114 14.2023 16.0114 14.1477 16.0114Z" fill="#FF9800"/>
<path d="M16.3636 17.3886C16.1113 17.3886 15.8863 17.1977 15.8591 16.9386C15.825 16.6591 16.0227 16.4 16.3023 16.3659C18.1023 16.1409 19.8273 15.4591 21.2795 14.4023C21.5045 14.2318 21.825 14.2863 21.9954 14.5182C22.1591 14.7432 22.1114 15.0636 21.8795 15.2341C20.2841 16.3932 18.4023 17.1363 16.425 17.3886C16.4045 17.3886 16.3841 17.3886 16.3636 17.3886Z" fill="#FF9800"/>
<path d="M13.6364 17.3955C13.6159 17.3955 13.5955 17.3955 13.575 17.3955C11.7068 17.1841 9.88636 16.5023 8.31136 15.425C8.07954 15.2682 8.01818 14.9477 8.175 14.7159C8.33181 14.4841 8.65227 14.4227 8.88409 14.5796C10.3227 15.5614 11.9795 16.1818 13.6841 16.3796C13.9636 16.4137 14.1682 16.6659 14.1341 16.9455C14.1136 17.2046 13.8955 17.3955 13.6364 17.3955Z" fill="#FF9800"/>
</svg>
