<svg width="30" height="31" viewBox="0 0 30 31" fill="none" xmlns="http://www.w3.org/2000/svg">
<rect y="0.5" width="30" height="30" rx="15" fill="#FAF5F8"/>
<path d="M17.025 22.8295H12.9341C9.23181 22.8295 7.64999 21.2477 7.64999 17.5454V13.4545C7.64999 9.75221 9.23181 8.17039 12.9341 8.17039H14.2977C14.5773 8.17039 14.8091 8.40221 14.8091 8.68176C14.8091 8.9613 14.5773 9.19312 14.2977 9.19312H12.9341C9.7909 9.19312 8.67272 10.3113 8.67272 13.4545V17.5454C8.67272 20.6886 9.7909 21.8068 12.9341 21.8068H17.025C20.1682 21.8068 21.2864 20.6886 21.2864 17.5454V16.1818C21.2864 15.9022 21.5182 15.6704 21.7977 15.6704C22.0773 15.6704 22.3091 15.9022 22.3091 16.1818V17.5454C22.3091 21.2477 20.7341 22.8295 17.025 22.8295Z" fill="#A30162"/>
<path d="M15.5318 17.709C15.4295 17.709 15.3341 17.6818 15.2454 17.6204C15.1023 17.5249 15.0204 17.3681 15.0204 17.1977C15.0204 17.1227 15.0136 17.0409 15 16.959C14.9523 16.5977 14.7886 16.2772 14.5159 15.9977C14.2363 15.7181 13.8954 15.5409 13.5204 15.4931C13.4659 15.4863 13.3773 15.4795 13.2954 15.4863C13.125 15.4999 12.9545 15.4249 12.8523 15.2886C12.75 15.1522 12.7227 14.9681 12.7773 14.8045C12.8591 14.5727 12.9886 14.3545 13.1386 14.184L13.9773 13.134C15.4363 11.3136 18.375 9.13177 20.5432 8.26586C21.0409 8.07495 21.5659 8.18404 21.9273 8.5454C22.3023 8.9204 22.4113 9.45222 22.2136 9.93631C21.3477 12.0977 19.1659 15.0431 17.3523 16.4954L16.2818 17.3545C16.0704 17.5045 15.9 17.6068 15.7227 17.6749C15.6613 17.6954 15.5932 17.709 15.5318 17.709ZM14.1273 14.5931C14.5432 14.7295 14.9182 14.9613 15.2386 15.2749C15.5523 15.5886 15.7773 15.9499 15.9068 16.3386L16.7113 15.6909C18.4091 14.3272 20.4545 11.5727 21.2659 9.54767C21.3204 9.41813 21.2591 9.32267 21.2045 9.26131C21.1704 9.22722 21.075 9.15222 20.9182 9.21358C18.9 10.0249 16.1454 12.0704 14.7818 13.7681L14.1273 14.5931Z" fill="#A30162"/>
<path d="M12.0682 20.1022C11.6318 20.1022 11.2159 19.9318 10.9023 19.6181C10.5409 19.2568 10.3636 18.759 10.425 18.2477L10.5682 16.9113C10.7182 15.5272 11.8432 14.5045 13.2546 14.4772C13.3636 14.4704 13.5 14.4772 13.6296 14.484C14.25 14.5658 14.8023 14.8386 15.2386 15.2818C15.675 15.7181 15.9409 16.2363 16.0159 16.8227C16.0364 16.9522 16.0432 17.0818 16.0432 17.2045C16.0432 17.9477 15.7568 18.6499 15.2318 19.1749C14.8023 19.6045 14.2432 19.8704 13.6091 19.9522L12.2591 20.0954C12.1909 20.1022 12.1296 20.1022 12.0682 20.1022ZM13.3636 15.4931C13.3432 15.4931 13.3159 15.4931 13.2955 15.4931C12.5114 15.5136 11.6864 16.0386 11.5841 17.0204L11.4409 18.3636C11.4205 18.5613 11.4886 18.759 11.625 18.8954C11.7614 19.0317 11.9523 19.0999 12.1432 19.0795L13.4864 18.9363C13.8818 18.8886 14.2364 18.7181 14.5023 18.4522C14.8296 18.1181 15.0136 17.6818 15.0136 17.2045C15.0136 17.1295 15.0068 17.0477 14.9932 16.9658C14.9455 16.6045 14.7818 16.284 14.5091 16.0045C14.2296 15.7249 13.8886 15.5477 13.5136 15.4999C13.4796 15.4931 13.425 15.4931 13.3636 15.4931Z" fill="#A30162"/>
<path d="M17.6045 15.9976C17.325 15.9976 17.0932 15.7658 17.0932 15.4863C17.0932 14.3476 16.1659 13.4135 15.0205 13.4135C14.7409 13.4135 14.5091 13.1817 14.5091 12.9022C14.5091 12.6226 14.7409 12.3908 15.0205 12.3908C16.725 12.3908 18.1159 13.7749 18.1159 15.4863C18.1159 15.7658 17.8909 15.9976 17.6045 15.9976Z" fill="#A30162"/>
</svg>
