<svg width="30" height="30" viewBox="0 0 30 30" fill="none" xmlns="http://www.w3.org/2000/svg">
<rect width="30" height="30" rx="5" fill="#8C70FF"/>
<path d="M14.8247 14.9002C14.3747 14.9002 13.9163 14.8168 13.558 14.6585L8.64134 12.4752C7.39134 11.9168 7.20801 11.1668 7.20801 10.7585C7.20801 10.3502 7.39134 9.60016 8.64134 9.04183L13.558 6.8585C14.283 6.5335 15.3747 6.5335 16.0997 6.8585L21.0247 9.04183C22.2663 9.59183 22.458 10.3502 22.458 10.7585C22.458 11.1668 22.2747 11.9168 21.0247 12.4752L16.0997 14.6585C15.733 14.8252 15.283 14.9002 14.8247 14.9002ZM14.8247 7.86683C14.5413 7.86683 14.2663 7.9085 14.0663 8.00016L9.14967 10.1835C8.64134 10.4168 8.45801 10.6502 8.45801 10.7585C8.45801 10.8668 8.64134 11.1085 9.14134 11.3335L14.058 13.5168C14.458 13.6918 15.183 13.6918 15.583 13.5168L20.508 11.3335C21.0163 11.1085 21.1997 10.8668 21.1997 10.7585C21.1997 10.6502 21.0163 10.4085 20.508 10.1835L15.5913 8.00016C15.3913 7.91683 15.108 7.86683 14.8247 7.86683Z" fill="white"/>
<path d="M15 19.2415C14.6833 19.2415 14.3667 19.1748 14.0667 19.0415L8.40833 16.5248C7.55 16.1498 6.875 15.1082 6.875 14.1665C6.875 13.8248 7.15833 13.5415 7.5 13.5415C7.84167 13.5415 8.125 13.8248 8.125 14.1665C8.125 14.6248 8.5 15.1998 8.91667 15.3915L14.575 17.9082C14.8417 18.0248 15.15 18.0248 15.425 17.9082L21.0833 15.3915C21.5 15.2082 21.875 14.6248 21.875 14.1665C21.875 13.8248 22.1583 13.5415 22.5 13.5415C22.8417 13.5415 23.125 13.8248 23.125 14.1665C23.125 15.1082 22.45 16.1498 21.5917 16.5332L15.9333 19.0498C15.6333 19.1748 15.3167 19.2415 15 19.2415Z" fill="white"/>
<path d="M15 23.4085C14.6833 23.4085 14.3667 23.3419 14.0667 23.2085L8.40833 20.6919C7.475 20.2752 6.875 19.3502 6.875 18.3252C6.875 17.9835 7.15833 17.7002 7.5 17.7002C7.84167 17.7002 8.125 17.9919 8.125 18.3335C8.125 18.8585 8.43333 19.3419 8.91667 19.5585L14.575 22.0752C14.8417 22.1919 15.15 22.1919 15.425 22.0752L21.0833 19.5585C21.5667 19.3419 21.875 18.8669 21.875 18.3335C21.875 17.9919 22.1583 17.7085 22.5 17.7085C22.8417 17.7085 23.125 17.9919 23.125 18.3335C23.125 19.3585 22.525 20.2835 21.5917 20.7002L15.9333 23.2169C15.6333 23.3419 15.3167 23.4085 15 23.4085Z" fill="white"/>
</svg>
