<svg width="12" height="13" viewBox="0 0 12 13" fill="none" xmlns="http://www.w3.org/2000/svg">
<path d="M6 0.197693C4.584 0.197693 3.288 0.689693 2.256 1.51769C0.876 2.60969 0 4.30169 0 6.19769C0 7.32569 0.312 8.38169 0.876 9.28169C1.908 11.0217 3.804 12.1977 6 12.1977C7.512 12.1977 8.892 11.6457 9.948 10.6977C10.416 10.3017 10.824 9.82169 11.136 9.28169C11.688 8.38169 12 7.32569 12 6.19769C12 2.88569 9.312 0.197693 6 0.197693ZM9.108 5.54969L5.904 8.50169C5.688 8.70569 5.412 8.80169 5.136 8.80169C4.848 8.80169 4.56 8.69369 4.344 8.47769L2.868 6.98969C2.424 6.54569 2.424 5.83769 2.868 5.39369C3.312 4.94969 4.02 4.94969 4.464 5.39369L5.172 6.10169L7.584 3.88169C8.04 3.46169 8.748 3.48569 9.168 3.94169C9.588 4.40969 9.564 5.12969 9.108 5.54969Z" fill="#A30162"/>
</svg>
