<svg width="30" height="30" viewBox="0 0 30 30" fill="none" xmlns="http://www.w3.org/2000/svg">
<rect width="30" height="30" rx="5" fill="#AB2FE9"/>
<path d="M18.333 23.9582H11.6663C9.14967 23.9582 7.70801 22.5165 7.70801 19.9998V11.8748C7.70801 9.24984 9.04134 7.9165 11.6663 7.9165C12.008 7.9165 12.2913 8.19984 12.2913 8.5415C12.2913 8.87484 12.4247 9.1915 12.658 9.42484C12.8913 9.65817 13.208 9.7915 13.5413 9.7915H16.458C17.1497 9.7915 17.708 9.23317 17.708 8.5415C17.708 8.19984 17.9913 7.9165 18.333 7.9165C20.958 7.9165 22.2913 9.24984 22.2913 11.8748V19.9998C22.2913 22.5165 20.8497 23.9582 18.333 23.9582ZM11.1247 9.18317C9.80799 9.29151 8.95801 9.88317 8.95801 11.8748V19.9998C8.95801 21.8498 9.81634 22.7082 11.6663 22.7082H18.333C20.183 22.7082 21.0413 21.8498 21.0413 19.9998V11.8748C21.0413 9.88317 20.1914 9.29984 18.8747 9.18317C18.5914 10.2498 17.6163 11.0415 16.458 11.0415H13.5413C12.8747 11.0415 12.2497 10.7832 11.7747 10.3082C11.458 9.9915 11.2413 9.60817 11.1247 9.18317Z" fill="white"/>
<path d="M16.4587 11.0415H13.542C12.8753 11.0415 12.2503 10.7832 11.7753 10.3082C11.3003 9.83317 11.042 9.20817 11.042 8.5415C11.042 7.1665 12.167 6.0415 13.542 6.0415H16.4587C17.1253 6.0415 17.7503 6.29984 18.2253 6.77484C18.7003 7.24984 18.9587 7.87484 18.9587 8.5415C18.9587 9.9165 17.8337 11.0415 16.4587 11.0415ZM13.542 7.2915C12.8503 7.2915 12.292 7.84984 12.292 8.5415C12.292 8.87484 12.4253 9.1915 12.6587 9.42484C12.892 9.65817 13.2087 9.7915 13.542 9.7915H16.4587C17.1503 9.7915 17.7087 9.23317 17.7087 8.5415C17.7087 8.20817 17.5753 7.89151 17.342 7.65817C17.1087 7.42484 16.792 7.2915 16.4587 7.2915H13.542Z" fill="white"/>
<path d="M15.0003 16.4585H11.667C11.3253 16.4585 11.042 16.1752 11.042 15.8335C11.042 15.4918 11.3253 15.2085 11.667 15.2085H15.0003C15.342 15.2085 15.6253 15.4918 15.6253 15.8335C15.6253 16.1752 15.342 16.4585 15.0003 16.4585Z" fill="white"/>
<path d="M18.3337 19.7915H11.667C11.3253 19.7915 11.042 19.5082 11.042 19.1665C11.042 18.8248 11.3253 18.5415 11.667 18.5415H18.3337C18.6753 18.5415 18.9587 18.8248 18.9587 19.1665C18.9587 19.5082 18.6753 19.7915 18.3337 19.7915Z" fill="white"/>
</svg>
