<svg width="155" height="39" viewBox="0 0 155 39" fill="none" xmlns="http://www.w3.org/2000/svg">
<path d="M2.77463 29.5751V30.5H1.84976V29.5751H2.77463ZM2.77463 28.6502V29.5751H1.84976V28.6502H2.77463ZM2.77463 27.7254V28.6502H1.84976V27.7254H2.77463ZM2.77463 26.8005V27.7254H1.84976V26.8005H2.77463ZM2.77463 25.8756V26.8005H1.84976V25.8756H2.77463ZM2.77463 24.9507V25.8756H1.84976V24.9507H2.77463ZM2.77463 24.0259V24.9507H1.84976V24.0259H2.77463ZM2.77463 23.101V24.0259H1.84976V23.101H2.77463ZM2.77463 22.1761V23.101H1.84976V22.1761H2.77463ZM2.77463 21.2512V22.1761H1.84976V21.2512H2.77463ZM2.77463 20.3263V21.2512H1.84976V20.3263H2.77463ZM2.77463 19.4015V20.3263H1.84976V19.4015H2.77463ZM2.77463 18.4766V19.4015H1.84976V18.4766H2.77463ZM2.77463 17.5517V18.4766H1.84976V17.5517H2.77463ZM2.77463 16.6268V17.5517H1.84976V16.6268H2.77463ZM3.69951 16.6268V17.5517H2.77463V16.6268H3.69951ZM3.69951 17.5517V18.4766H2.77463V17.5517H3.69951ZM3.69951 18.4766V19.4015H2.77463V18.4766H3.69951ZM3.69951 19.4015V20.3263H2.77463V19.4015H3.69951ZM3.69951 20.3263V21.2512H2.77463V20.3263H3.69951ZM3.69951 21.2512V22.1761H2.77463V21.2512H3.69951ZM3.69951 22.1761V23.101H2.77463V22.1761H3.69951ZM4.62439 23.101V24.0259H3.69951V23.101H4.62439ZM4.62439 24.0259V24.9507H3.69951V24.0259H4.62439ZM4.62439 24.9507V25.8756H3.69951V24.9507H4.62439ZM4.62439 25.8756V26.8005H3.69951V25.8756H4.62439ZM4.62439 26.8005V27.7254H3.69951V26.8005H4.62439ZM4.62439 27.7254V28.6502H3.69951V27.7254H4.62439ZM4.62439 28.6502V29.5751H3.69951V28.6502H4.62439ZM4.62439 29.5751V30.5H3.69951V29.5751H4.62439ZM5.54927 29.5751V30.5H4.62439V29.5751H5.54927ZM6.47415 29.5751V30.5H5.54927V29.5751H6.47415ZM6.47415 28.6502V29.5751H5.54927V28.6502H6.47415ZM6.47415 27.7254V28.6502H5.54927V27.7254H6.47415ZM6.47415 26.8005V27.7254H5.54927V26.8005H6.47415ZM6.47415 25.8756V26.8005H5.54927V25.8756H6.47415ZM6.47415 24.9507V25.8756H5.54927V24.9507H6.47415ZM6.47415 24.0259V24.9507H5.54927V24.0259H6.47415ZM6.47415 23.101V24.0259H5.54927V23.101H6.47415ZM5.54927 23.101V24.0259H4.62439V23.101H5.54927ZM5.54927 22.1761V23.101H4.62439V22.1761H5.54927ZM5.54927 24.0259V24.9507H4.62439V24.0259H5.54927ZM5.54927 24.9507V25.8756H4.62439V24.9507H5.54927ZM5.54927 25.8756V26.8005H4.62439V25.8756H5.54927ZM5.54927 26.8005V27.7254H4.62439V26.8005H5.54927ZM5.54927 27.7254V28.6502H4.62439V27.7254H5.54927ZM5.54927 28.6502V29.5751H4.62439V28.6502H5.54927ZM3.69951 29.5751V30.5H2.77463V29.5751H3.69951ZM3.69951 28.6502V29.5751H2.77463V28.6502H3.69951ZM3.69951 27.7254V28.6502H2.77463V27.7254H3.69951ZM3.69951 26.8005V27.7254H2.77463V26.8005H3.69951ZM3.69951 25.8756V26.8005H2.77463V25.8756H3.69951ZM3.69951 24.9507V25.8756H2.77463V24.9507H3.69951ZM3.69951 24.0259V24.9507H2.77463V24.0259H3.69951ZM3.69951 23.101V24.0259H2.77463V23.101H3.69951ZM2.77463 7.37805V8.30293H1.84976V7.37805H2.77463ZM2.77463 8.30293V9.2278H1.84976V8.30293H2.77463ZM2.77463 9.2278V10.1527H1.84976V9.2278H2.77463ZM2.77463 10.1527V11.0776H1.84976V10.1527H2.77463ZM2.77463 11.0776V12.0024H1.84976V11.0776H2.77463ZM2.77463 12.0024V12.9273H1.84976V12.0024H2.77463ZM2.77463 12.9273V13.8522H1.84976V12.9273H2.77463ZM2.77463 13.8522V14.7771H1.84976V13.8522H2.77463ZM2.77463 14.7771V15.702H1.84976V14.7771H2.77463ZM2.77463 15.702V16.6268H1.84976V15.702H2.77463ZM5.54927 7.37805V8.30293H4.62439V7.37805H5.54927ZM5.54927 8.30293V9.2278H4.62439V8.30293H5.54927ZM5.54927 9.2278V10.1527H4.62439V9.2278H5.54927ZM5.54927 10.1527V11.0776H4.62439V10.1527H5.54927ZM5.54927 11.0776V12.0024H4.62439V11.0776H5.54927ZM5.54927 12.0024V12.9273H4.62439V12.0024H5.54927ZM5.54927 13.8522V14.7771H4.62439V13.8522H5.54927ZM5.54927 14.7771V15.702H4.62439V14.7771H5.54927ZM5.54927 15.702V16.6268H4.62439V15.702H5.54927ZM5.54927 16.6268V17.5517H4.62439V16.6268H5.54927ZM5.54927 17.5517V18.4766H4.62439V17.5517H5.54927ZM5.54927 18.4766V19.4015H4.62439V18.4766H5.54927ZM5.54927 19.4015V20.3263H4.62439V19.4015H5.54927ZM6.47415 20.3263V21.2512H5.54927V20.3263H6.47415ZM6.47415 21.2512V22.1761H5.54927V21.2512H6.47415ZM6.47415 22.1761V23.101H5.54927V22.1761H6.47415ZM6.47415 19.4015V20.3263H5.54927V19.4015H6.47415ZM6.47415 18.4766V19.4015H5.54927V18.4766H6.47415ZM6.47415 17.5517V18.4766H5.54927V17.5517H6.47415ZM6.47415 16.6268V17.5517H5.54927V16.6268H6.47415ZM6.47415 15.702V16.6268H5.54927V15.702H6.47415ZM6.47415 14.7771V15.702H5.54927V14.7771H6.47415ZM6.47415 13.8522V14.7771H5.54927V13.8522H6.47415ZM6.47415 12.9273V13.8522H5.54927V12.9273H6.47415ZM6.47415 12.0024V12.9273H5.54927V12.0024H6.47415ZM6.47415 11.0776V12.0024H5.54927V11.0776H6.47415ZM5.54927 12.9273V13.8522H4.62439V12.9273H5.54927ZM6.47415 10.1527V11.0776H5.54927V10.1527H6.47415ZM6.47415 9.2278V10.1527H5.54927V9.2278H6.47415ZM6.47415 8.30293V9.2278H5.54927V8.30293H6.47415ZM6.47415 7.37805V8.30293H5.54927V7.37805H6.47415ZM4.62439 7.37805V8.30293H3.69951V7.37805H4.62439ZM3.69951 7.37805V8.30293H2.77463V7.37805H3.69951ZM3.69951 8.30293V9.2278H2.77463V8.30293H3.69951ZM4.62439 8.30293V9.2278H3.69951V8.30293H4.62439ZM4.62439 9.2278V10.1527H3.69951V9.2278H4.62439ZM4.62439 10.1527V11.0776H3.69951V10.1527H4.62439ZM4.62439 11.0776V12.0024H3.69951V11.0776H4.62439ZM4.62439 12.0024V12.9273H3.69951V12.0024H4.62439ZM4.62439 12.9273V13.8522H3.69951V12.9273H4.62439ZM4.62439 13.8522V14.7771H3.69951V13.8522H4.62439ZM3.69951 14.7771V15.702H2.77463V14.7771H3.69951ZM3.69951 15.702V16.6268H2.77463V15.702H3.69951ZM3.69951 13.8522V14.7771H2.77463V13.8522H3.69951ZM3.69951 12.9273V13.8522H2.77463V12.9273H3.69951ZM3.69951 12.0024V12.9273H2.77463V12.0024H3.69951ZM3.69951 11.0776V12.0024H2.77463V11.0776H3.69951ZM3.69951 10.1527V11.0776H2.77463V10.1527H3.69951ZM3.69951 9.2278V10.1527H2.77463V9.2278H3.69951ZM4.62439 14.7771V15.702H3.69951V14.7771H4.62439ZM4.62439 15.702V16.6268H3.69951V15.702H4.62439ZM4.62439 16.6268V17.5517H3.69951V16.6268H4.62439ZM4.62439 17.5517V18.4766H3.69951V17.5517H4.62439ZM4.62439 18.4766V19.4015H3.69951V18.4766H4.62439ZM4.62439 19.4015V20.3263H3.69951V19.4015H4.62439ZM4.62439 20.3263V21.2512H3.69951V20.3263H4.62439ZM4.62439 21.2512V22.1761H3.69951V21.2512H4.62439ZM4.62439 22.1761V23.101H3.69951V22.1761H4.62439ZM5.54927 21.2512V22.1761H4.62439V21.2512H5.54927ZM5.54927 20.3263V21.2512H4.62439V20.3263H5.54927ZM7.39902 18.4766V19.4015H6.47415V18.4766H7.39902ZM8.3239 18.4766V19.4015H7.39902V18.4766H8.3239ZM8.3239 19.4015V20.3263H7.39902V19.4015H8.3239ZM7.39902 19.4015V20.3263H6.47415V19.4015H7.39902ZM7.39902 16.6268V17.5517H6.47415V16.6268H7.39902ZM8.3239 16.6268V17.5517H7.39902V16.6268H8.3239ZM7.39902 20.3263V21.2512H6.47415V20.3263H7.39902ZM8.3239 20.3263V21.2512H7.39902V20.3263H8.3239ZM8.3239 17.5517V18.4766H7.39902V17.5517H8.3239ZM7.39902 17.5517V18.4766H6.47415V17.5517H7.39902ZM7.39902 7.37805V8.30293H6.47415V7.37805H7.39902ZM8.3239 7.37805V8.30293H7.39902V7.37805H8.3239ZM8.3239 8.30293V9.2278H7.39902V8.30293H8.3239ZM7.39902 8.30293V9.2278H6.47415V8.30293H7.39902ZM7.39902 9.2278V10.1527H6.47415V9.2278H7.39902ZM8.3239 9.2278V10.1527H7.39902V9.2278H8.3239ZM8.3239 10.1527V11.0776H7.39902V10.1527H8.3239ZM7.39902 10.1527V11.0776H6.47415V10.1527H7.39902ZM7.39902 11.0776V12.0024H6.47415V11.0776H7.39902ZM8.3239 11.0776V12.0024H7.39902V11.0776H8.3239ZM7.39902 29.5751V30.5H6.47415V29.5751H7.39902ZM8.3239 29.5751V30.5H7.39902V29.5751H8.3239ZM8.3239 28.6502V29.5751H7.39902V28.6502H8.3239ZM8.3239 27.7254V28.6502H7.39902V27.7254H8.3239ZM8.3239 26.8005V27.7254H7.39902V26.8005H8.3239ZM8.3239 25.8756V26.8005H7.39902V25.8756H8.3239ZM7.39902 25.8756V26.8005H6.47415V25.8756H7.39902ZM7.39902 26.8005V27.7254H6.47415V26.8005H7.39902ZM7.39902 27.7254V28.6502H6.47415V27.7254H7.39902ZM7.39902 28.6502V29.5751H6.47415V28.6502H7.39902ZM9.24878 16.6268V17.5517H8.3239V16.6268H9.24878ZM10.1737 16.6268V17.5517H9.24878V16.6268H10.1737ZM11.0985 16.6268V17.5517H10.1737V16.6268H11.0985ZM11.0985 11.0776V12.0024H10.1737V11.0776H11.0985ZM10.1737 11.0776V12.0024H9.24878V11.0776H10.1737ZM9.24878 11.0776V12.0024H8.3239V11.0776H9.24878ZM9.24878 7.37805V8.30293H8.3239V7.37805H9.24878ZM10.1737 7.37805V8.30293H9.24878V7.37805H10.1737ZM11.0985 7.37805V8.30293H10.1737V7.37805H11.0985ZM11.0985 10.1527V11.0776H10.1737V10.1527H11.0985ZM11.0985 9.2278V10.1527H10.1737V9.2278H11.0985ZM10.1737 9.2278V10.1527H9.24878V9.2278H10.1737ZM9.24878 9.2278V10.1527H8.3239V9.2278H9.24878ZM9.24878 8.30293V9.2278H8.3239V8.30293H9.24878ZM10.1737 8.30293V9.2278H9.24878V8.30293H10.1737ZM11.0985 8.30293V9.2278H10.1737V8.30293H11.0985ZM9.24878 10.1527V11.0776H8.3239V10.1527H9.24878ZM10.1737 10.1527V11.0776H9.24878V10.1527H10.1737ZM11.0985 18.4766V19.4015H10.1737V18.4766H11.0985ZM10.1737 18.4766V19.4015H9.24878V18.4766H10.1737ZM9.24878 18.4766V19.4015H8.3239V18.4766H9.24878ZM9.24878 17.5517V18.4766H8.3239V17.5517H9.24878ZM10.1737 17.5517V18.4766H9.24878V17.5517H10.1737ZM11.0985 17.5517V18.4766H10.1737V17.5517H11.0985ZM9.24878 19.4015V20.3263H8.3239V19.4015H9.24878ZM10.1737 19.4015V20.3263H9.24878V19.4015H10.1737ZM11.0985 19.4015V20.3263H10.1737V19.4015H11.0985ZM11.0985 20.3263V21.2512H10.1737V20.3263H11.0985ZM10.1737 20.3263V21.2512H9.24878V20.3263H10.1737ZM9.24878 20.3263V21.2512H8.3239V20.3263H9.24878ZM9.24878 25.8756V26.8005H8.3239V25.8756H9.24878ZM10.1737 25.8756V26.8005H9.24878V25.8756H10.1737ZM11.0985 25.8756V26.8005H10.1737V25.8756H11.0985ZM11.0985 28.6502V29.5751H10.1737V28.6502H11.0985ZM10.1737 29.5751V30.5H9.24878V29.5751H10.1737ZM9.24878 29.5751V30.5H8.3239V29.5751H9.24878ZM11.0985 29.5751V30.5H10.1737V29.5751H11.0985ZM10.1737 28.6502V29.5751H9.24878V28.6502H10.1737ZM9.24878 28.6502V29.5751H8.3239V28.6502H9.24878ZM9.24878 27.7254V28.6502H8.3239V27.7254H9.24878ZM10.1737 27.7254V28.6502H9.24878V27.7254H10.1737ZM11.0985 27.7254V28.6502H10.1737V27.7254H11.0985ZM11.0985 26.8005V27.7254H10.1737V26.8005H11.0985ZM10.1737 26.8005V27.7254H9.24878V26.8005H10.1737ZM9.24878 26.8005V27.7254H8.3239V26.8005H9.24878ZM16.6478 11.0776V12.0024H15.7229V11.0776H16.6478ZM16.6478 25.8756V26.8005H15.7229V25.8756H16.6478ZM12.0234 7.37805V8.30293H11.0985V7.37805H12.0234ZM12.9483 7.37805V8.30293H12.0234V7.37805H12.9483ZM13.8732 7.37805V8.30293H12.9483V7.37805H13.8732ZM14.798 7.37805V8.30293H13.8732V7.37805H14.798ZM15.7229 7.37805V8.30293H14.798V7.37805H15.7229ZM15.7229 8.30293V9.2278H14.798V8.30293H15.7229ZM16.6478 8.30293V9.2278H15.7229V8.30293H16.6478ZM16.6478 9.2278V10.1527H15.7229V9.2278H16.6478ZM16.6478 7.37805V8.30293H15.7229V7.37805H16.6478ZM16.6478 10.1527V11.0776H15.7229V10.1527H16.6478ZM15.7229 10.1527V11.0776H14.798V10.1527H15.7229ZM14.798 10.1527V11.0776H13.8732V10.1527H14.798ZM13.8732 10.1527V11.0776H12.9483V10.1527H13.8732ZM12.9483 10.1527V11.0776H12.0234V10.1527H12.9483ZM12.0234 10.1527V11.0776H11.0985V10.1527H12.0234ZM12.0234 9.2278V10.1527H11.0985V9.2278H12.0234ZM12.0234 8.30293V9.2278H11.0985V8.30293H12.0234ZM12.9483 8.30293V9.2278H12.0234V8.30293H12.9483ZM13.8732 8.30293V9.2278H12.9483V8.30293H13.8732ZM14.798 8.30293V9.2278H13.8732V8.30293H14.798ZM14.798 9.2278V10.1527H13.8732V9.2278H14.798ZM15.7229 9.2278V10.1527H14.798V9.2278H15.7229ZM13.8732 9.2278V10.1527H12.9483V9.2278H13.8732ZM12.9483 9.2278V10.1527H12.0234V9.2278H12.9483ZM12.0234 11.0776V12.0024H11.0985V11.0776H12.0234ZM12.9483 11.0776V12.0024H12.0234V11.0776H12.9483ZM13.8732 11.0776V12.0024H12.9483V11.0776H13.8732ZM14.798 11.0776V12.0024H13.8732V11.0776H14.798ZM15.7229 11.0776V12.0024H14.798V11.0776H15.7229ZM16.6478 26.8005V27.7254H15.7229V26.8005H16.6478ZM15.7229 26.8005V27.7254H14.798V26.8005H15.7229ZM15.7229 27.7254V28.6502H14.798V27.7254H15.7229ZM15.7229 28.6502V29.5751H14.798V28.6502H15.7229ZM15.7229 29.5751V30.5H14.798V29.5751H15.7229ZM16.6478 28.6502V29.5751H15.7229V28.6502H16.6478ZM16.6478 27.7254V28.6502H15.7229V27.7254H16.6478ZM16.6478 29.5751V30.5H15.7229V29.5751H16.6478ZM12.0234 29.5751V30.5H11.0985V29.5751H12.0234ZM12.9483 29.5751V30.5H12.0234V29.5751H12.9483ZM13.8732 29.5751V30.5H12.9483V29.5751H13.8732ZM13.8732 28.6502V29.5751H12.9483V28.6502H13.8732ZM14.798 29.5751V30.5H13.8732V29.5751H14.798ZM14.798 28.6502V29.5751H13.8732V28.6502H14.798ZM14.798 27.7254V28.6502H13.8732V27.7254H14.798ZM14.798 26.8005V27.7254H13.8732V26.8005H14.798ZM14.798 25.8756V26.8005H13.8732V25.8756H14.798ZM15.7229 25.8756V26.8005H14.798V25.8756H15.7229ZM12.0234 25.8756V26.8005H11.0985V25.8756H12.0234ZM12.9483 25.8756V26.8005H12.0234V25.8756H12.9483ZM13.8732 25.8756V26.8005H12.9483V25.8756H13.8732ZM13.8732 26.8005V27.7254H12.9483V26.8005H13.8732ZM13.8732 27.7254V28.6502H12.9483V27.7254H13.8732ZM12.9483 27.7254V28.6502H12.0234V27.7254H12.9483ZM12.9483 26.8005V27.7254H12.0234V26.8005H12.9483ZM12.0234 26.8005V27.7254H11.0985V26.8005H12.0234ZM12.0234 27.7254V28.6502H11.0985V27.7254H12.0234ZM12.0234 28.6502V29.5751H11.0985V28.6502H12.0234ZM12.9483 28.6502V29.5751H12.0234V28.6502H12.9483ZM12.0234 16.6268V17.5517H11.0985V16.6268H12.0234ZM12.0234 17.5517V18.4766H11.0985V17.5517H12.0234ZM12.0234 18.4766V19.4015H11.0985V18.4766H12.0234ZM12.0234 19.4015V20.3263H11.0985V19.4015H12.0234ZM12.9483 19.4015V20.3263H12.0234V19.4015H12.9483ZM12.9483 20.3263V21.2512H12.0234V20.3263H12.9483ZM12.0234 20.3263V21.2512H11.0985V20.3263H12.0234ZM12.9483 16.6268V17.5517H12.0234V16.6268H12.9483ZM12.9483 17.5517V18.4766H12.0234V17.5517H12.9483ZM12.9483 18.4766V19.4015H12.0234V18.4766H12.9483ZM13.8732 18.4766V19.4015H12.9483V18.4766H13.8732ZM14.798 18.4766V19.4015H13.8732V18.4766H14.798ZM14.798 17.5517V18.4766H13.8732V17.5517H14.798ZM14.798 16.6268V17.5517H13.8732V16.6268H14.798ZM13.8732 16.6268V17.5517H12.9483V16.6268H13.8732ZM13.8732 17.5517V18.4766H12.9483V17.5517H13.8732ZM13.8732 19.4015V20.3263H12.9483V19.4015H13.8732ZM13.8732 20.3263V21.2512H12.9483V20.3263H13.8732ZM14.798 20.3263V21.2512H13.8732V20.3263H14.798ZM14.798 19.4015V20.3263H13.8732V19.4015H14.798ZM21.2903 12.9273V13.8522H20.3654V12.9273H21.2903ZM22.2151 12.9273V13.8522H21.2903V12.9273H22.2151ZM23.14 12.9273V13.8522H22.2151V12.9273H23.14ZM24.0649 12.9273V13.8522H23.14V12.9273H24.0649ZM24.0649 13.8522V14.7771H23.14V13.8522H24.0649ZM24.9898 13.8522V14.7771H24.0649V13.8522H24.9898ZM24.9898 14.7771V15.702H24.0649V14.7771H24.9898ZM24.9898 12.9273V13.8522H24.0649V12.9273H24.9898ZM24.9898 15.702V16.6268H24.0649V15.702H24.9898ZM24.9898 16.6268V17.5517H24.0649V16.6268H24.9898ZM24.9898 17.5517V18.4766H24.0649V17.5517H24.9898ZM24.9898 18.4766V19.4015H24.0649V18.4766H24.9898ZM24.9898 19.4015V20.3263H24.0649V19.4015H24.9898ZM24.9898 20.3263V21.2512H24.0649V20.3263H24.9898ZM24.9898 21.2512V22.1761H24.0649V21.2512H24.9898ZM24.9898 22.1761V23.101H24.0649V22.1761H24.9898ZM24.9898 23.101V24.0259H24.0649V23.101H24.9898ZM24.0649 23.101V24.0259H23.14V23.101H24.0649ZM23.14 24.0259V24.9507H22.2151V24.0259H23.14ZM22.2151 24.0259V24.9507H21.2903V24.0259H22.2151ZM21.2903 24.0259V24.9507H20.3654V24.0259H21.2903ZM21.2903 23.101V24.0259H20.3654V23.101H21.2903ZM21.2903 22.1761V23.101H20.3654V22.1761H21.2903ZM21.2903 21.2512V22.1761H20.3654V21.2512H21.2903ZM21.2903 20.3263V21.2512H20.3654V20.3263H21.2903ZM22.2151 20.3263V21.2512H21.2903V20.3263H22.2151ZM22.2151 19.4015V20.3263H21.2903V19.4015H22.2151ZM22.2151 18.4766V19.4015H21.2903V18.4766H22.2151ZM22.2151 17.5517V18.4766H21.2903V17.5517H22.2151ZM22.2151 16.6268V17.5517H21.2903V16.6268H22.2151ZM22.2151 15.702V16.6268H21.2903V15.702H22.2151ZM22.2151 14.7771V15.702H21.2903V14.7771H22.2151ZM22.2151 13.8522V14.7771H21.2903V13.8522H22.2151ZM21.2903 13.8522V14.7771H20.3654V13.8522H21.2903ZM21.2903 14.7771V15.702H20.3654V14.7771H21.2903ZM21.2903 15.702V16.6268H20.3654V15.702H21.2903ZM21.2903 16.6268V17.5517H20.3654V16.6268H21.2903ZM21.2903 17.5517V18.4766H20.3654V17.5517H21.2903ZM21.2903 18.4766V19.4015H20.3654V18.4766H21.2903ZM21.2903 19.4015V20.3263H20.3654V19.4015H21.2903ZM23.14 17.5517V18.4766H22.2151V17.5517H23.14ZM23.14 16.6268V17.5517H22.2151V16.6268H23.14ZM23.14 15.702V16.6268H22.2151V15.702H23.14ZM23.14 14.7771V15.702H22.2151V14.7771H23.14ZM23.14 13.8522V14.7771H22.2151V13.8522H23.14ZM24.0649 17.5517V18.4766H23.14V17.5517H24.0649ZM24.0649 18.4766V19.4015H23.14V18.4766H24.0649ZM24.0649 16.6268V17.5517H23.14V16.6268H24.0649ZM24.0649 15.702V16.6268H23.14V15.702H24.0649ZM24.0649 14.7771V15.702H23.14V14.7771H24.0649ZM23.14 20.3263V21.2512H22.2151V20.3263H23.14ZM23.14 19.4015V20.3263H22.2151V19.4015H23.14ZM23.14 18.4766V19.4015H22.2151V18.4766H23.14ZM24.0649 19.4015V20.3263H23.14V19.4015H24.0649ZM24.0649 20.3263V21.2512H23.14V20.3263H24.0649ZM24.0649 21.2512V22.1761H23.14V21.2512H24.0649ZM23.14 22.1761V23.101H22.2151V22.1761H23.14ZM23.14 23.101V24.0259H22.2151V23.101H23.14ZM23.14 21.2512V22.1761H22.2151V21.2512H23.14ZM22.2151 21.2512V22.1761H21.2903V21.2512H22.2151ZM22.2151 22.1761V23.101H21.2903V22.1761H22.2151ZM22.2151 23.101V24.0259H21.2903V23.101H22.2151ZM24.0649 22.1761V23.101H23.14V22.1761H24.0649ZM23.14 24.9507V25.8756H22.2151V24.9507H23.14ZM22.2151 24.9507V25.8756H21.2903V24.9507H22.2151ZM24.0649 24.9507V25.8756H23.14V24.9507H24.0649ZM24.0649 24.0259V24.9507H23.14V24.0259H24.0649ZM24.9898 24.0259V24.9507H24.0649V24.0259H24.9898ZM25.9147 24.0259V24.9507H24.9898V24.0259H25.9147ZM25.9147 24.9507V25.8756H24.9898V24.9507H25.9147ZM24.9898 24.9507V25.8756H24.0649V24.9507H24.9898ZM26.8395 24.9507V25.8756H25.9147V24.9507H26.8395ZM23.14 25.8756V26.8005H22.2151V25.8756H23.14ZM24.0649 25.8756V26.8005H23.14V25.8756H24.0649ZM24.9898 25.8756V26.8005H24.0649V25.8756H24.9898ZM25.9147 25.8756V26.8005H24.9898V25.8756H25.9147ZM26.8395 25.8756V26.8005H25.9147V25.8756H26.8395ZM27.7644 25.8756V26.8005H26.8395V25.8756H27.7644ZM28.6893 25.8756V26.8005H27.7644V25.8756H28.6893ZM29.6142 25.8756V26.8005H28.6893V25.8756H29.6142ZM30.539 25.8756V26.8005H29.6142V25.8756H30.539ZM31.4639 25.8756V26.8005H30.539V25.8756H31.4639ZM32.3888 25.8756V26.8005H31.4639V25.8756H32.3888ZM33.3137 25.8756V26.8005H32.3888V25.8756H33.3137ZM32.3888 24.9507V25.8756H31.4639V24.9507H32.3888ZM31.4639 24.9507V25.8756H30.539V24.9507H31.4639ZM30.539 24.9507V25.8756H29.6142V24.9507H30.539ZM29.6142 24.9507V25.8756H28.6893V24.9507H29.6142ZM30.539 24.0259V24.9507H29.6142V24.0259H30.539ZM31.4639 24.0259V24.9507H30.539V24.0259H31.4639ZM32.3888 24.0259V24.9507H31.4639V24.0259H32.3888ZM33.3137 24.0259V24.9507H32.3888V24.0259H33.3137ZM34.2386 24.0259V24.9507H33.3137V24.0259H34.2386ZM34.2386 24.9507V25.8756H33.3137V24.9507H34.2386ZM33.3137 24.9507V25.8756H32.3888V24.9507H33.3137ZM35.1634 24.0259V24.9507H34.2386V24.0259H35.1634ZM26.8395 29.5751V30.5H25.9147V29.5751H26.8395ZM26.8395 28.6502V29.5751H25.9147V28.6502H26.8395ZM26.8395 27.7254V28.6502H25.9147V27.7254H26.8395ZM27.7644 27.7254V28.6502H26.8395V27.7254H27.7644ZM27.7644 26.8005V27.7254H26.8395V26.8005H27.7644ZM28.6893 26.8005V27.7254H27.7644V26.8005H28.6893ZM29.6142 26.8005V27.7254H28.6893V26.8005H29.6142ZM29.6142 27.7254V28.6502H28.6893V27.7254H29.6142ZM29.6142 28.6502V29.5751H28.6893V28.6502H29.6142ZM29.6142 29.5751V30.5H28.6893V29.5751H29.6142ZM28.6893 29.5751V30.5H27.7644V29.5751H28.6893ZM27.7644 29.5751V30.5H26.8395V29.5751H27.7644ZM27.7644 28.6502V29.5751H26.8395V28.6502H27.7644ZM28.6893 27.7254V28.6502H27.7644V27.7254H28.6893ZM28.6893 28.6502V29.5751H27.7644V28.6502H28.6893ZM30.539 27.7254V28.6502H29.6142V27.7254H30.539ZM30.539 26.8005V27.7254H29.6142V26.8005H30.539ZM31.4639 26.8005V27.7254H30.539V26.8005H31.4639ZM32.3888 26.8005V27.7254H31.4639V26.8005H32.3888ZM31.4639 27.7254V28.6502H30.539V27.7254H31.4639ZM30.539 28.6502V29.5751H29.6142V28.6502H30.539ZM24.0649 26.8005V27.7254H23.14V26.8005H24.0649ZM24.9898 26.8005V27.7254H24.0649V26.8005H24.9898ZM24.9898 27.7254V28.6502H24.0649V27.7254H24.9898ZM25.9147 27.7254V28.6502H24.9898V27.7254H25.9147ZM25.9147 28.6502V29.5751H24.9898V28.6502H25.9147ZM26.8395 26.8005V27.7254H25.9147V26.8005H26.8395ZM25.9147 26.8005V27.7254H24.9898V26.8005H25.9147ZM31.4639 23.101V24.0259H30.539V23.101H31.4639ZM31.4639 22.1761V23.101H30.539V22.1761H31.4639ZM31.4639 21.2512V22.1761H30.539V21.2512H31.4639ZM31.4639 20.3263V21.2512H30.539V20.3263H31.4639ZM32.3888 20.3263V21.2512H31.4639V20.3263H32.3888ZM33.3137 20.3263V21.2512H32.3888V20.3263H33.3137ZM34.2386 20.3263V21.2512H33.3137V20.3263H34.2386ZM35.1634 20.3263V21.2512H34.2386V20.3263H35.1634ZM35.1634 21.2512V22.1761H34.2386V21.2512H35.1634ZM35.1634 22.1761V23.101H34.2386V22.1761H35.1634ZM35.1634 23.101V24.0259H34.2386V23.101H35.1634ZM34.2386 23.101V24.0259H33.3137V23.101H34.2386ZM33.3137 23.101V24.0259H32.3888V23.101H33.3137ZM32.3888 23.101V24.0259H31.4639V23.101H32.3888ZM33.3137 22.1761V23.101H32.3888V22.1761H33.3137ZM34.2386 22.1761V23.101H33.3137V22.1761H34.2386ZM34.2386 21.2512V22.1761H33.3137V21.2512H34.2386ZM33.3137 21.2512V22.1761H32.3888V21.2512H33.3137ZM32.3888 21.2512V22.1761H31.4639V21.2512H32.3888ZM32.3888 22.1761V23.101H31.4639V22.1761H32.3888ZM31.4639 19.4015V20.3263H30.539V19.4015H31.4639ZM31.4639 18.4766V19.4015H30.539V18.4766H31.4639ZM31.4639 17.5517V18.4766H30.539V17.5517H31.4639ZM31.4639 16.6268V17.5517H30.539V16.6268H31.4639ZM31.4639 15.702V16.6268H30.539V15.702H31.4639ZM31.4639 14.7771V15.702H30.539V14.7771H31.4639ZM31.4639 13.8522V14.7771H30.539V13.8522H31.4639ZM31.4639 12.9273V13.8522H30.539V12.9273H31.4639ZM32.3888 13.8522V14.7771H31.4639V13.8522H32.3888ZM32.3888 12.9273V13.8522H31.4639V12.9273H32.3888ZM33.3137 12.9273V13.8522H32.3888V12.9273H33.3137ZM34.2386 12.9273V13.8522H33.3137V12.9273H34.2386ZM34.2386 13.8522V14.7771H33.3137V13.8522H34.2386ZM34.2386 14.7771V15.702H33.3137V14.7771H34.2386ZM35.1634 14.7771V15.702H34.2386V14.7771H35.1634ZM35.1634 15.702V16.6268H34.2386V15.702H35.1634ZM35.1634 16.6268V17.5517H34.2386V16.6268H35.1634ZM35.1634 17.5517V18.4766H34.2386V17.5517H35.1634ZM35.1634 18.4766V19.4015H34.2386V18.4766H35.1634ZM35.1634 19.4015V20.3263H34.2386V19.4015H35.1634ZM35.1634 13.8522V14.7771H34.2386V13.8522H35.1634ZM35.1634 12.9273V13.8522H34.2386V12.9273H35.1634ZM33.3137 13.8522V14.7771H32.3888V13.8522H33.3137ZM33.3137 14.7771V15.702H32.3888V14.7771H33.3137ZM33.3137 15.702V16.6268H32.3888V15.702H33.3137ZM33.3137 16.6268V17.5517H32.3888V16.6268H33.3137ZM33.3137 17.5517V18.4766H32.3888V17.5517H33.3137ZM33.3137 18.4766V19.4015H32.3888V18.4766H33.3137ZM32.3888 18.4766V19.4015H31.4639V18.4766H32.3888ZM32.3888 19.4015V20.3263H31.4639V19.4015H32.3888ZM32.3888 17.5517V18.4766H31.4639V17.5517H32.3888ZM32.3888 16.6268V17.5517H31.4639V16.6268H32.3888ZM32.3888 15.702V16.6268H31.4639V15.702H32.3888ZM32.3888 14.7771V15.702H31.4639V14.7771H32.3888ZM34.2386 15.702V16.6268H33.3137V15.702H34.2386ZM34.2386 16.6268V17.5517H33.3137V16.6268H34.2386ZM34.2386 17.5517V18.4766H33.3137V17.5517H34.2386ZM34.2386 18.4766V19.4015H33.3137V18.4766H34.2386ZM34.2386 19.4015V20.3263H33.3137V19.4015H34.2386ZM33.3137 19.4015V20.3263H32.3888V19.4015H33.3137ZM49.0547 18.4766V19.4015H48.1298V18.4766H49.0547ZM49.9795 18.4766V19.4015H49.0547V18.4766H49.9795ZM50.9044 18.4766V19.4015H49.9795V18.4766H50.9044ZM51.8293 18.4766V19.4015H50.9044V18.4766H51.8293ZM52.7542 18.4766V19.4015H51.8293V18.4766H52.7542ZM52.7542 17.5517V18.4766H51.8293V17.5517H52.7542ZM52.7542 16.6268V17.5517H51.8293V16.6268H52.7542ZM51.8293 16.6268V17.5517H50.9044V16.6268H51.8293ZM50.9044 16.6268V17.5517H49.9795V16.6268H50.9044ZM49.9795 16.6268V17.5517H49.0547V16.6268H49.9795ZM49.9795 17.5517V18.4766H49.0547V17.5517H49.9795ZM49.0547 17.5517V18.4766H48.1298V17.5517H49.0547ZM50.9044 17.5517V18.4766H49.9795V17.5517H50.9044ZM51.8293 17.5517V18.4766H50.9044V17.5517H51.8293ZM49.0547 16.6268V17.5517H48.1298V16.6268H49.0547ZM48.1298 16.6268V17.5517H47.2049V16.6268H48.1298ZM48.1298 15.702V16.6268H47.2049V15.702H48.1298ZM49.0547 15.702V16.6268H48.1298V15.702H49.0547ZM49.9795 15.702V16.6268H49.0547V15.702H49.9795ZM50.9044 15.702V16.6268H49.9795V15.702H50.9044ZM51.8293 15.702V16.6268H50.9044V15.702H51.8293ZM51.8293 14.7771V15.702H50.9044V14.7771H51.8293ZM50.9044 14.7771V15.702H49.9795V14.7771H50.9044ZM49.9795 14.7771V15.702H49.0547V14.7771H49.9795ZM49.0547 14.7771V15.702H48.1298V14.7771H49.0547ZM48.1298 14.7771V15.702H47.2049V14.7771H48.1298ZM49.9795 13.8522V14.7771H49.0547V13.8522H49.9795ZM50.9044 13.8522V14.7771H49.9795V13.8522H50.9044ZM49.0547 13.8522V14.7771H48.1298V13.8522H49.0547ZM49.0547 12.9273V13.8522H48.1298V12.9273H49.0547ZM48.1298 12.9273V13.8522H47.2049V12.9273H48.1298ZM48.1298 13.8522V14.7771H47.2049V13.8522H48.1298ZM47.2049 13.8522V14.7771H46.28V13.8522H47.2049ZM47.2049 12.9273V13.8522H46.28V12.9273H47.2049ZM47.2049 14.7771V15.702H46.28V14.7771H47.2049ZM46.28 14.7771V15.702H45.3552V14.7771H46.28ZM46.28 15.702V16.6268H45.3552V15.702H46.28ZM47.2049 15.702V16.6268H46.28V15.702H47.2049ZM45.3552 15.702V16.6268H44.4303V15.702H45.3552ZM45.3552 14.7771V15.702H44.4303V14.7771H45.3552ZM45.3552 13.8522V14.7771H44.4303V13.8522H45.3552ZM45.3552 12.9273V13.8522H44.4303V12.9273H45.3552ZM46.28 12.9273V13.8522H45.3552V12.9273H46.28ZM46.28 13.8522V14.7771H45.3552V13.8522H46.28ZM44.4303 12.9273V13.8522H43.5054V12.9273H44.4303ZM43.5054 12.9273V13.8522H42.5805V12.9273H43.5054ZM42.5805 12.9273V13.8522H41.6556V12.9273H42.5805ZM42.5805 13.8522V14.7771H41.6556V13.8522H42.5805ZM42.5805 14.7771V15.702H41.6556V14.7771H42.5805ZM42.5805 15.702V16.6268H41.6556V15.702H42.5805ZM43.5054 15.702V16.6268H42.5805V15.702H43.5054ZM44.4303 15.702V16.6268H43.5054V15.702H44.4303ZM44.4303 14.7771V15.702H43.5054V14.7771H44.4303ZM44.4303 13.8522V14.7771H43.5054V13.8522H44.4303ZM43.5054 13.8522V14.7771H42.5805V13.8522H43.5054ZM43.5054 14.7771V15.702H42.5805V14.7771H43.5054ZM41.6556 14.7771V15.702H40.7308V14.7771H41.6556ZM41.6556 13.8522V14.7771H40.7308V13.8522H41.6556ZM40.7308 13.8522V14.7771H39.8059V13.8522H40.7308ZM40.7308 14.7771V15.702H39.8059V14.7771H40.7308ZM39.8059 14.7771V15.702H38.881V14.7771H39.8059ZM39.8059 15.702V16.6268H38.881V15.702H39.8059ZM39.8059 16.6268V17.5517H38.881V16.6268H39.8059ZM40.7308 16.6268V17.5517H39.8059V16.6268H40.7308ZM40.7308 15.702V16.6268H39.8059V15.702H40.7308ZM41.6556 15.702V16.6268H40.7308V15.702H41.6556ZM41.6556 16.6268V17.5517H40.7308V16.6268H41.6556ZM42.5805 16.6268V17.5517H41.6556V16.6268H42.5805ZM43.5054 16.6268V17.5517H42.5805V16.6268H43.5054ZM38.881 16.6268V17.5517H37.9561V16.6268H38.881ZM38.881 17.5517V18.4766H37.9561V17.5517H38.881ZM38.881 18.4766V19.4015H37.9561V18.4766H38.881ZM38.881 19.4015V20.3263H37.9561V19.4015H38.881ZM38.881 20.3263V21.2512H37.9561V20.3263H38.881ZM38.881 21.2512V22.1761H37.9561V21.2512H38.881ZM38.881 22.1761V23.101H37.9561V22.1761H38.881ZM38.881 23.101V24.0259H37.9561V23.101H38.881ZM38.881 24.0259V24.9507H37.9561V24.0259H38.881ZM38.881 24.9507V25.8756H37.9561V24.9507H38.881ZM39.8059 24.9507V25.8756H38.881V24.9507H39.8059ZM39.8059 25.8756V26.8005H38.881V25.8756H39.8059ZM38.881 25.8756V26.8005H37.9561V25.8756H38.881ZM40.7308 25.8756V26.8005H39.8059V25.8756H40.7308ZM41.6556 25.8756V26.8005H40.7308V25.8756H41.6556ZM42.5805 25.8756V26.8005H41.6556V25.8756H42.5805ZM43.5054 25.8756V26.8005H42.5805V25.8756H43.5054ZM42.5805 24.9507V25.8756H41.6556V24.9507H42.5805ZM42.5805 24.0259V24.9507H41.6556V24.0259H42.5805ZM42.5805 23.101V24.0259H41.6556V23.101H42.5805ZM42.5805 22.1761V23.101H41.6556V22.1761H42.5805ZM42.5805 21.2512V22.1761H41.6556V21.2512H42.5805ZM42.5805 20.3263V21.2512H41.6556V20.3263H42.5805ZM42.5805 19.4015V20.3263H41.6556V19.4015H42.5805ZM42.5805 18.4766V19.4015H41.6556V18.4766H42.5805ZM42.5805 17.5517V18.4766H41.6556V17.5517H42.5805ZM41.6556 17.5517V18.4766H40.7308V17.5517H41.6556ZM40.7308 17.5517V18.4766H39.8059V17.5517H40.7308ZM39.8059 17.5517V18.4766H38.881V17.5517H39.8059ZM39.8059 18.4766V19.4015H38.881V18.4766H39.8059ZM39.8059 19.4015V20.3263H38.881V19.4015H39.8059ZM39.8059 20.3263V21.2512H38.881V20.3263H39.8059ZM39.8059 21.2512V22.1761H38.881V21.2512H39.8059ZM39.8059 22.1761V23.101H38.881V22.1761H39.8059ZM39.8059 23.101V24.0259H38.881V23.101H39.8059ZM39.8059 24.0259V24.9507H38.881V24.0259H39.8059ZM40.7308 24.9507V25.8756H39.8059V24.9507H40.7308ZM41.6556 24.9507V25.8756H40.7308V24.9507H41.6556ZM41.6556 24.0259V24.9507H40.7308V24.0259H41.6556ZM41.6556 23.101V24.0259H40.7308V23.101H41.6556ZM41.6556 22.1761V23.101H40.7308V22.1761H41.6556ZM41.6556 21.2512V22.1761H40.7308V21.2512H41.6556ZM40.7308 21.2512V22.1761H39.8059V21.2512H40.7308ZM40.7308 20.3263V21.2512H39.8059V20.3263H40.7308ZM40.7308 19.4015V20.3263H39.8059V19.4015H40.7308ZM40.7308 18.4766V19.4015H39.8059V18.4766H40.7308ZM41.6556 18.4766V19.4015H40.7308V18.4766H41.6556ZM41.6556 19.4015V20.3263H40.7308V19.4015H41.6556ZM41.6556 20.3263V21.2512H40.7308V20.3263H41.6556ZM40.7308 23.101V24.0259H39.8059V23.101H40.7308ZM40.7308 24.0259V24.9507H39.8059V24.0259H40.7308ZM40.7308 22.1761V23.101H39.8059V22.1761H40.7308ZM49.0547 24.9507V25.8756H48.1298V24.9507H49.0547ZM49.9795 24.9507V25.8756H49.0547V24.9507H49.9795ZM50.9044 24.9507V25.8756H49.9795V24.9507H50.9044ZM51.8293 24.9507V25.8756H50.9044V24.9507H51.8293ZM52.7542 24.9507V25.8756H51.8293V24.9507H52.7542ZM52.7542 25.8756V26.8005H51.8293V25.8756H52.7542ZM51.8293 25.8756V26.8005H50.9044V25.8756H51.8293ZM50.9044 25.8756V26.8005H49.9795V25.8756H50.9044ZM49.9795 25.8756V26.8005H49.0547V25.8756H49.9795ZM49.0547 25.8756V26.8005H48.1298V25.8756H49.0547ZM48.1298 25.8756V26.8005H47.2049V25.8756H48.1298ZM48.1298 26.8005V27.7254H47.2049V26.8005H48.1298ZM49.0547 26.8005V27.7254H48.1298V26.8005H49.0547ZM49.9795 26.8005V27.7254H49.0547V26.8005H49.9795ZM50.9044 26.8005V27.7254H49.9795V26.8005H50.9044ZM50.9044 27.7254V28.6502H49.9795V27.7254H50.9044ZM51.8293 27.7254V28.6502H50.9044V27.7254H51.8293ZM51.8293 26.8005V27.7254H50.9044V26.8005H51.8293ZM50.9044 28.6502V29.5751H49.9795V28.6502H50.9044ZM49.9795 28.6502V29.5751H49.0547V28.6502H49.9795ZM49.9795 27.7254V28.6502H49.0547V27.7254H49.9795ZM49.0547 27.7254V28.6502H48.1298V27.7254H49.0547ZM49.0547 28.6502V29.5751H48.1298V28.6502H49.0547ZM49.0547 29.5751V30.5H48.1298V29.5751H49.0547ZM48.1298 29.5751V30.5H47.2049V29.5751H48.1298ZM47.2049 29.5751V30.5H46.28V29.5751H47.2049ZM46.28 29.5751V30.5H45.3552V29.5751H46.28ZM45.3552 29.5751V30.5H44.4303V29.5751H45.3552ZM44.4303 29.5751V30.5H43.5054V29.5751H44.4303ZM43.5054 29.5751V30.5H42.5805V29.5751H43.5054ZM42.5805 29.5751V30.5H41.6556V29.5751H42.5805ZM43.5054 28.6502V29.5751H42.5805V28.6502H43.5054ZM44.4303 28.6502V29.5751H43.5054V28.6502H44.4303ZM45.3552 28.6502V29.5751H44.4303V28.6502H45.3552ZM46.28 28.6502V29.5751H45.3552V28.6502H46.28ZM47.2049 28.6502V29.5751H46.28V28.6502H47.2049ZM48.1298 28.6502V29.5751H47.2049V28.6502H48.1298ZM48.1298 27.7254V28.6502H47.2049V27.7254H48.1298ZM47.2049 27.7254V28.6502H46.28V27.7254H47.2049ZM46.28 27.7254V28.6502H45.3552V27.7254H46.28ZM45.3552 27.7254V28.6502H44.4303V27.7254H45.3552ZM44.4303 27.7254V28.6502H43.5054V27.7254H44.4303ZM43.5054 27.7254V28.6502H42.5805V27.7254H43.5054ZM42.5805 28.6502V29.5751H41.6556V28.6502H42.5805ZM41.6556 28.6502V29.5751H40.7308V28.6502H41.6556ZM40.7308 28.6502V29.5751H39.8059V28.6502H40.7308ZM40.7308 27.7254V28.6502H39.8059V27.7254H40.7308ZM39.8059 27.7254V28.6502H38.881V27.7254H39.8059ZM39.8059 26.8005V27.7254H38.881V26.8005H39.8059ZM40.7308 26.8005V27.7254H39.8059V26.8005H40.7308ZM41.6556 26.8005V27.7254H40.7308V26.8005H41.6556ZM42.5805 26.8005V27.7254H41.6556V26.8005H42.5805ZM43.5054 26.8005V27.7254H42.5805V26.8005H43.5054ZM44.4303 26.8005V27.7254H43.5054V26.8005H44.4303ZM45.3552 26.8005V27.7254H44.4303V26.8005H45.3552ZM46.28 26.8005V27.7254H45.3552V26.8005H46.28ZM47.2049 26.8005V27.7254H46.28V26.8005H47.2049ZM42.5805 27.7254V28.6502H41.6556V27.7254H42.5805ZM41.6556 27.7254V28.6502H40.7308V27.7254H41.6556ZM52.7542 19.4015V20.3263H51.8293V19.4015H52.7542ZM51.8293 19.4015V20.3263H50.9044V19.4015H51.8293ZM50.9044 19.4015V20.3263H49.9795V19.4015H50.9044ZM49.9795 19.4015V20.3263H49.0547V19.4015H49.9795ZM49.0547 19.4015V20.3263H48.1298V19.4015H49.0547ZM52.7542 20.3263V21.2512H51.8293V20.3263H52.7542ZM50.9044 20.3263V21.2512H49.9795V20.3263H50.9044ZM49.9795 20.3263V21.2512H49.0547V20.3263H49.9795ZM48.1298 20.3263V21.2512H47.2049V20.3263H48.1298ZM47.2049 20.3263V21.2512H46.28V20.3263H47.2049ZM46.28 20.3263V21.2512H45.3552V20.3263H46.28ZM45.3552 20.3263V21.2512H44.4303V20.3263H45.3552ZM44.4303 20.3263V21.2512H43.5054V20.3263H44.4303ZM43.5054 20.3263V21.2512H42.5805V20.3263H43.5054ZM49.0547 20.3263V21.2512H48.1298V20.3263H49.0547ZM51.8293 20.3263V21.2512H50.9044V20.3263H51.8293ZM52.7542 21.2512V22.1761H51.8293V21.2512H52.7542ZM51.8293 21.2512V22.1761H50.9044V21.2512H51.8293ZM50.9044 21.2512V22.1761H49.9795V21.2512H50.9044ZM49.9795 21.2512V22.1761H49.0547V21.2512H49.9795ZM49.0547 21.2512V22.1761H48.1298V21.2512H49.0547ZM48.1298 21.2512V22.1761H47.2049V21.2512H48.1298ZM47.2049 21.2512V22.1761H46.28V21.2512H47.2049ZM46.28 21.2512V22.1761H45.3552V21.2512H46.28ZM45.3552 21.2512V22.1761H44.4303V21.2512H45.3552ZM44.4303 21.2512V22.1761H43.5054V21.2512H44.4303ZM43.5054 21.2512V22.1761H42.5805V21.2512H43.5054ZM43.5054 22.1761V23.101H42.5805V22.1761H43.5054ZM44.4303 22.1761V23.101H43.5054V22.1761H44.4303ZM45.3552 22.1761V23.101H44.4303V22.1761H45.3552ZM47.2049 22.1761V23.101H46.28V22.1761H47.2049ZM48.1298 22.1761V23.101H47.2049V22.1761H48.1298ZM49.0547 22.1761V23.101H48.1298V22.1761H49.0547ZM49.9795 22.1761V23.101H49.0547V22.1761H49.9795ZM50.9044 22.1761V23.101H49.9795V22.1761H50.9044ZM51.8293 22.1761V23.101H50.9044V22.1761H51.8293ZM52.7542 22.1761V23.101H51.8293V22.1761H52.7542ZM46.28 22.1761V23.101H45.3552V22.1761H46.28ZM56.47 29.5751V30.5H55.5451V29.5751H56.47ZM56.47 28.6502V29.5751H55.5451V28.6502H56.47ZM56.47 27.7254V28.6502H55.5451V27.7254H56.47ZM56.47 26.8005V27.7254H55.5451V26.8005H56.47ZM56.47 25.8756V26.8005H55.5451V25.8756H56.47ZM56.47 24.9507V25.8756H55.5451V24.9507H56.47ZM56.47 24.0259V24.9507H55.5451V24.0259H56.47ZM56.47 23.101V24.0259H55.5451V23.101H56.47ZM56.47 22.1761V23.101H55.5451V22.1761H56.47ZM56.47 21.2512V22.1761H55.5451V21.2512H56.47ZM56.47 20.3263V21.2512H55.5451V20.3263H56.47ZM56.47 19.4015V20.3263H55.5451V19.4015H56.47ZM56.47 18.4766V19.4015H55.5451V18.4766H56.47ZM56.47 17.5517V18.4766H55.5451V17.5517H56.47ZM56.47 16.6268V17.5517H55.5451V16.6268H56.47ZM57.3948 16.6268V17.5517H56.47V16.6268H57.3948ZM57.3948 17.5517V18.4766H56.47V17.5517H57.3948ZM57.3948 18.4766V19.4015H56.47V18.4766H57.3948ZM57.3948 19.4015V20.3263H56.47V19.4015H57.3948ZM57.3948 20.3263V21.2512H56.47V20.3263H57.3948ZM57.3948 21.2512V22.1761H56.47V21.2512H57.3948ZM57.3948 22.1761V23.101H56.47V22.1761H57.3948ZM58.3197 23.101V24.0259H57.3948V23.101H58.3197ZM58.3197 24.0259V24.9507H57.3948V24.0259H58.3197ZM58.3197 24.9507V25.8756H57.3948V24.9507H58.3197ZM58.3197 25.8756V26.8005H57.3948V25.8756H58.3197ZM58.3197 26.8005V27.7254H57.3948V26.8005H58.3197ZM58.3197 27.7254V28.6502H57.3948V27.7254H58.3197ZM58.3197 28.6502V29.5751H57.3948V28.6502H58.3197ZM58.3197 29.5751V30.5H57.3948V29.5751H58.3197ZM59.2446 29.5751V30.5H58.3197V29.5751H59.2446ZM60.1695 29.5751V30.5H59.2446V29.5751H60.1695ZM60.1695 28.6502V29.5751H59.2446V28.6502H60.1695ZM60.1695 27.7254V28.6502H59.2446V27.7254H60.1695ZM60.1695 26.8005V27.7254H59.2446V26.8005H60.1695ZM60.1695 25.8756V26.8005H59.2446V25.8756H60.1695ZM60.1695 24.9507V25.8756H59.2446V24.9507H60.1695ZM60.1695 24.0259V24.9507H59.2446V24.0259H60.1695ZM60.1695 23.101V24.0259H59.2446V23.101H60.1695ZM59.2446 23.101V24.0259H58.3197V23.101H59.2446ZM59.2446 22.1761V23.101H58.3197V22.1761H59.2446ZM59.2446 24.0259V24.9507H58.3197V24.0259H59.2446ZM59.2446 24.9507V25.8756H58.3197V24.9507H59.2446ZM59.2446 25.8756V26.8005H58.3197V25.8756H59.2446ZM59.2446 26.8005V27.7254H58.3197V26.8005H59.2446ZM59.2446 27.7254V28.6502H58.3197V27.7254H59.2446ZM59.2446 28.6502V29.5751H58.3197V28.6502H59.2446ZM57.3948 29.5751V30.5H56.47V29.5751H57.3948ZM57.3948 28.6502V29.5751H56.47V28.6502H57.3948ZM57.3948 27.7254V28.6502H56.47V27.7254H57.3948ZM57.3948 26.8005V27.7254H56.47V26.8005H57.3948ZM57.3948 25.8756V26.8005H56.47V25.8756H57.3948ZM57.3948 24.9507V25.8756H56.47V24.9507H57.3948ZM57.3948 24.0259V24.9507H56.47V24.0259H57.3948ZM57.3948 23.101V24.0259H56.47V23.101H57.3948ZM56.47 12.9273V13.8522H55.5451V12.9273H56.47ZM56.47 13.8522V14.7771H55.5451V13.8522H56.47ZM56.47 14.7771V15.702H55.5451V14.7771H56.47ZM56.47 15.702V16.6268H55.5451V15.702H56.47ZM59.2446 13.8522V14.7771H58.3197V13.8522H59.2446ZM59.2446 14.7771V15.702H58.3197V14.7771H59.2446ZM59.2446 15.702V16.6268H58.3197V15.702H59.2446ZM59.2446 16.6268V17.5517H58.3197V16.6268H59.2446ZM59.2446 17.5517V18.4766H58.3197V17.5517H59.2446ZM59.2446 18.4766V19.4015H58.3197V18.4766H59.2446ZM59.2446 19.4015V20.3263H58.3197V19.4015H59.2446ZM60.1695 20.3263V21.2512H59.2446V20.3263H60.1695ZM60.1695 21.2512V22.1761H59.2446V21.2512H60.1695ZM60.1695 22.1761V23.101H59.2446V22.1761H60.1695ZM60.1695 19.4015V20.3263H59.2446V19.4015H60.1695ZM60.1695 18.4766V19.4015H59.2446V18.4766H60.1695ZM60.1695 17.5517V18.4766H59.2446V17.5517H60.1695ZM60.1695 16.6268V17.5517H59.2446V16.6268H60.1695ZM60.1695 15.702V16.6268H59.2446V15.702H60.1695ZM60.1695 14.7771V15.702H59.2446V14.7771H60.1695ZM60.1695 13.8522V14.7771H59.2446V13.8522H60.1695ZM60.1695 12.9273V13.8522H59.2446V12.9273H60.1695ZM59.2446 12.9273V13.8522H58.3197V12.9273H59.2446ZM58.3197 12.9273V13.8522H57.3948V12.9273H58.3197ZM58.3197 13.8522V14.7771H57.3948V13.8522H58.3197ZM57.3948 14.7771V15.702H56.47V14.7771H57.3948ZM57.3948 15.702V16.6268H56.47V15.702H57.3948ZM57.3948 13.8522V14.7771H56.47V13.8522H57.3948ZM57.3948 12.9273V13.8522H56.47V12.9273H57.3948ZM58.3197 14.7771V15.702H57.3948V14.7771H58.3197ZM58.3197 15.702V16.6268H57.3948V15.702H58.3197ZM58.3197 16.6268V17.5517H57.3948V16.6268H58.3197ZM58.3197 17.5517V18.4766H57.3948V17.5517H58.3197ZM58.3197 18.4766V19.4015H57.3948V18.4766H58.3197ZM58.3197 19.4015V20.3263H57.3948V19.4015H58.3197ZM58.3197 20.3263V21.2512H57.3948V20.3263H58.3197ZM58.3197 21.2512V22.1761H57.3948V21.2512H58.3197ZM58.3197 22.1761V23.101H57.3948V22.1761H58.3197ZM59.2446 21.2512V22.1761H58.3197V21.2512H59.2446ZM59.2446 20.3263V21.2512H58.3197V20.3263H59.2446ZM66.6436 29.5751V30.5H65.7187V29.5751H66.6436ZM67.5685 29.5751V30.5H66.6436V29.5751H67.5685ZM68.4934 29.5751V30.5H67.5685V29.5751H68.4934ZM69.4182 29.5751V30.5H68.4934V29.5751H69.4182ZM70.3431 28.6502V29.5751H69.4182V28.6502H70.3431ZM70.3431 27.7254V28.6502H69.4182V27.7254H70.3431ZM70.3431 29.5751V30.5H69.4182V29.5751H70.3431ZM69.4182 28.6502V29.5751H68.4934V28.6502H69.4182ZM68.4934 28.6502V29.5751H67.5685V28.6502H68.4934ZM67.5685 28.6502V29.5751H66.6436V28.6502H67.5685ZM66.6436 28.6502V29.5751H65.7187V28.6502H66.6436ZM66.6436 27.7254V28.6502H65.7187V27.7254H66.6436ZM66.6436 26.8005V27.7254H65.7187V26.8005H66.6436ZM67.5685 26.8005V27.7254H66.6436V26.8005H67.5685ZM68.4934 26.8005V27.7254H67.5685V26.8005H68.4934ZM69.4182 26.8005V27.7254H68.4934V26.8005H69.4182ZM70.3431 26.8005V27.7254H69.4182V26.8005H70.3431ZM69.4182 27.7254V28.6502H68.4934V27.7254H69.4182ZM68.4934 27.7254V28.6502H67.5685V27.7254H68.4934ZM67.5685 27.7254V28.6502H66.6436V27.7254H67.5685ZM70.3431 16.6268V17.5517H69.4182V16.6268H70.3431ZM69.4182 16.6268V17.5517H68.4934V16.6268H69.4182ZM67.5685 16.6268V17.5517H66.6436V16.6268H67.5685ZM67.5685 17.5517V18.4766H66.6436V17.5517H67.5685ZM67.5685 18.4766V19.4015H66.6436V18.4766H67.5685ZM66.6436 19.4015V20.3263H65.7187V19.4015H66.6436ZM66.6436 20.3263V21.2512H65.7187V20.3263H66.6436ZM66.6436 21.2512V22.1761H65.7187V21.2512H66.6436ZM66.6436 22.1761V23.101H65.7187V22.1761H66.6436ZM66.6436 23.101V24.0259H65.7187V23.101H66.6436ZM66.6436 24.0259V24.9507H65.7187V24.0259H66.6436ZM66.6436 24.9507V25.8756H65.7187V24.9507H66.6436ZM66.6436 25.8756V26.8005H65.7187V25.8756H66.6436ZM67.5685 25.8756V26.8005H66.6436V25.8756H67.5685ZM68.4934 25.8756V26.8005H67.5685V25.8756H68.4934ZM69.4182 25.8756V26.8005H68.4934V25.8756H69.4182ZM70.3431 25.8756V26.8005H69.4182V25.8756H70.3431ZM70.3431 24.9507V25.8756H69.4182V24.9507H70.3431ZM70.3431 23.101V24.0259H69.4182V23.101H70.3431ZM70.3431 22.1761V23.101H69.4182V22.1761H70.3431ZM70.3431 21.2512V22.1761H69.4182V21.2512H70.3431ZM70.3431 20.3263V21.2512H69.4182V20.3263H70.3431ZM70.3431 19.4015V20.3263H69.4182V19.4015H70.3431ZM70.3431 18.4766V19.4015H69.4182V18.4766H70.3431ZM70.3431 17.5517V18.4766H69.4182V17.5517H70.3431ZM69.4182 21.2512V22.1761H68.4934V21.2512H69.4182ZM69.4182 23.101V24.0259H68.4934V23.101H69.4182ZM69.4182 24.0259V24.9507H68.4934V24.0259H69.4182ZM69.4182 24.9507V25.8756H68.4934V24.9507H69.4182ZM70.3431 24.0259V24.9507H69.4182V24.0259H70.3431ZM69.4182 19.4015V20.3263H68.4934V19.4015H69.4182ZM68.4934 19.4015V20.3263H67.5685V19.4015H68.4934ZM67.5685 19.4015V20.3263H66.6436V19.4015H67.5685ZM67.5685 20.3263V21.2512H66.6436V20.3263H67.5685ZM67.5685 21.2512V22.1761H66.6436V21.2512H67.5685ZM67.5685 22.1761V23.101H66.6436V22.1761H67.5685ZM67.5685 23.101V24.0259H66.6436V23.101H67.5685ZM67.5685 24.0259V24.9507H66.6436V24.0259H67.5685ZM67.5685 24.9507V25.8756H66.6436V24.9507H67.5685ZM68.4934 24.9507V25.8756H67.5685V24.9507H68.4934ZM68.4934 24.0259V24.9507H67.5685V24.0259H68.4934ZM68.4934 23.101V24.0259H67.5685V23.101H68.4934ZM68.4934 22.1761V23.101H67.5685V22.1761H68.4934ZM68.4934 21.2512V22.1761H67.5685V21.2512H68.4934ZM68.4934 20.3263V21.2512H67.5685V20.3263H68.4934ZM69.4182 20.3263V21.2512H68.4934V20.3263H69.4182ZM69.4182 22.1761V23.101H68.4934V22.1761H69.4182ZM69.4182 18.4766V19.4015H68.4934V18.4766H69.4182ZM69.4182 17.5517V18.4766H68.4934V17.5517H69.4182ZM68.4934 17.5517V18.4766H67.5685V17.5517H68.4934ZM68.4934 18.4766V19.4015H67.5685V18.4766H68.4934ZM66.6436 18.4766V19.4015H65.7187V18.4766H66.6436ZM66.6436 17.5517V18.4766H65.7187V17.5517H66.6436ZM66.6436 16.6268V17.5517H65.7187V16.6268H66.6436ZM68.4934 16.6268V17.5517H67.5685V16.6268H68.4934ZM66.6436 12.9273V13.8522H65.7187V12.9273H66.6436ZM66.6436 13.8522V14.7771H65.7187V13.8522H66.6436ZM67.5685 13.8522V14.7771H66.6436V13.8522H67.5685ZM68.4934 13.8522V14.7771H67.5685V13.8522H68.4934ZM68.4934 14.7771V15.702H67.5685V14.7771H68.4934ZM69.4182 14.7771V15.702H68.4934V14.7771H69.4182ZM69.4182 15.702V16.6268H68.4934V15.702H69.4182ZM68.4934 15.702V16.6268H67.5685V15.702H68.4934ZM67.5685 15.702V16.6268H66.6436V15.702H67.5685ZM67.5685 14.7771V15.702H66.6436V14.7771H67.5685ZM66.6436 14.7771V15.702H65.7187V14.7771H66.6436ZM65.7187 14.7771V15.702H64.7939V14.7771H65.7187ZM65.7187 15.702V16.6268H64.7939V15.702H65.7187ZM66.6436 15.702V16.6268H65.7187V15.702H66.6436ZM65.7187 16.6268V17.5517H64.7939V16.6268H65.7187ZM64.7939 15.702V16.6268H63.869V15.702H64.7939ZM64.7939 14.7771V15.702H63.869V14.7771H64.7939ZM64.7939 13.8522V14.7771H63.869V13.8522H64.7939ZM64.7939 12.9273V13.8522H63.869V12.9273H64.7939ZM65.7187 12.9273V13.8522H64.7939V12.9273H65.7187ZM65.7187 13.8522V14.7771H64.7939V13.8522H65.7187ZM63.869 12.9273V13.8522H62.9441V12.9273H63.869ZM63.869 13.8522V14.7771H62.9441V13.8522H63.869ZM63.869 14.7771V15.702H62.9441V14.7771H63.869ZM63.869 15.702V16.6268H62.9441V15.702H63.869ZM62.9441 12.9273V13.8522H62.0192V12.9273H62.9441ZM62.9441 13.8522V14.7771H62.0192V13.8522H62.9441ZM62.0192 13.8522V14.7771H61.0943V13.8522H62.0192ZM62.0192 14.7771V15.702H61.0943V14.7771H62.0192ZM61.0943 14.7771V15.702H60.1695V14.7771H61.0943ZM61.0943 15.702V16.6268H60.1695V15.702H61.0943ZM62.0192 15.702V16.6268H61.0943V15.702H62.0192ZM62.9441 15.702V16.6268H62.0192V15.702H62.9441ZM62.9441 14.7771V15.702H62.0192V14.7771H62.9441ZM61.0943 16.6268V17.5517H60.1695V16.6268H61.0943ZM62.0192 12.9273V13.8522H61.0943V12.9273H62.0192ZM61.0943 13.8522V14.7771H60.1695V13.8522H61.0943ZM77.7593 9.2278V10.1527H76.8344V9.2278H77.7593ZM77.7593 10.1527V11.0776H76.8344V10.1527H77.7593ZM77.7593 11.0776V12.0024H76.8344V11.0776H77.7593ZM77.7593 12.0024V12.9273H76.8344V12.0024H77.7593ZM77.7593 12.9273V13.8522H76.8344V12.9273H77.7593ZM77.7593 13.8522V14.7771H76.8344V13.8522H77.7593ZM77.7593 14.7771V15.702H76.8344V14.7771H77.7593ZM77.7593 15.702V16.6268H76.8344V15.702H77.7593ZM78.6842 15.702V16.6268H77.7593V15.702H78.6842ZM79.6091 15.702V16.6268H78.6842V15.702H79.6091ZM80.5339 15.702V16.6268H79.6091V15.702H80.5339ZM81.4588 15.702V16.6268H80.5339V15.702H81.4588ZM77.7593 17.5517V18.4766H76.8344V17.5517H77.7593ZM76.8344 17.5517V18.4766H75.9095V17.5517H76.8344ZM76.8344 16.6268V17.5517H75.9095V16.6268H76.8344ZM77.7593 16.6268V17.5517H76.8344V16.6268H77.7593ZM77.7593 18.4766V19.4015H76.8344V18.4766H77.7593ZM76.8344 18.4766V19.4015H75.9095V18.4766H76.8344ZM75.9095 18.4766V19.4015H74.9847V18.4766H75.9095ZM74.9847 18.4766V19.4015H74.0598V18.4766H74.9847ZM74.0598 18.4766V19.4015H73.1349V18.4766H74.0598ZM72.21 15.702V16.6268H71.2852V15.702H72.21ZM73.1349 15.702V16.6268H72.21V15.702H73.1349ZM74.0598 15.702V16.6268H73.1349V15.702H74.0598ZM74.9847 15.702V16.6268H74.0598V15.702H74.9847ZM75.9095 15.702V16.6268H74.9847V15.702H75.9095ZM76.8344 15.702V16.6268H75.9095V15.702H76.8344ZM75.9095 17.5517V18.4766H74.9847V17.5517H75.9095ZM75.9095 16.6268V17.5517H74.9847V16.6268H75.9095ZM74.9847 16.6268V17.5517H74.0598V16.6268H74.9847ZM74.0598 16.6268V17.5517H73.1349V16.6268H74.0598ZM74.0598 17.5517V18.4766H73.1349V17.5517H74.0598ZM74.9847 17.5517V18.4766H74.0598V17.5517H74.9847ZM76.8344 10.1527V11.0776H75.9095V10.1527H76.8344ZM76.8344 11.0776V12.0024H75.9095V11.0776H76.8344ZM75.9095 11.0776V12.0024H74.9847V11.0776H75.9095ZM75.9095 12.0024V12.9273H74.9847V12.0024H75.9095ZM75.9095 12.9273V13.8522H74.9847V12.9273H75.9095ZM74.9847 12.0024V12.9273H74.0598V12.0024H74.9847ZM74.9847 12.9273V13.8522H74.0598V12.9273H74.9847ZM74.0598 12.9273V13.8522H73.1349V12.9273H74.0598ZM74.0598 13.8522V14.7771H73.1349V13.8522H74.0598ZM74.0598 14.7771V15.702H73.1349V14.7771H74.0598ZM75.9095 14.7771V15.702H74.9847V14.7771H75.9095ZM76.8344 14.7771V15.702H75.9095V14.7771H76.8344ZM76.8344 13.8522V14.7771H75.9095V13.8522H76.8344ZM76.8344 12.9273V13.8522H75.9095V12.9273H76.8344ZM76.8344 12.0024V12.9273H75.9095V12.0024H76.8344ZM75.9095 13.8522V14.7771H74.9847V13.8522H75.9095ZM74.9847 14.7771V15.702H74.0598V14.7771H74.9847ZM74.9847 13.8522V14.7771H74.0598V13.8522H74.9847ZM81.4588 26.8005V27.7254H80.5339V26.8005H81.4588ZM81.4588 27.7254V28.6502H80.5339V27.7254H81.4588ZM81.4588 29.5751V30.5H80.5339V29.5751H81.4588ZM80.5339 29.5751V30.5H79.6091V29.5751H80.5339ZM79.6091 29.5751V30.5H78.6842V29.5751H79.6091ZM78.6842 29.5751V30.5H77.7593V29.5751H78.6842ZM77.7593 29.5751V30.5H76.8344V29.5751H77.7593ZM77.7593 28.6502V29.5751H76.8344V28.6502H77.7593ZM76.8344 28.6502V29.5751H75.9095V28.6502H76.8344ZM75.9095 28.6502V29.5751H74.9847V28.6502H75.9095ZM75.9095 27.7254V28.6502H74.9847V27.7254H75.9095ZM74.9847 27.7254V28.6502H74.0598V27.7254H74.9847ZM74.9847 26.8005V27.7254H74.0598V26.8005H74.9847ZM74.9847 25.8756V26.8005H74.0598V25.8756H74.9847ZM74.0598 25.8756V26.8005H73.1349V25.8756H74.0598ZM74.0598 24.9507V25.8756H73.1349V24.9507H74.0598ZM74.0598 24.0259V24.9507H73.1349V24.0259H74.0598ZM74.0598 23.101V24.0259H73.1349V23.101H74.0598ZM74.0598 22.1761V23.101H73.1349V22.1761H74.0598ZM74.0598 21.2512V22.1761H73.1349V21.2512H74.0598ZM74.0598 20.3263V21.2512H73.1349V20.3263H74.0598ZM74.0598 19.4015V20.3263H73.1349V19.4015H74.0598ZM74.9847 19.4015V20.3263H74.0598V19.4015H74.9847ZM75.9095 19.4015V20.3263H74.9847V19.4015H75.9095ZM76.8344 19.4015V20.3263H75.9095V19.4015H76.8344ZM77.7593 19.4015V20.3263H76.8344V19.4015H77.7593ZM77.7593 20.3263V21.2512H76.8344V20.3263H77.7593ZM77.7593 21.2512V22.1761H76.8344V21.2512H77.7593ZM77.7593 22.1761V23.101H76.8344V22.1761H77.7593ZM77.7593 23.101V24.0259H76.8344V23.101H77.7593ZM77.7593 24.0259V24.9507H76.8344V24.0259H77.7593ZM77.7593 24.9507V25.8756H76.8344V24.9507H77.7593ZM77.7593 25.8756V26.8005H76.8344V25.8756H77.7593ZM78.6842 25.8756V26.8005H77.7593V25.8756H78.6842ZM78.6842 26.8005V27.7254H77.7593V26.8005H78.6842ZM79.6091 26.8005V27.7254H78.6842V26.8005H79.6091ZM79.6091 27.7254V28.6502H78.6842V27.7254H79.6091ZM80.5339 27.7254V28.6502H79.6091V27.7254H80.5339ZM80.5339 26.8005V27.7254H79.6091V26.8005H80.5339ZM81.4588 28.6502V29.5751H80.5339V28.6502H81.4588ZM80.5339 28.6502V29.5751H79.6091V28.6502H80.5339ZM79.6091 28.6502V29.5751H78.6842V28.6502H79.6091ZM78.6842 28.6502V29.5751H77.7593V28.6502H78.6842ZM78.6842 27.7254V28.6502H77.7593V27.7254H78.6842ZM77.7593 27.7254V28.6502H76.8344V27.7254H77.7593ZM77.7593 26.8005V27.7254H76.8344V26.8005H77.7593ZM76.8344 26.8005V27.7254H75.9095V26.8005H76.8344ZM76.8344 27.7254V28.6502H75.9095V27.7254H76.8344ZM75.9095 26.8005V27.7254H74.9847V26.8005H75.9095ZM76.8344 25.8756V26.8005H75.9095V25.8756H76.8344ZM76.8344 24.9507V25.8756H75.9095V24.9507H76.8344ZM75.9095 25.8756V26.8005H74.9847V25.8756H75.9095ZM75.9095 24.9507V25.8756H74.9847V24.9507H75.9095ZM76.8344 24.0259V24.9507H75.9095V24.0259H76.8344ZM76.8344 23.101V24.0259H75.9095V23.101H76.8344ZM76.8344 22.1761V23.101H75.9095V22.1761H76.8344ZM76.8344 21.2512V22.1761H75.9095V21.2512H76.8344ZM76.8344 20.3263V21.2512H75.9095V20.3263H76.8344ZM75.9095 20.3263V21.2512H74.9847V20.3263H75.9095ZM74.9847 20.3263V21.2512H74.0598V20.3263H74.9847ZM74.9847 21.2512V22.1761H74.0598V21.2512H74.9847ZM74.9847 22.1761V23.101H74.0598V22.1761H74.9847ZM74.9847 23.101V24.0259H74.0598V23.101H74.9847ZM74.9847 24.0259V24.9507H74.0598V24.0259H74.9847ZM74.9847 24.9507V25.8756H74.0598V24.9507H74.9847ZM75.9095 24.0259V24.9507H74.9847V24.0259H75.9095ZM75.9095 23.101V24.0259H74.9847V23.101H75.9095ZM75.9095 22.1761V23.101H74.9847V22.1761H75.9095ZM75.9095 21.2512V22.1761H74.9847V21.2512H75.9095ZM81.4588 13.8522V14.7771H80.5339V13.8522H81.4588ZM80.5339 13.8522V14.7771H79.6091V13.8522H80.5339ZM80.5339 14.7771V15.702H79.6091V14.7771H80.5339ZM81.4588 14.7771V15.702H80.5339V14.7771H81.4588ZM79.6091 14.7771V15.702H78.6842V14.7771H79.6091ZM78.6842 14.7771V15.702H77.7593V14.7771H78.6842ZM78.6842 13.8522V14.7771H77.7593V13.8522H78.6842ZM79.6091 13.8522V14.7771H78.6842V13.8522H79.6091ZM74.0598 12.0024V12.9273H73.1349V12.0024H74.0598ZM74.9847 11.0776V12.0024H74.0598V11.0776H74.9847ZM75.9095 10.1527V11.0776H74.9847V10.1527H75.9095ZM76.8344 9.2278V10.1527H75.9095V9.2278H76.8344ZM73.1349 13.8522V14.7771H72.21V13.8522H73.1349ZM73.1349 14.7771V15.702H72.21V14.7771H73.1349ZM72.21 14.7771V15.702H71.2852V14.7771H72.21ZM72.21 13.8522V14.7771H71.2852V13.8522H72.21ZM77.7593 8.30293V9.2278H76.8344V8.30293H77.7593ZM72.21 16.6268V17.5517H71.2852V16.6268H72.21ZM73.1349 16.6268V17.5517H72.21V16.6268H73.1349ZM78.6842 16.6268V17.5517H77.7593V16.6268H78.6842ZM79.6091 16.6268V17.5517H78.6842V16.6268H79.6091ZM80.5339 16.6268V17.5517H79.6091V16.6268H80.5339ZM81.4588 16.6268V17.5517H80.5339V16.6268H81.4588Z" fill="#767779"/>
<path d="M85.7746 25.8756V26.8005H84.8498V25.8756H85.7746ZM85.7746 24.9507V25.8756H84.8498V24.9507H85.7746ZM85.7746 24.0259V24.9507H84.8498V24.0259H85.7746ZM85.7746 23.101V24.0259H84.8498V23.101H85.7746ZM85.7746 22.1761V23.101H84.8498V22.1761H85.7746ZM85.7746 21.2512V22.1761H84.8498V21.2512H85.7746ZM85.7746 20.3263V21.2512H84.8498V20.3263H85.7746ZM85.7746 19.4015V20.3263H84.8498V19.4015H85.7746ZM85.7746 18.4766V19.4015H84.8498V18.4766H85.7746ZM85.7746 17.5517V18.4766H84.8498V17.5517H85.7746ZM85.7746 16.6268V17.5517H84.8498V16.6268H85.7746ZM86.6995 16.6268V17.5517H85.7746V16.6268H86.6995ZM86.6995 17.5517V18.4766H85.7746V17.5517H86.6995ZM86.6995 18.4766V19.4015H85.7746V18.4766H86.6995ZM86.6995 19.4015V20.3263H85.7746V19.4015H86.6995ZM86.6995 20.3263V21.2512H85.7746V20.3263H86.6995ZM86.6995 21.2512V22.1761H85.7746V21.2512H86.6995ZM86.6995 22.1761V23.101H85.7746V22.1761H86.6995ZM87.6244 23.101V24.0259H86.6995V23.101H87.6244ZM87.6244 24.0259V24.9507H86.6995V24.0259H87.6244ZM87.6244 24.9507V25.8756H86.6995V24.9507H87.6244ZM87.6244 25.8756V26.8005H86.6995V25.8756H87.6244ZM87.6244 26.8005V27.7254H86.6995V26.8005H87.6244ZM87.6244 27.7254V28.6502H86.6995V27.7254H87.6244ZM87.6244 28.6502V29.5751H86.6995V28.6502H87.6244ZM89.4741 29.5751V30.5H88.5493V29.5751H89.4741ZM89.4741 28.6502V29.5751H88.5493V28.6502H89.4741ZM89.4741 27.7254V28.6502H88.5493V27.7254H89.4741ZM89.4741 26.8005V27.7254H88.5493V26.8005H89.4741ZM89.4741 25.8756V26.8005H88.5493V25.8756H89.4741ZM89.4741 24.9507V25.8756H88.5493V24.9507H89.4741ZM89.4741 24.0259V24.9507H88.5493V24.0259H89.4741ZM89.4741 23.101V24.0259H88.5493V23.101H89.4741ZM88.5493 23.101V24.0259H87.6244V23.101H88.5493ZM88.5493 22.1761V23.101H87.6244V22.1761H88.5493ZM88.5493 24.0259V24.9507H87.6244V24.0259H88.5493ZM88.5493 24.9507V25.8756H87.6244V24.9507H88.5493ZM88.5493 25.8756V26.8005H87.6244V25.8756H88.5493ZM88.5493 26.8005V27.7254H87.6244V26.8005H88.5493ZM88.5493 27.7254V28.6502H87.6244V27.7254H88.5493ZM88.5493 28.6502V29.5751H87.6244V28.6502H88.5493ZM86.6995 27.7254V28.6502H85.7746V27.7254H86.6995ZM86.6995 26.8005V27.7254H85.7746V26.8005H86.6995ZM86.6995 25.8756V26.8005H85.7746V25.8756H86.6995ZM86.6995 24.9507V25.8756H85.7746V24.9507H86.6995ZM86.6995 24.0259V24.9507H85.7746V24.0259H86.6995ZM86.6995 23.101V24.0259H85.7746V23.101H86.6995ZM85.7746 15.702V16.6268H84.8498V15.702H85.7746ZM88.5493 15.702V16.6268H87.6244V15.702H88.5493ZM88.5493 16.6268V17.5517H87.6244V16.6268H88.5493ZM88.5493 17.5517V18.4766H87.6244V17.5517H88.5493ZM88.5493 18.4766V19.4015H87.6244V18.4766H88.5493ZM88.5493 19.4015V20.3263H87.6244V19.4015H88.5493ZM89.4741 20.3263V21.2512H88.5493V20.3263H89.4741ZM89.4741 21.2512V22.1761H88.5493V21.2512H89.4741ZM89.4741 22.1761V23.101H88.5493V22.1761H89.4741ZM89.4741 19.4015V20.3263H88.5493V19.4015H89.4741ZM89.4741 18.4766V19.4015H88.5493V18.4766H89.4741ZM89.4741 17.5517V18.4766H88.5493V17.5517H89.4741ZM89.4741 16.6268V17.5517H88.5493V16.6268H89.4741ZM89.4741 15.702V16.6268H88.5493V15.702H89.4741ZM86.6995 15.702V16.6268H85.7746V15.702H86.6995ZM87.6244 15.702V16.6268H86.6995V15.702H87.6244ZM87.6244 16.6268V17.5517H86.6995V16.6268H87.6244ZM87.6244 17.5517V18.4766H86.6995V17.5517H87.6244ZM87.6244 18.4766V19.4015H86.6995V18.4766H87.6244ZM87.6244 19.4015V20.3263H86.6995V19.4015H87.6244ZM87.6244 20.3263V21.2512H86.6995V20.3263H87.6244ZM87.6244 21.2512V22.1761H86.6995V21.2512H87.6244ZM87.6244 22.1761V23.101H86.6995V22.1761H87.6244ZM88.5493 21.2512V22.1761H87.6244V21.2512H88.5493ZM88.5493 20.3263V21.2512H87.6244V20.3263H88.5493ZM96.8732 29.5751V30.5H95.9483V29.5751H96.8732ZM96.8732 28.6502V29.5751H95.9483V28.6502H96.8732ZM96.8732 27.7254V28.6502H95.9483V27.7254H96.8732ZM96.8732 26.8005V27.7254H95.9483V26.8005H96.8732ZM96.8732 25.8756V26.8005H95.9483V25.8756H96.8732ZM96.8732 24.9507V25.8756H95.9483V24.9507H96.8732ZM96.8732 24.0259V24.9507H95.9483V24.0259H96.8732ZM98.7229 24.0259V24.9507H97.798V24.0259H98.7229ZM98.7229 24.9507V25.8756H97.798V24.9507H98.7229ZM98.7229 25.8756V26.8005H97.798V25.8756H98.7229ZM98.7229 26.8005V27.7254H97.798V26.8005H98.7229ZM98.7229 27.7254V28.6502H97.798V27.7254H98.7229ZM98.7229 28.6502V29.5751H97.798V28.6502H98.7229ZM100.573 25.8756V26.8005H99.6478V25.8756H100.573ZM100.573 24.9507V25.8756H99.6478V24.9507H100.573ZM100.573 24.0259V24.9507H99.6478V24.0259H100.573ZM99.6478 24.0259V24.9507H98.7229V24.0259H99.6478ZM99.6478 24.9507V25.8756H98.7229V24.9507H99.6478ZM99.6478 25.8756V26.8005H98.7229V25.8756H99.6478ZM99.6478 26.8005V27.7254H98.7229V26.8005H99.6478ZM99.6478 27.7254V28.6502H98.7229V27.7254H99.6478ZM97.798 28.6502V29.5751H96.8732V28.6502H97.798ZM97.798 27.7254V28.6502H96.8732V27.7254H97.798ZM97.798 26.8005V27.7254H96.8732V26.8005H97.798ZM97.798 25.8756V26.8005H96.8732V25.8756H97.798ZM97.798 24.9507V25.8756H96.8732V24.9507H97.798ZM97.798 24.0259V24.9507H96.8732V24.0259H97.798ZM90.399 29.5751V30.5H89.4741V29.5751H90.399ZM91.3239 29.5751V30.5H90.399V29.5751H91.3239ZM92.2488 29.5751V30.5H91.3239V29.5751H92.2488ZM93.1737 29.5751V30.5H92.2488V29.5751H93.1737ZM94.0985 29.5751V30.5H93.1737V29.5751H94.0985ZM95.9483 29.5751V30.5H95.0234V29.5751H95.9483ZM95.9483 28.6502V29.5751H95.0234V28.6502H95.9483ZM94.0985 28.6502V29.5751H93.1737V28.6502H94.0985ZM93.1737 28.6502V29.5751H92.2488V28.6502H93.1737ZM92.2488 28.6502V29.5751H91.3239V28.6502H92.2488ZM91.3239 28.6502V29.5751H90.399V28.6502H91.3239ZM90.399 28.6502V29.5751H89.4741V28.6502H90.399ZM90.399 27.7254V28.6502H89.4741V27.7254H90.399ZM91.3239 27.7254V28.6502H90.399V27.7254H91.3239ZM92.2488 27.7254V28.6502H91.3239V27.7254H92.2488ZM93.1737 27.7254V28.6502H92.2488V27.7254H93.1737ZM94.0985 27.7254V28.6502H93.1737V27.7254H94.0985ZM95.9483 27.7254V28.6502H95.0234V27.7254H95.9483ZM95.9483 26.8005V27.7254H95.0234V26.8005H95.9483ZM94.0985 26.8005V27.7254H93.1737V26.8005H94.0985ZM93.1737 26.8005V27.7254H92.2488V26.8005H93.1737ZM92.2488 26.8005V27.7254H91.3239V26.8005H92.2488ZM91.3239 26.8005V27.7254H90.399V26.8005H91.3239ZM90.399 26.8005V27.7254H89.4741V26.8005H90.399ZM90.399 25.8756V26.8005H89.4741V25.8756H90.399ZM95.9483 25.8756V26.8005H95.0234V25.8756H95.9483ZM99.6478 12.0024V11.0776H100.573V12.0024H99.6478ZM99.6478 12.9273V12.0024H100.573V12.9273H99.6478ZM99.6478 13.8522V12.9273H100.573V13.8522H99.6478ZM97.798 13.8522V12.9273H98.7229V13.8522H97.798ZM97.798 12.9273V12.0024H98.7229V12.9273H97.798ZM97.798 12.0024V11.0776H98.7229V12.0024H97.798ZM97.798 11.0776V10.1527H98.7229V11.0776H97.798ZM97.798 10.1527V9.2278H98.7229V10.1527H97.798ZM97.798 9.2278V8.30293H98.7229V9.2278H97.798ZM95.9483 8.30293V7.37805H96.8732V8.30293H95.9483ZM95.9483 9.2278V8.30293H96.8732V9.2278H95.9483ZM95.9483 10.1527V9.2278H96.8732V10.1527H95.9483ZM95.9483 11.0776V10.1527H96.8732V11.0776H95.9483ZM95.9483 12.0024V11.0776H96.8732V12.0024H95.9483ZM95.9483 12.9273V12.0024H96.8732V12.9273H95.9483ZM95.9483 13.8522V12.9273H96.8732V13.8522H95.9483ZM96.8732 13.8522V12.9273H97.798V13.8522H96.8732ZM96.8732 12.9273V12.0024H97.798V12.9273H96.8732ZM96.8732 12.0024V11.0776H97.798V12.0024H96.8732ZM96.8732 11.0776V10.1527H97.798V11.0776H96.8732ZM96.8732 10.1527V9.2278H97.798V10.1527H96.8732ZM96.8732 9.2278V8.30293H97.798V9.2278H96.8732ZM98.7229 10.1527V9.2278H99.6478V10.1527H98.7229ZM98.7229 11.0776V10.1527H99.6478V11.0776H98.7229ZM98.7229 12.0024V11.0776H99.6478V12.0024H98.7229ZM98.7229 12.9273V12.0024H99.6478V12.9273H98.7229ZM98.7229 13.8522V12.9273H99.6478V13.8522H98.7229ZM88.5493 8.30293V7.37805H89.4741V8.30293H88.5493ZM88.5493 9.2278V8.30293H89.4741V9.2278H88.5493ZM88.5493 10.1527V9.2278H89.4741V10.1527H88.5493ZM88.5493 11.0776V10.1527H89.4741V11.0776H88.5493ZM88.5493 12.0024V11.0776H89.4741V12.0024H88.5493ZM88.5493 12.9273V12.0024H89.4741V12.9273H88.5493ZM88.5493 13.8522V12.9273H89.4741V13.8522H88.5493ZM86.6995 13.8522V12.9273H87.6244V13.8522H86.6995ZM86.6995 12.9273V12.0024H87.6244V12.9273H86.6995ZM86.6995 12.0024V11.0776H87.6244V12.0024H86.6995ZM86.6995 11.0776V10.1527H87.6244V11.0776H86.6995ZM86.6995 10.1527V9.2278H87.6244V10.1527H86.6995ZM86.6995 9.2278V8.30293H87.6244V9.2278H86.6995ZM84.8498 12.0024V11.0776H85.7746V12.0024H84.8498ZM84.8498 12.9273V12.0024H85.7746V12.9273H84.8498ZM84.8498 13.8522V12.9273H85.7746V13.8522H84.8498ZM85.7746 13.8522V12.9273H86.6995V13.8522H85.7746ZM85.7746 12.9273V12.0024H86.6995V12.9273H85.7746ZM85.7746 12.0024V11.0776H86.6995V12.0024H85.7746ZM85.7746 11.0776V10.1527H86.6995V11.0776H85.7746ZM85.7746 10.1527V9.2278H86.6995V10.1527H85.7746ZM87.6244 9.2278V8.30293H88.5493V9.2278H87.6244ZM87.6244 10.1527V9.2278H88.5493V10.1527H87.6244ZM87.6244 11.0776V10.1527H88.5493V11.0776H87.6244ZM87.6244 12.0024V11.0776H88.5493V12.0024H87.6244ZM87.6244 12.9273V12.0024H88.5493V12.9273H87.6244ZM87.6244 13.8522V12.9273H88.5493V13.8522H87.6244ZM95.0234 8.30293V7.37805H95.9483V8.30293H95.0234ZM93.1737 8.30293V7.37805H94.0985V8.30293H93.1737ZM92.2488 8.30293V7.37805H93.1737V8.30293H92.2488ZM91.3239 8.30293V7.37805H92.2488V8.30293H91.3239ZM90.399 8.30293V7.37805H91.3239V8.30293H90.399ZM89.4741 8.30293V7.37805H90.399V8.30293H89.4741ZM89.4741 9.2278V8.30293H90.399V9.2278H89.4741ZM90.399 9.2278V8.30293H91.3239V9.2278H90.399ZM91.3239 9.2278V8.30293H92.2488V9.2278H91.3239ZM92.2488 9.2278V8.30293H93.1737V9.2278H92.2488ZM93.1737 9.2278V8.30293H94.0985V9.2278H93.1737ZM95.0234 9.2278V8.30293H95.9483V9.2278H95.0234ZM95.0234 10.1527V9.2278H95.9483V10.1527H95.0234ZM93.1737 10.1527V9.2278H94.0985V10.1527H93.1737ZM92.2488 10.1527V9.2278H93.1737V10.1527H92.2488ZM91.3239 10.1527V9.2278H92.2488V10.1527H91.3239ZM90.399 10.1527V9.2278H91.3239V10.1527H90.399ZM89.4741 10.1527V9.2278H90.399V10.1527H89.4741ZM89.4741 11.0776V10.1527H90.399V11.0776H89.4741ZM90.399 11.0776V10.1527H91.3239V11.0776H90.399ZM91.3239 11.0776V10.1527H92.2488V11.0776H91.3239ZM92.2488 11.0776V10.1527H93.1737V11.0776H92.2488ZM93.1737 11.0776V10.1527H94.0985V11.0776H93.1737ZM95.0234 11.0776V10.1527H95.9483V11.0776H95.0234ZM95.0234 12.0024V11.0776H95.9483V12.0024H95.0234ZM89.4741 12.0024V11.0776H90.399V12.0024H89.4741ZM85.7746 14.7771V15.702H84.8498V14.7771H85.7746ZM86.6995 14.7771V15.702H85.7746V14.7771H86.6995ZM85.7746 13.8522V14.7771H84.8498V13.8522H85.7746ZM88.5493 13.8522V14.7771H87.6244V13.8522H88.5493ZM88.5493 14.7771V15.702H87.6244V14.7771H88.5493ZM89.4741 14.7771V15.702H88.5493V14.7771H89.4741ZM89.4741 13.8522V14.7771H88.5493V13.8522H89.4741ZM86.6995 13.8522V14.7771H85.7746V13.8522H86.6995ZM87.6244 13.8522V14.7771H86.6995V13.8522H87.6244ZM87.6244 14.7771V15.702H86.6995V14.7771H87.6244ZM91.3239 25.8756V26.8005H90.399V25.8756H91.3239ZM92.2488 25.8756V26.8005H91.3239V25.8756H92.2488ZM93.1737 25.8756V26.8005H92.2488V25.8756H93.1737ZM94.0985 25.8756V26.8005H93.1737V25.8756H94.0985ZM95.9483 24.9507V25.8756H95.0234V24.9507H95.9483ZM90.399 24.9507V25.8756H89.4741V24.9507H90.399ZM96.8732 23.101V24.0259H95.9483V23.101H96.8732ZM97.798 23.101V24.0259H96.8732V23.101H97.798ZM98.7229 23.101V24.0259H97.798V23.101H98.7229ZM99.6478 23.101V24.0259H98.7229V23.101H99.6478ZM100.573 23.101V24.0259H99.6478V23.101H100.573ZM90.399 12.0024V12.9273H89.4741V12.0024H90.399ZM91.3239 11.0776V12.0024H90.399V11.0776H91.3239ZM92.2488 11.0776V12.0024H91.3239V11.0776H92.2488ZM93.1737 11.0776V12.0024H92.2488V11.0776H93.1737ZM94.0985 11.0776V12.0024H93.1737V11.0776H94.0985ZM95.9483 12.0024V12.9273H95.0234V12.0024H95.9483ZM96.8732 13.8522V14.7771H95.9483V13.8522H96.8732ZM97.798 13.8522V14.7771H96.8732V13.8522H97.798ZM98.7229 13.8522V14.7771H97.798V13.8522H98.7229ZM99.6478 13.8522V14.7771H98.7229V13.8522H99.6478ZM100.573 13.8522V14.7771H99.6478V13.8522H100.573ZM95.0234 7.37805V8.30293H94.0985V7.37805H95.0234ZM95.0234 8.30293V9.2278H94.0985V8.30293H95.0234ZM95.0234 9.2278V10.1527H94.0985V9.2278H95.0234ZM95.0234 10.1527V11.0776H94.0985V10.1527H95.0234ZM95.0234 11.0776V12.0024H94.0985V11.0776H95.0234ZM95.0234 25.8756V26.8005H94.0985V25.8756H95.0234ZM95.0234 26.8005V27.7254H94.0985V26.8005H95.0234ZM95.0234 27.7254V28.6502H94.0985V27.7254H95.0234ZM95.0234 28.6502V29.5751H94.0985V28.6502H95.0234ZM95.0234 29.5751V30.5H94.0985V29.5751H95.0234ZM114.428 18.4766V19.4015H113.503V18.4766H114.428ZM115.353 18.4766V19.4015H114.428V18.4766H115.353ZM116.278 18.4766V19.4015H115.353V18.4766H116.278ZM117.202 18.4766V19.4015H116.278V18.4766H117.202ZM118.127 18.4766V19.4015H117.202V18.4766H118.127ZM118.127 17.5517V18.4766H117.202V17.5517H118.127ZM118.127 16.6268V17.5517H117.202V16.6268H118.127ZM117.202 16.6268V17.5517H116.278V16.6268H117.202ZM116.278 16.6268V17.5517H115.353V16.6268H116.278ZM115.353 16.6268V17.5517H114.428V16.6268H115.353ZM115.353 17.5517V18.4766H114.428V17.5517H115.353ZM114.428 17.5517V18.4766H113.503V17.5517H114.428ZM116.278 17.5517V18.4766H115.353V17.5517H116.278ZM117.202 17.5517V18.4766H116.278V17.5517H117.202ZM114.428 16.6268V17.5517H113.503V16.6268H114.428ZM113.503 16.6268V17.5517H112.578V16.6268H113.503ZM113.503 15.702V16.6268H112.578V15.702H113.503ZM114.428 15.702V16.6268H113.503V15.702H114.428ZM115.353 15.702V16.6268H114.428V15.702H115.353ZM116.278 15.702V16.6268H115.353V15.702H116.278ZM117.202 15.702V16.6268H116.278V15.702H117.202ZM117.202 14.7771V15.702H116.278V14.7771H117.202ZM116.278 14.7771V15.702H115.353V14.7771H116.278ZM115.353 14.7771V15.702H114.428V14.7771H115.353ZM114.428 14.7771V15.702H113.503V14.7771H114.428ZM113.503 14.7771V15.702H112.578V14.7771H113.503ZM115.353 13.8522V14.7771H114.428V13.8522H115.353ZM116.278 13.8522V14.7771H115.353V13.8522H116.278ZM114.428 13.8522V14.7771H113.503V13.8522H114.428ZM114.428 12.9273V13.8522H113.503V12.9273H114.428ZM113.503 12.9273V13.8522H112.578V12.9273H113.503ZM113.503 13.8522V14.7771H112.578V13.8522H113.503ZM112.578 13.8522V14.7771H111.653V13.8522H112.578ZM112.578 12.9273V13.8522H111.653V12.9273H112.578ZM112.578 14.7771V15.702H111.653V14.7771H112.578ZM111.653 14.7771V15.702H110.728V14.7771H111.653ZM111.653 15.702V16.6268H110.728V15.702H111.653ZM112.578 15.702V16.6268H111.653V15.702H112.578ZM110.728 15.702V16.6268H109.803V15.702H110.728ZM110.728 14.7771V15.702H109.803V14.7771H110.728ZM110.728 13.8522V14.7771H109.803V13.8522H110.728ZM110.728 12.9273V13.8522H109.803V12.9273H110.728ZM111.653 12.9273V13.8522H110.728V12.9273H111.653ZM111.653 13.8522V14.7771H110.728V13.8522H111.653ZM109.803 12.9273V13.8522H108.879V12.9273H109.803ZM108.879 12.9273V13.8522H107.954V12.9273H108.879ZM107.954 12.9273V13.8522H107.029V12.9273H107.954ZM107.954 13.8522V14.7771H107.029V13.8522H107.954ZM107.954 14.7771V15.702H107.029V14.7771H107.954ZM107.954 15.702V16.6268H107.029V15.702H107.954ZM108.879 15.702V16.6268H107.954V15.702H108.879ZM109.803 15.702V16.6268H108.879V15.702H109.803ZM109.803 14.7771V15.702H108.879V14.7771H109.803ZM109.803 13.8522V14.7771H108.879V13.8522H109.803ZM108.879 13.8522V14.7771H107.954V13.8522H108.879ZM108.879 14.7771V15.702H107.954V14.7771H108.879ZM107.029 14.7771V15.702H106.104V14.7771H107.029ZM107.029 13.8522V14.7771H106.104V13.8522H107.029ZM106.104 13.8522V14.7771H105.179V13.8522H106.104ZM106.104 14.7771V15.702H105.179V14.7771H106.104ZM105.179 14.7771V15.702H104.254V14.7771H105.179ZM105.179 15.702V16.6268H104.254V15.702H105.179ZM105.179 16.6268V17.5517H104.254V16.6268H105.179ZM106.104 16.6268V17.5517H105.179V16.6268H106.104ZM106.104 15.702V16.6268H105.179V15.702H106.104ZM107.029 15.702V16.6268H106.104V15.702H107.029ZM107.029 16.6268V17.5517H106.104V16.6268H107.029ZM107.954 16.6268V17.5517H107.029V16.6268H107.954ZM108.879 16.6268V17.5517H107.954V16.6268H108.879ZM104.254 16.6268V17.5517H103.329V16.6268H104.254ZM104.254 17.5517V18.4766H103.329V17.5517H104.254ZM104.254 18.4766V19.4015H103.329V18.4766H104.254ZM104.254 19.4015V20.3263H103.329V19.4015H104.254ZM104.254 20.3263V21.2512H103.329V20.3263H104.254ZM104.254 21.2512V22.1761H103.329V21.2512H104.254ZM104.254 22.1761V23.101H103.329V22.1761H104.254ZM104.254 23.101V24.0259H103.329V23.101H104.254ZM104.254 24.0259V24.9507H103.329V24.0259H104.254ZM104.254 24.9507V25.8756H103.329V24.9507H104.254ZM105.179 24.9507V25.8756H104.254V24.9507H105.179ZM105.179 25.8756V26.8005H104.254V25.8756H105.179ZM104.254 25.8756V26.8005H103.329V25.8756H104.254ZM106.104 25.8756V26.8005H105.179V25.8756H106.104ZM107.029 25.8756V26.8005H106.104V25.8756H107.029ZM107.954 25.8756V26.8005H107.029V25.8756H107.954ZM108.879 25.8756V26.8005H107.954V25.8756H108.879ZM107.954 24.9507V25.8756H107.029V24.9507H107.954ZM107.954 24.0259V24.9507H107.029V24.0259H107.954ZM107.954 23.101V24.0259H107.029V23.101H107.954ZM107.954 22.1761V23.101H107.029V22.1761H107.954ZM107.954 21.2512V22.1761H107.029V21.2512H107.954ZM107.954 20.3263V21.2512H107.029V20.3263H107.954ZM107.954 19.4015V20.3263H107.029V19.4015H107.954ZM107.954 18.4766V19.4015H107.029V18.4766H107.954ZM107.954 17.5517V18.4766H107.029V17.5517H107.954ZM107.029 17.5517V18.4766H106.104V17.5517H107.029ZM106.104 17.5517V18.4766H105.179V17.5517H106.104ZM105.179 17.5517V18.4766H104.254V17.5517H105.179ZM105.179 18.4766V19.4015H104.254V18.4766H105.179ZM105.179 19.4015V20.3263H104.254V19.4015H105.179ZM105.179 20.3263V21.2512H104.254V20.3263H105.179ZM105.179 21.2512V22.1761H104.254V21.2512H105.179ZM105.179 22.1761V23.101H104.254V22.1761H105.179ZM105.179 23.101V24.0259H104.254V23.101H105.179ZM105.179 24.0259V24.9507H104.254V24.0259H105.179ZM106.104 24.9507V25.8756H105.179V24.9507H106.104ZM107.029 24.9507V25.8756H106.104V24.9507H107.029ZM107.029 24.0259V24.9507H106.104V24.0259H107.029ZM107.029 23.101V24.0259H106.104V23.101H107.029ZM107.029 22.1761V23.101H106.104V22.1761H107.029ZM107.029 21.2512V22.1761H106.104V21.2512H107.029ZM106.104 21.2512V22.1761H105.179V21.2512H106.104ZM106.104 20.3263V21.2512H105.179V20.3263H106.104ZM106.104 19.4015V20.3263H105.179V19.4015H106.104ZM106.104 18.4766V19.4015H105.179V18.4766H106.104ZM107.029 18.4766V19.4015H106.104V18.4766H107.029ZM107.029 19.4015V20.3263H106.104V19.4015H107.029ZM107.029 20.3263V21.2512H106.104V20.3263H107.029ZM106.104 23.101V24.0259H105.179V23.101H106.104ZM106.104 24.0259V24.9507H105.179V24.0259H106.104ZM106.104 22.1761V23.101H105.179V22.1761H106.104ZM114.428 24.0259V24.9507H113.503V24.0259H114.428ZM114.428 24.9507V25.8756H113.503V24.9507H114.428ZM115.353 24.9507V25.8756H114.428V24.9507H115.353ZM116.278 24.9507V25.8756H115.353V24.9507H116.278ZM117.202 24.9507V25.8756H116.278V24.9507H117.202ZM118.127 24.9507V25.8756H117.202V24.9507H118.127ZM118.127 24.0259V24.9507H117.202V24.0259H118.127ZM117.202 24.0259V24.9507H116.278V24.0259H117.202ZM116.278 24.0259V24.9507H115.353V24.0259H116.278ZM115.353 24.0259V24.9507H114.428V24.0259H115.353ZM118.127 25.8756V26.8005H117.202V25.8756H118.127ZM117.202 25.8756V26.8005H116.278V25.8756H117.202ZM116.278 25.8756V26.8005H115.353V25.8756H116.278ZM115.353 25.8756V26.8005H114.428V25.8756H115.353ZM114.428 25.8756V26.8005H113.503V25.8756H114.428ZM113.503 25.8756V26.8005H112.578V25.8756H113.503ZM113.503 26.8005V27.7254H112.578V26.8005H113.503ZM114.428 26.8005V27.7254H113.503V26.8005H114.428ZM115.353 26.8005V27.7254H114.428V26.8005H115.353ZM116.278 26.8005V27.7254H115.353V26.8005H116.278ZM116.278 27.7254V28.6502H115.353V27.7254H116.278ZM117.202 27.7254V28.6502H116.278V27.7254H117.202ZM117.202 26.8005V27.7254H116.278V26.8005H117.202ZM116.278 28.6502V29.5751H115.353V28.6502H116.278ZM115.353 28.6502V29.5751H114.428V28.6502H115.353ZM115.353 27.7254V28.6502H114.428V27.7254H115.353ZM114.428 27.7254V28.6502H113.503V27.7254H114.428ZM114.428 28.6502V29.5751H113.503V28.6502H114.428ZM114.428 29.5751V30.5H113.503V29.5751H114.428ZM113.503 29.5751V30.5H112.578V29.5751H113.503ZM112.578 29.5751V30.5H111.653V29.5751H112.578ZM111.653 29.5751V30.5H110.728V29.5751H111.653ZM110.728 29.5751V30.5H109.803V29.5751H110.728ZM109.803 29.5751V30.5H108.879V29.5751H109.803ZM108.879 29.5751V30.5H107.954V29.5751H108.879ZM107.954 29.5751V30.5H107.029V29.5751H107.954ZM108.879 28.6502V29.5751H107.954V28.6502H108.879ZM109.803 28.6502V29.5751H108.879V28.6502H109.803ZM110.728 28.6502V29.5751H109.803V28.6502H110.728ZM111.653 28.6502V29.5751H110.728V28.6502H111.653ZM112.578 28.6502V29.5751H111.653V28.6502H112.578ZM113.503 28.6502V29.5751H112.578V28.6502H113.503ZM113.503 27.7254V28.6502H112.578V27.7254H113.503ZM112.578 27.7254V28.6502H111.653V27.7254H112.578ZM111.653 27.7254V28.6502H110.728V27.7254H111.653ZM110.728 27.7254V28.6502H109.803V27.7254H110.728ZM109.803 27.7254V28.6502H108.879V27.7254H109.803ZM108.879 27.7254V28.6502H107.954V27.7254H108.879ZM107.954 28.6502V29.5751H107.029V28.6502H107.954ZM107.029 28.6502V29.5751H106.104V28.6502H107.029ZM106.104 28.6502V29.5751H105.179V28.6502H106.104ZM106.104 27.7254V28.6502H105.179V27.7254H106.104ZM105.179 27.7254V28.6502H104.254V27.7254H105.179ZM105.179 26.8005V27.7254H104.254V26.8005H105.179ZM106.104 26.8005V27.7254H105.179V26.8005H106.104ZM107.029 26.8005V27.7254H106.104V26.8005H107.029ZM107.954 26.8005V27.7254H107.029V26.8005H107.954ZM108.879 26.8005V27.7254H107.954V26.8005H108.879ZM109.803 26.8005V27.7254H108.879V26.8005H109.803ZM110.728 26.8005V27.7254H109.803V26.8005H110.728ZM111.653 26.8005V27.7254H110.728V26.8005H111.653ZM112.578 26.8005V27.7254H111.653V26.8005H112.578ZM107.954 27.7254V28.6502H107.029V27.7254H107.954ZM107.029 27.7254V28.6502H106.104V27.7254H107.029ZM114.428 19.4015V20.3263H113.503V19.4015H114.428ZM114.428 20.3263V21.2512H113.503V20.3263H114.428ZM115.353 20.3263V21.2512H114.428V20.3263H115.353ZM116.278 20.3263V21.2512H115.353V20.3263H116.278ZM117.202 20.3263V21.2512H116.278V20.3263H117.202ZM118.127 20.3263V21.2512H117.202V20.3263H118.127ZM118.127 19.4015V20.3263H117.202V19.4015H118.127ZM117.202 19.4015V20.3263H116.278V19.4015H117.202ZM116.278 19.4015V20.3263H115.353V19.4015H116.278ZM115.353 19.4015V20.3263H114.428V19.4015H115.353ZM115.353 21.2512V22.1761H114.428V21.2512H115.353ZM116.278 21.2512V22.1761H115.353V21.2512H116.278ZM116.278 22.1761V23.101H115.353V22.1761H116.278ZM117.202 22.1761V23.101H116.278V22.1761H117.202ZM117.202 21.2512V22.1761H116.278V21.2512H117.202ZM118.127 21.2512V22.1761H117.202V21.2512H118.127ZM118.127 22.1761V23.101H117.202V22.1761H118.127ZM118.127 23.101V24.0259H117.202V23.101H118.127ZM117.202 23.101V24.0259H116.278V23.101H117.202ZM116.278 23.101V24.0259H115.353V23.101H116.278ZM115.353 23.101V24.0259H114.428V23.101H115.353ZM115.353 22.1761V23.101H114.428V22.1761H115.353ZM114.428 22.1761V23.101H113.503V22.1761H114.428ZM114.428 21.2512V22.1761H113.503V21.2512H114.428ZM114.428 23.101V24.0259H113.503V23.101H114.428ZM121.843 12.9273V13.8522H120.918V12.9273H121.843ZM122.768 12.9273V13.8522H121.843V12.9273H122.768ZM123.693 12.9273V13.8522H122.768V12.9273H123.693ZM124.618 12.9273V13.8522H123.693V12.9273H124.618ZM124.618 13.8522V14.7771H123.693V13.8522H124.618ZM125.543 13.8522V14.7771H124.618V13.8522H125.543ZM125.543 14.7771V15.702H124.618V14.7771H125.543ZM125.543 12.9273V13.8522H124.618V12.9273H125.543ZM125.543 15.702V16.6268H124.618V15.702H125.543ZM125.543 16.6268V17.5517H124.618V16.6268H125.543ZM125.543 17.5517V18.4766H124.618V17.5517H125.543ZM125.543 18.4766V19.4015H124.618V18.4766H125.543ZM125.543 19.4015V20.3263H124.618V19.4015H125.543ZM125.543 20.3263V21.2512H124.618V20.3263H125.543ZM125.543 21.2512V22.1761H124.618V21.2512H125.543ZM125.543 22.1761V23.101H124.618V22.1761H125.543ZM125.543 23.101V24.0259H124.618V23.101H125.543ZM124.618 23.101V24.0259H123.693V23.101H124.618ZM123.693 24.0259V24.9507H122.768V24.0259H123.693ZM122.768 24.0259V24.9507H121.843V24.0259H122.768ZM121.843 24.0259V24.9507H120.918V24.0259H121.843ZM121.843 23.101V24.0259H120.918V23.101H121.843ZM121.843 22.1761V23.101H120.918V22.1761H121.843ZM121.843 21.2512V22.1761H120.918V21.2512H121.843ZM121.843 20.3263V21.2512H120.918V20.3263H121.843ZM122.768 20.3263V21.2512H121.843V20.3263H122.768ZM122.768 19.4015V20.3263H121.843V19.4015H122.768ZM122.768 18.4766V19.4015H121.843V18.4766H122.768ZM122.768 17.5517V18.4766H121.843V17.5517H122.768ZM122.768 16.6268V17.5517H121.843V16.6268H122.768ZM122.768 15.702V16.6268H121.843V15.702H122.768ZM122.768 14.7771V15.702H121.843V14.7771H122.768ZM122.768 13.8522V14.7771H121.843V13.8522H122.768ZM121.843 13.8522V14.7771H120.918V13.8522H121.843ZM121.843 14.7771V15.702H120.918V14.7771H121.843ZM121.843 15.702V16.6268H120.918V15.702H121.843ZM121.843 16.6268V17.5517H120.918V16.6268H121.843ZM121.843 17.5517V18.4766H120.918V17.5517H121.843ZM121.843 18.4766V19.4015H120.918V18.4766H121.843ZM121.843 19.4015V20.3263H120.918V19.4015H121.843ZM123.693 17.5517V18.4766H122.768V17.5517H123.693ZM123.693 16.6268V17.5517H122.768V16.6268H123.693ZM123.693 15.702V16.6268H122.768V15.702H123.693ZM123.693 14.7771V15.702H122.768V14.7771H123.693ZM123.693 13.8522V14.7771H122.768V13.8522H123.693ZM124.618 17.5517V18.4766H123.693V17.5517H124.618ZM124.618 18.4766V19.4015H123.693V18.4766H124.618ZM124.618 16.6268V17.5517H123.693V16.6268H124.618ZM124.618 15.702V16.6268H123.693V15.702H124.618ZM124.618 14.7771V15.702H123.693V14.7771H124.618ZM123.693 20.3263V21.2512H122.768V20.3263H123.693ZM123.693 19.4015V20.3263H122.768V19.4015H123.693ZM123.693 18.4766V19.4015H122.768V18.4766H123.693ZM124.618 19.4015V20.3263H123.693V19.4015H124.618ZM124.618 20.3263V21.2512H123.693V20.3263H124.618ZM124.618 21.2512V22.1761H123.693V21.2512H124.618ZM123.693 22.1761V23.101H122.768V22.1761H123.693ZM123.693 23.101V24.0259H122.768V23.101H123.693ZM123.693 21.2512V22.1761H122.768V21.2512H123.693ZM122.768 21.2512V22.1761H121.843V21.2512H122.768ZM122.768 22.1761V23.101H121.843V22.1761H122.768ZM122.768 23.101V24.0259H121.843V23.101H122.768ZM124.618 22.1761V23.101H123.693V22.1761H124.618ZM123.693 24.9507V25.8756H122.768V24.9507H123.693ZM122.768 24.9507V25.8756H121.843V24.9507H122.768ZM124.618 24.9507V25.8756H123.693V24.9507H124.618ZM124.618 24.0259V24.9507H123.693V24.0259H124.618ZM125.543 24.0259V24.9507H124.618V24.0259H125.543ZM126.467 24.0259V24.9507H125.543V24.0259H126.467ZM126.467 24.9507V25.8756H125.543V24.9507H126.467ZM125.543 24.9507V25.8756H124.618V24.9507H125.543ZM127.392 24.9507V25.8756H126.467V24.9507H127.392ZM123.693 25.8756V26.8005H122.768V25.8756H123.693ZM124.618 25.8756V26.8005H123.693V25.8756H124.618ZM125.543 25.8756V26.8005H124.618V25.8756H125.543ZM126.467 25.8756V26.8005H125.543V25.8756H126.467ZM127.392 25.8756V26.8005H126.467V25.8756H127.392ZM128.317 25.8756V26.8005H127.392V25.8756H128.317ZM129.242 25.8756V26.8005H128.317V25.8756H129.242ZM130.167 25.8756V26.8005H129.242V25.8756H130.167ZM131.092 25.8756V26.8005H130.167V25.8756H131.092ZM132.017 25.8756V26.8005H131.092V25.8756H132.017ZM132.942 25.8756V26.8005H132.017V25.8756H132.942ZM133.866 25.8756V26.8005H132.942V25.8756H133.866ZM132.942 24.9507V25.8756H132.017V24.9507H132.942ZM132.017 24.9507V25.8756H131.092V24.9507H132.017ZM131.092 24.9507V25.8756H130.167V24.9507H131.092ZM130.167 24.9507V25.8756H129.242V24.9507H130.167ZM131.092 24.0259V24.9507H130.167V24.0259H131.092ZM132.017 24.0259V24.9507H131.092V24.0259H132.017ZM132.942 24.0259V24.9507H132.017V24.0259H132.942ZM133.866 24.0259V24.9507H132.942V24.0259H133.866ZM134.791 24.0259V24.9507H133.866V24.0259H134.791ZM134.791 24.9507V25.8756H133.866V24.9507H134.791ZM133.866 24.9507V25.8756H132.942V24.9507H133.866ZM135.716 24.0259V24.9507H134.791V24.0259H135.716ZM127.392 29.5751V30.5H126.467V29.5751H127.392ZM127.392 28.6502V29.5751H126.467V28.6502H127.392ZM127.392 27.7254V28.6502H126.467V27.7254H127.392ZM128.317 27.7254V28.6502H127.392V27.7254H128.317ZM128.317 26.8005V27.7254H127.392V26.8005H128.317ZM129.242 26.8005V27.7254H128.317V26.8005H129.242ZM130.167 26.8005V27.7254H129.242V26.8005H130.167ZM130.167 27.7254V28.6502H129.242V27.7254H130.167ZM130.167 28.6502V29.5751H129.242V28.6502H130.167ZM130.167 29.5751V30.5H129.242V29.5751H130.167ZM129.242 29.5751V30.5H128.317V29.5751H129.242ZM128.317 29.5751V30.5H127.392V29.5751H128.317ZM128.317 28.6502V29.5751H127.392V28.6502H128.317ZM129.242 27.7254V28.6502H128.317V27.7254H129.242ZM129.242 28.6502V29.5751H128.317V28.6502H129.242ZM131.092 27.7254V28.6502H130.167V27.7254H131.092ZM131.092 26.8005V27.7254H130.167V26.8005H131.092ZM132.017 26.8005V27.7254H131.092V26.8005H132.017ZM132.942 26.8005V27.7254H132.017V26.8005H132.942ZM132.017 27.7254V28.6502H131.092V27.7254H132.017ZM131.092 28.6502V29.5751H130.167V28.6502H131.092ZM124.618 26.8005V27.7254H123.693V26.8005H124.618ZM125.543 26.8005V27.7254H124.618V26.8005H125.543ZM125.543 27.7254V28.6502H124.618V27.7254H125.543ZM126.467 27.7254V28.6502H125.543V27.7254H126.467ZM126.467 28.6502V29.5751H125.543V28.6502H126.467ZM127.392 26.8005V27.7254H126.467V26.8005H127.392ZM126.467 26.8005V27.7254H125.543V26.8005H126.467ZM132.017 23.101V24.0259H131.092V23.101H132.017ZM132.017 22.1761V23.101H131.092V22.1761H132.017ZM132.017 21.2512V22.1761H131.092V21.2512H132.017ZM132.017 20.3263V21.2512H131.092V20.3263H132.017ZM132.942 20.3263V21.2512H132.017V20.3263H132.942ZM133.866 20.3263V21.2512H132.942V20.3263H133.866ZM134.791 20.3263V21.2512H133.866V20.3263H134.791ZM135.716 20.3263V21.2512H134.791V20.3263H135.716ZM135.716 21.2512V22.1761H134.791V21.2512H135.716ZM135.716 22.1761V23.101H134.791V22.1761H135.716ZM135.716 23.101V24.0259H134.791V23.101H135.716ZM134.791 23.101V24.0259H133.866V23.101H134.791ZM133.866 23.101V24.0259H132.942V23.101H133.866ZM132.942 23.101V24.0259H132.017V23.101H132.942ZM133.866 22.1761V23.101H132.942V22.1761H133.866ZM134.791 22.1761V23.101H133.866V22.1761H134.791ZM134.791 21.2512V22.1761H133.866V21.2512H134.791ZM133.866 21.2512V22.1761H132.942V21.2512H133.866ZM132.942 21.2512V22.1761H132.017V21.2512H132.942ZM132.942 22.1761V23.101H132.017V22.1761H132.942ZM132.017 19.4015V20.3263H131.092V19.4015H132.017ZM132.017 18.4766V19.4015H131.092V18.4766H132.017ZM132.017 17.5517V18.4766H131.092V17.5517H132.017ZM132.017 16.6268V17.5517H131.092V16.6268H132.017ZM132.017 15.702V16.6268H131.092V15.702H132.017ZM132.017 14.7771V15.702H131.092V14.7771H132.017ZM132.017 13.8522V14.7771H131.092V13.8522H132.017ZM132.017 12.9273V13.8522H131.092V12.9273H132.017ZM132.942 13.8522V14.7771H132.017V13.8522H132.942ZM132.942 12.9273V13.8522H132.017V12.9273H132.942ZM133.866 12.9273V13.8522H132.942V12.9273H133.866ZM134.791 12.9273V13.8522H133.866V12.9273H134.791ZM134.791 13.8522V14.7771H133.866V13.8522H134.791ZM134.791 14.7771V15.702H133.866V14.7771H134.791ZM135.716 14.7771V15.702H134.791V14.7771H135.716ZM135.716 15.702V16.6268H134.791V15.702H135.716ZM135.716 16.6268V17.5517H134.791V16.6268H135.716ZM135.716 17.5517V18.4766H134.791V17.5517H135.716ZM135.716 18.4766V19.4015H134.791V18.4766H135.716ZM135.716 19.4015V20.3263H134.791V19.4015H135.716ZM135.716 13.8522V14.7771H134.791V13.8522H135.716ZM135.716 12.9273V13.8522H134.791V12.9273H135.716ZM133.866 13.8522V14.7771H132.942V13.8522H133.866ZM133.866 14.7771V15.702H132.942V14.7771H133.866ZM133.866 15.702V16.6268H132.942V15.702H133.866ZM133.866 16.6268V17.5517H132.942V16.6268H133.866ZM133.866 17.5517V18.4766H132.942V17.5517H133.866ZM133.866 18.4766V19.4015H132.942V18.4766H133.866ZM132.942 18.4766V19.4015H132.017V18.4766H132.942ZM132.942 19.4015V20.3263H132.017V19.4015H132.942ZM132.942 17.5517V18.4766H132.017V17.5517H132.942ZM132.942 16.6268V17.5517H132.017V16.6268H132.942ZM132.942 15.702V16.6268H132.017V15.702H132.942ZM132.942 14.7771V15.702H132.017V14.7771H132.942ZM134.791 15.702V16.6268H133.866V15.702H134.791ZM134.791 16.6268V17.5517H133.866V16.6268H134.791ZM134.791 17.5517V18.4766H133.866V17.5517H134.791ZM134.791 18.4766V19.4015H133.866V18.4766H134.791ZM134.791 19.4015V20.3263H133.866V19.4015H134.791ZM133.866 19.4015V20.3263H132.942V19.4015H133.866ZM149.607 18.4766V19.4015H148.683V18.4766H149.607ZM150.532 18.4766V19.4015H149.607V18.4766H150.532ZM151.457 18.4766V19.4015H150.532V18.4766H151.457ZM152.382 18.4766V19.4015H151.457V18.4766H152.382ZM153.307 18.4766V19.4015H152.382V18.4766H153.307ZM153.307 17.5517V18.4766H152.382V17.5517H153.307ZM153.307 16.6268V17.5517H152.382V16.6268H153.307ZM152.382 16.6268V17.5517H151.457V16.6268H152.382ZM151.457 16.6268V17.5517H150.532V16.6268H151.457ZM150.532 16.6268V17.5517H149.607V16.6268H150.532ZM150.532 17.5517V18.4766H149.607V17.5517H150.532ZM149.607 17.5517V18.4766H148.683V17.5517H149.607ZM151.457 17.5517V18.4766H150.532V17.5517H151.457ZM152.382 17.5517V18.4766H151.457V17.5517H152.382ZM149.607 16.6268V17.5517H148.683V16.6268H149.607ZM148.683 16.6268V17.5517H147.758V16.6268H148.683ZM148.683 15.702V16.6268H147.758V15.702H148.683ZM149.607 15.702V16.6268H148.683V15.702H149.607ZM150.532 15.702V16.6268H149.607V15.702H150.532ZM151.457 15.702V16.6268H150.532V15.702H151.457ZM152.382 15.702V16.6268H151.457V15.702H152.382ZM152.382 14.7771V15.702H151.457V14.7771H152.382ZM151.457 14.7771V15.702H150.532V14.7771H151.457ZM150.532 14.7771V15.702H149.607V14.7771H150.532ZM149.607 14.7771V15.702H148.683V14.7771H149.607ZM148.683 14.7771V15.702H147.758V14.7771H148.683ZM150.532 13.8522V14.7771H149.607V13.8522H150.532ZM151.457 13.8522V14.7771H150.532V13.8522H151.457ZM149.607 13.8522V14.7771H148.683V13.8522H149.607ZM149.607 12.9273V13.8522H148.683V12.9273H149.607ZM148.683 12.9273V13.8522H147.758V12.9273H148.683ZM148.683 13.8522V14.7771H147.758V13.8522H148.683ZM147.758 13.8522V14.7771H146.833V13.8522H147.758ZM147.758 12.9273V13.8522H146.833V12.9273H147.758ZM147.758 14.7771V15.702H146.833V14.7771H147.758ZM146.833 14.7771V15.702H145.908V14.7771H146.833ZM146.833 15.702V16.6268H145.908V15.702H146.833ZM147.758 15.702V16.6268H146.833V15.702H147.758ZM145.908 15.702V16.6268H144.983V15.702H145.908ZM145.908 14.7771V15.702H144.983V14.7771H145.908ZM145.908 13.8522V14.7771H144.983V13.8522H145.908ZM145.908 12.9273V13.8522H144.983V12.9273H145.908ZM146.833 12.9273V13.8522H145.908V12.9273H146.833ZM146.833 13.8522V14.7771H145.908V13.8522H146.833ZM144.983 12.9273V13.8522H144.058V12.9273H144.983ZM144.058 12.9273V13.8522H143.133V12.9273H144.058ZM143.133 12.9273V13.8522H142.208V12.9273H143.133ZM143.133 13.8522V14.7771H142.208V13.8522H143.133ZM143.133 14.7771V15.702H142.208V14.7771H143.133ZM143.133 15.702V16.6268H142.208V15.702H143.133ZM144.058 15.702V16.6268H143.133V15.702H144.058ZM144.983 15.702V16.6268H144.058V15.702H144.983ZM144.983 14.7771V15.702H144.058V14.7771H144.983ZM144.983 13.8522V14.7771H144.058V13.8522H144.983ZM144.058 13.8522V14.7771H143.133V13.8522H144.058ZM144.058 14.7771V15.702H143.133V14.7771H144.058ZM142.208 14.7771V15.702H141.284V14.7771H142.208ZM142.208 13.8522V14.7771H141.284V13.8522H142.208ZM141.284 13.8522V14.7771H140.359V13.8522H141.284ZM141.284 14.7771V15.702H140.359V14.7771H141.284ZM140.359 14.7771V15.702H139.434V14.7771H140.359ZM140.359 15.702V16.6268H139.434V15.702H140.359ZM140.359 16.6268V17.5517H139.434V16.6268H140.359ZM141.284 16.6268V17.5517H140.359V16.6268H141.284ZM141.284 15.702V16.6268H140.359V15.702H141.284ZM142.208 15.702V16.6268H141.284V15.702H142.208ZM142.208 16.6268V17.5517H141.284V16.6268H142.208ZM143.133 16.6268V17.5517H142.208V16.6268H143.133ZM144.058 16.6268V17.5517H143.133V16.6268H144.058ZM139.434 16.6268V17.5517H138.509V16.6268H139.434ZM139.434 17.5517V18.4766H138.509V17.5517H139.434ZM139.434 18.4766V19.4015H138.509V18.4766H139.434ZM139.434 19.4015V20.3263H138.509V19.4015H139.434ZM139.434 20.3263V21.2512H138.509V20.3263H139.434ZM139.434 21.2512V22.1761H138.509V21.2512H139.434ZM139.434 22.1761V23.101H138.509V22.1761H139.434ZM139.434 23.101V24.0259H138.509V23.101H139.434ZM139.434 24.0259V24.9507H138.509V24.0259H139.434ZM139.434 24.9507V25.8756H138.509V24.9507H139.434ZM140.359 24.9507V25.8756H139.434V24.9507H140.359ZM140.359 25.8756V26.8005H139.434V25.8756H140.359ZM139.434 25.8756V26.8005H138.509V25.8756H139.434ZM141.284 25.8756V26.8005H140.359V25.8756H141.284ZM142.208 25.8756V26.8005H141.284V25.8756H142.208ZM143.133 25.8756V26.8005H142.208V25.8756H143.133ZM144.058 25.8756V26.8005H143.133V25.8756H144.058ZM143.133 24.9507V25.8756H142.208V24.9507H143.133ZM143.133 24.0259V24.9507H142.208V24.0259H143.133ZM143.133 23.101V24.0259H142.208V23.101H143.133ZM143.133 22.1761V23.101H142.208V22.1761H143.133ZM143.133 21.2512V22.1761H142.208V21.2512H143.133ZM143.133 20.3263V21.2512H142.208V20.3263H143.133ZM143.133 19.4015V20.3263H142.208V19.4015H143.133ZM143.133 18.4766V19.4015H142.208V18.4766H143.133ZM143.133 17.5517V18.4766H142.208V17.5517H143.133ZM142.208 17.5517V18.4766H141.284V17.5517H142.208ZM141.284 17.5517V18.4766H140.359V17.5517H141.284ZM140.359 17.5517V18.4766H139.434V17.5517H140.359ZM140.359 18.4766V19.4015H139.434V18.4766H140.359ZM140.359 19.4015V20.3263H139.434V19.4015H140.359ZM140.359 20.3263V21.2512H139.434V20.3263H140.359ZM140.359 21.2512V22.1761H139.434V21.2512H140.359ZM140.359 22.1761V23.101H139.434V22.1761H140.359ZM140.359 23.101V24.0259H139.434V23.101H140.359ZM140.359 24.0259V24.9507H139.434V24.0259H140.359ZM141.284 24.9507V25.8756H140.359V24.9507H141.284ZM142.208 24.9507V25.8756H141.284V24.9507H142.208ZM142.208 24.0259V24.9507H141.284V24.0259H142.208ZM142.208 23.101V24.0259H141.284V23.101H142.208ZM142.208 22.1761V23.101H141.284V22.1761H142.208ZM142.208 21.2512V22.1761H141.284V21.2512H142.208ZM141.284 21.2512V22.1761H140.359V21.2512H141.284ZM141.284 20.3263V21.2512H140.359V20.3263H141.284ZM141.284 19.4015V20.3263H140.359V19.4015H141.284ZM141.284 18.4766V19.4015H140.359V18.4766H141.284ZM142.208 18.4766V19.4015H141.284V18.4766H142.208ZM142.208 19.4015V20.3263H141.284V19.4015H142.208ZM142.208 20.3263V21.2512H141.284V20.3263H142.208ZM141.284 23.101V24.0259H140.359V23.101H141.284ZM141.284 24.0259V24.9507H140.359V24.0259H141.284ZM141.284 22.1761V23.101H140.359V22.1761H141.284ZM149.607 24.9507V25.8756H148.683V24.9507H149.607ZM150.532 24.9507V25.8756H149.607V24.9507H150.532ZM151.457 24.9507V25.8756H150.532V24.9507H151.457ZM152.382 24.9507V25.8756H151.457V24.9507H152.382ZM153.307 24.9507V25.8756H152.382V24.9507H153.307ZM153.307 25.8756V26.8005H152.382V25.8756H153.307ZM152.382 25.8756V26.8005H151.457V25.8756H152.382ZM151.457 25.8756V26.8005H150.532V25.8756H151.457ZM150.532 25.8756V26.8005H149.607V25.8756H150.532ZM149.607 25.8756V26.8005H148.683V25.8756H149.607ZM148.683 25.8756V26.8005H147.758V25.8756H148.683ZM148.683 26.8005V27.7254H147.758V26.8005H148.683ZM149.607 26.8005V27.7254H148.683V26.8005H149.607ZM150.532 26.8005V27.7254H149.607V26.8005H150.532ZM151.457 26.8005V27.7254H150.532V26.8005H151.457ZM151.457 27.7254V28.6502H150.532V27.7254H151.457ZM152.382 27.7254V28.6502H151.457V27.7254H152.382ZM152.382 26.8005V27.7254H151.457V26.8005H152.382ZM151.457 28.6502V29.5751H150.532V28.6502H151.457ZM150.532 28.6502V29.5751H149.607V28.6502H150.532ZM150.532 27.7254V28.6502H149.607V27.7254H150.532ZM149.607 27.7254V28.6502H148.683V27.7254H149.607ZM149.607 28.6502V29.5751H148.683V28.6502H149.607ZM149.607 29.5751V30.5H148.683V29.5751H149.607ZM148.683 29.5751V30.5H147.758V29.5751H148.683ZM147.758 29.5751V30.5H146.833V29.5751H147.758ZM146.833 29.5751V30.5H145.908V29.5751H146.833ZM145.908 29.5751V30.5H144.983V29.5751H145.908ZM144.983 29.5751V30.5H144.058V29.5751H144.983ZM144.058 29.5751V30.5H143.133V29.5751H144.058ZM143.133 29.5751V30.5H142.208V29.5751H143.133ZM144.058 28.6502V29.5751H143.133V28.6502H144.058ZM144.983 28.6502V29.5751H144.058V28.6502H144.983ZM145.908 28.6502V29.5751H144.983V28.6502H145.908ZM146.833 28.6502V29.5751H145.908V28.6502H146.833ZM147.758 28.6502V29.5751H146.833V28.6502H147.758ZM148.683 28.6502V29.5751H147.758V28.6502H148.683ZM148.683 27.7254V28.6502H147.758V27.7254H148.683ZM147.758 27.7254V28.6502H146.833V27.7254H147.758ZM146.833 27.7254V28.6502H145.908V27.7254H146.833ZM145.908 27.7254V28.6502H144.983V27.7254H145.908ZM144.983 27.7254V28.6502H144.058V27.7254H144.983ZM144.058 27.7254V28.6502H143.133V27.7254H144.058ZM143.133 28.6502V29.5751H142.208V28.6502H143.133ZM142.208 28.6502V29.5751H141.284V28.6502H142.208ZM141.284 28.6502V29.5751H140.359V28.6502H141.284ZM141.284 27.7254V28.6502H140.359V27.7254H141.284ZM140.359 27.7254V28.6502H139.434V27.7254H140.359ZM140.359 26.8005V27.7254H139.434V26.8005H140.359ZM141.284 26.8005V27.7254H140.359V26.8005H141.284ZM142.208 26.8005V27.7254H141.284V26.8005H142.208ZM143.133 26.8005V27.7254H142.208V26.8005H143.133ZM144.058 26.8005V27.7254H143.133V26.8005H144.058ZM144.983 26.8005V27.7254H144.058V26.8005H144.983ZM145.908 26.8005V27.7254H144.983V26.8005H145.908ZM146.833 26.8005V27.7254H145.908V26.8005H146.833ZM147.758 26.8005V27.7254H146.833V26.8005H147.758ZM143.133 27.7254V28.6502H142.208V27.7254H143.133ZM142.208 27.7254V28.6502H141.284V27.7254H142.208ZM153.307 19.4015V20.3263H152.382V19.4015H153.307ZM152.382 19.4015V20.3263H151.457V19.4015H152.382ZM151.457 19.4015V20.3263H150.532V19.4015H151.457ZM150.532 19.4015V20.3263H149.607V19.4015H150.532ZM149.607 19.4015V20.3263H148.683V19.4015H149.607ZM153.307 20.3263V21.2512H152.382V20.3263H153.307ZM151.457 20.3263V21.2512H150.532V20.3263H151.457ZM150.532 20.3263V21.2512H149.607V20.3263H150.532ZM148.683 20.3263V21.2512H147.758V20.3263H148.683ZM147.758 20.3263V21.2512H146.833V20.3263H147.758ZM146.833 20.3263V21.2512H145.908V20.3263H146.833ZM145.908 20.3263V21.2512H144.983V20.3263H145.908ZM144.983 20.3263V21.2512H144.058V20.3263H144.983ZM144.058 20.3263V21.2512H143.133V20.3263H144.058ZM149.607 20.3263V21.2512H148.683V20.3263H149.607ZM152.382 20.3263V21.2512H151.457V20.3263H152.382ZM153.307 21.2512V22.1761H152.382V21.2512H153.307ZM152.382 21.2512V22.1761H151.457V21.2512H152.382ZM151.457 21.2512V22.1761H150.532V21.2512H151.457ZM150.532 21.2512V22.1761H149.607V21.2512H150.532ZM149.607 21.2512V22.1761H148.683V21.2512H149.607ZM148.683 21.2512V22.1761H147.758V21.2512H148.683ZM147.758 21.2512V22.1761H146.833V21.2512H147.758ZM146.833 21.2512V22.1761H145.908V21.2512H146.833ZM145.908 21.2512V22.1761H144.983V21.2512H145.908ZM144.983 21.2512V22.1761H144.058V21.2512H144.983ZM144.058 21.2512V22.1761H143.133V21.2512H144.058ZM144.058 22.1761V23.101H143.133V22.1761H144.058ZM144.983 22.1761V23.101H144.058V22.1761H144.983ZM145.908 22.1761V23.101H144.983V22.1761H145.908ZM147.758 22.1761V23.101H146.833V22.1761H147.758ZM148.683 22.1761V23.101H147.758V22.1761H148.683ZM149.607 22.1761V23.101H148.683V22.1761H149.607ZM150.532 22.1761V23.101H149.607V22.1761H150.532ZM151.457 22.1761V23.101H150.532V22.1761H151.457ZM152.382 22.1761V23.101H151.457V22.1761H152.382ZM153.307 22.1761V23.101H152.382V22.1761H153.307ZM146.833 22.1761V23.101H145.908V22.1761H146.833Z" fill="#A30162"/>
</svg>
