<svg width="88" height="87" viewBox="0 0 88 87" fill="none" xmlns="http://www.w3.org/2000/svg">
<path d="M43.9637 4.56759C46.2474 4.56759 48.4949 5.32883 50.2712 6.85133L55.9987 11.7451C56.5787 12.2526 58.0287 12.7601 58.7899 12.7601L65.1337 12.7601C70.4987 12.7601 74.8487 17.1101 74.8487 22.4751L74.8487 28.6738C74.8487 29.4351 75.3562 30.8851 75.8274 31.4288L80.7574 37.2288C83.7299 40.7451 83.7299 46.2551 80.7574 49.8076L75.8274 55.6076C75.3562 56.1513 74.8487 57.6013 74.8487 58.3626L74.8487 64.5251C74.8487 69.8901 70.4987 74.2401 65.1337 74.2401L58.8624 74.2401C58.1012 74.2401 56.6874 74.7838 56.0712 75.2913L50.3437 80.1851C46.7912 83.1938 41.2449 83.1938 37.6924 80.1851L31.9649 75.2913C31.3849 74.7838 29.8987 74.2763 29.1374 74.2763L22.9749 74.2763C17.6099 74.2763 13.2599 69.9263 13.26 64.5613L13.26 58.3988C13.26 57.6376 12.7162 56.2238 12.2087 55.6076L7.31494 49.8801C4.26995 46.2913 4.30619 40.7451 7.31495 37.2288L12.2087 31.5013C12.7162 30.8851 13.2237 29.4713 13.2237 28.7101L13.2237 22.5476C13.2237 17.1826 17.5737 12.8326 22.9387 12.8326L29.1012 12.8326C29.8624 12.8326 31.2762 12.2888 31.9287 11.7813L37.6562 6.88758C39.4324 5.32883 41.7162 4.56759 43.9637 4.56759ZM65.1337 68.8026C67.4899 68.8026 69.4112 66.8813 69.4112 64.5251L69.4112 58.3626C69.4112 56.2963 70.3537 53.6863 71.6949 52.0913L76.6249 46.2913C77.8574 44.8051 77.8574 42.1951 76.6249 40.7451L71.7312 34.9813C70.4262 33.4951 69.4474 30.7763 69.4474 28.7101L69.4474 22.5113C69.4474 20.1551 67.5262 18.2338 65.1699 18.2338L58.8624 18.2338C56.8324 18.2338 54.1499 17.2551 52.5549 15.9138L46.7912 10.9838C45.3049 9.71508 42.6949 9.71508 41.2087 10.9838L35.4812 15.8776C33.8499 17.2551 31.2037 18.1976 29.1737 18.1976L23.0112 18.1976C20.6549 18.1976 18.7337 20.1188 18.7337 22.4751L18.7337 28.6376C18.7337 30.6676 17.7549 33.3138 16.4137 34.9451L11.4837 40.7088C10.215 42.1951 10.215 44.8051 11.4837 46.2913L16.3774 52.0188C17.7549 53.6501 18.6975 56.2963 18.6975 58.3263L18.6975 64.5251C18.6975 66.8813 20.6187 68.8026 22.975 68.8026L29.1374 68.8026C31.2037 68.8026 33.8862 69.7813 35.4812 71.1226L41.2449 76.0526C42.7312 77.3213 45.3049 77.3213 46.8274 76.0526L52.5187 71.1226C54.1499 69.7813 56.7962 68.8026 58.8624 68.8026L65.1337 68.8026Z" fill="#2196F3"/>
<path d="M44 25.8462C45.9938 25.8462 47.625 27.4774 47.625 29.4712C47.625 31.4649 46.03 33.0962 44 33.0962C42.0062 33.0962 40.375 31.4649 40.375 29.4712C40.375 27.4774 41.97 25.8462 44 25.8462Z" fill="#2196F3"/>
<path d="M44 37.2651C45.4863 37.2651 46.7188 38.4976 46.7188 39.9838L46.7188 57.5288C46.7188 59.0151 45.4863 60.2476 44 60.2476C42.5138 60.2476 41.2813 59.0151 41.2813 57.5288L41.2813 40.0201C41.2813 38.4976 42.4775 37.2651 44 37.2651Z" fill="#2196F3"/>
</svg>
