<svg width="25" height="24" viewBox="0 0 25 24" fill="none" xmlns="http://www.w3.org/2000/svg">
<rect x="0.9" y="0.4" width="23.2" height="23.2" rx="11.6" stroke="#A30162" stroke-width="0.8"/>
<path d="M12.9031 8.72886C10.9156 8.72886 9.31249 10.332 9.31249 12.3195C9.31249 14.307 10.9156 15.9101 12.9031 15.9101C14.8906 15.9101 16.4937 14.307 16.4937 12.3195C16.4937 10.332 14.8906 8.72886 12.9031 8.72886ZM12.9031 14.6539C11.6187 14.6539 10.5687 13.607 10.5687 12.3195C10.5687 11.032 11.6156 9.98511 12.9031 9.98511C14.1906 9.98511 15.2375 11.032 15.2375 12.3195C15.2375 13.607 14.1875 14.6539 12.9031 14.6539ZM17.4781 8.58198C17.4781 9.04761 17.1031 9.41948 16.6406 9.41948C16.175 9.41948 15.8031 9.04448 15.8031 8.58198C15.8031 8.11948 16.1781 7.74448 16.6406 7.74448C17.1031 7.74448 17.4781 8.11948 17.4781 8.58198ZM19.8562 9.43198C19.8031 8.31011 19.5469 7.31636 18.725 6.49761C17.9062 5.67886 16.9125 5.42261 15.7906 5.36636C14.6344 5.30073 11.1687 5.30073 10.0125 5.36636C8.89374 5.41948 7.89999 5.67573 7.07811 6.49448C6.25624 7.31323 6.00311 8.30698 5.94686 9.42886C5.88124 10.5851 5.88124 14.0507 5.94686 15.207C5.99999 16.3289 6.25624 17.3226 7.07811 18.1414C7.89999 18.9601 8.89061 19.2164 10.0125 19.2726C11.1687 19.3382 14.6344 19.3382 15.7906 19.2726C16.9125 19.2195 17.9062 18.9632 18.725 18.1414C19.5437 17.3226 19.8 16.3289 19.8562 15.207C19.9219 14.0507 19.9219 10.5882 19.8562 9.43198ZM18.3625 16.4476C18.1187 17.0601 17.6469 17.532 17.0312 17.7789C16.1094 18.1445 13.9219 18.0601 12.9031 18.0601C11.8844 18.0601 9.69374 18.1414 8.77499 17.7789C8.16249 17.5351 7.69061 17.0632 7.44374 16.4476C7.07811 15.5257 7.16249 13.3382 7.16249 12.3195C7.16249 11.3007 7.08124 9.11011 7.44374 8.19136C7.68749 7.57886 8.15936 7.10698 8.77499 6.86011C9.69686 6.49448 11.8844 6.57886 12.9031 6.57886C13.9219 6.57886 16.1125 6.49761 17.0312 6.86011C17.6437 7.10386 18.1156 7.57573 18.3625 8.19136C18.7281 9.11323 18.6437 11.3007 18.6437 12.3195C18.6437 13.3382 18.7281 15.5289 18.3625 16.4476Z" fill="#A30162"/>
</svg>
