<svg width="25" height="24" viewBox="0 0 25 24" fill="none" xmlns="http://www.w3.org/2000/svg">
<rect x="0.9" y="0.4" width="23.2" height="23.2" rx="11.6" stroke="#A30162" stroke-width="0.8"/>
<g clip-path="url(#clip0_74_1562)">
<path d="M9.03374 18.3998H6.13124V9.05296H9.03374V18.3998ZM7.58093 7.77796C6.65281 7.77796 5.89999 7.00921 5.89999 6.08108C5.89999 5.63527 6.07709 5.20772 6.39233 4.89248C6.70757 4.57724 7.13512 4.40015 7.58093 4.40015C8.02674 4.40015 8.4543 4.57724 8.76953 4.89248C9.08477 5.20772 9.26187 5.63527 9.26187 6.08108C9.26187 7.00921 8.50874 7.77796 7.58093 7.77796ZM19.8969 18.3998H17.0006V13.8498C17.0006 12.7655 16.9787 11.3748 15.4916 11.3748C13.9825 11.3748 13.7512 12.553 13.7512 13.7717V18.3998H10.8519V9.05296H13.6356V10.328H13.6762C14.0637 9.59358 15.0103 8.81858 16.4225 8.81858C19.36 8.81858 19.9 10.753 19.9 13.2655V18.3998H19.8969Z" fill="#A30162"/>
</g>
<defs>
<clipPath id="clip0_74_1562">
<rect width="16" height="16" fill="white" transform="translate(4.89999 4.40002)"/>
</clipPath>
</defs>
</svg>
