<svg width="30" height="31" viewBox="0 0 30 31" fill="none" xmlns="http://www.w3.org/2000/svg">
<rect y="0.5" width="30" height="30" rx="15" fill="#4CAF50"/>
<rect y="0.5" width="30" height="30" rx="15" fill="white" fill-opacity="0.9"/>
<path d="M18.4091 21.8068H11.5909C9.10227 21.8068 7.67045 20.3749 7.67045 17.8863V13.1136C7.67045 10.6249 9.10227 9.19312 11.5909 9.19312H18.4091C20.8977 9.19312 22.3295 10.6249 22.3295 13.1136V17.8863C22.3295 20.3749 20.8977 21.8068 18.4091 21.8068ZM11.5909 10.2158C9.64091 10.2158 8.69318 11.1636 8.69318 13.1136V17.8863C8.69318 19.8363 9.64091 20.784 11.5909 20.784H18.4091C20.3591 20.784 21.3068 19.8363 21.3068 17.8863V13.1136C21.3068 11.1636 20.3591 10.2158 18.4091 10.2158H11.5909Z" fill="#4CAF50"/>
<path d="M15 18.0568C13.5886 18.0568 12.4432 16.9113 12.4432 15.4999C12.4432 14.0886 13.5886 12.9431 15 12.9431C16.4114 12.9431 17.5568 14.0886 17.5568 15.4999C17.5568 16.9113 16.4114 18.0568 15 18.0568ZM15 13.9658C14.1545 13.9658 13.4659 14.6545 13.4659 15.4999C13.4659 16.3454 14.1545 17.034 15 17.034C15.8455 17.034 16.5341 16.3454 16.5341 15.4999C16.5341 14.6545 15.8455 13.9658 15 13.9658Z" fill="#4CAF50"/>
<path d="M8.86363 13.9658H8.18182C7.90227 13.9658 7.67045 13.734 7.67045 13.4545C7.67045 13.1749 7.90227 12.9431 8.18182 12.9431H8.86363C10.6227 12.9431 11.0795 12.4863 11.0795 10.7272V10.0454C11.0795 9.76585 11.3114 9.53403 11.5909 9.53403C11.8705 9.53403 12.1023 9.76585 12.1023 10.0454V10.7272C12.1023 13.059 11.1955 13.9658 8.86363 13.9658Z" fill="#4CAF50"/>
<path d="M21.8182 13.9658H21.1364C18.8045 13.9658 17.8977 13.059 17.8977 10.7272V10.0454C17.8977 9.76585 18.1295 9.53403 18.4091 9.53403C18.6886 9.53403 18.9205 9.76585 18.9205 10.0454V10.7272C18.9205 12.4863 19.3773 12.9431 21.1364 12.9431H21.8182C22.0977 12.9431 22.3295 13.1749 22.3295 13.4545C22.3295 13.734 22.0977 13.9658 21.8182 13.9658Z" fill="#4CAF50"/>
<path d="M11.5909 21.4658C11.3114 21.4658 11.0795 21.234 11.0795 20.9545V20.2727C11.0795 18.5136 10.6227 18.0568 8.86363 18.0568H8.18182C7.90227 18.0568 7.67045 17.8249 7.67045 17.5454C7.67045 17.2658 7.90227 17.034 8.18182 17.034H8.86363C11.1955 17.034 12.1023 17.9408 12.1023 20.2727V20.9545C12.1023 21.234 11.8705 21.4658 11.5909 21.4658Z" fill="#4CAF50"/>
<path d="M18.4091 21.4658C18.1295 21.4658 17.8977 21.234 17.8977 20.9545V20.2727C17.8977 17.9408 18.8045 17.034 21.1364 17.034H21.8182C22.0977 17.034 22.3295 17.2658 22.3295 17.5454C22.3295 17.8249 22.0977 18.0568 21.8182 18.0568H21.1364C19.3773 18.0568 18.9205 18.5136 18.9205 20.2727V20.9545C18.9205 21.234 18.6886 21.4658 18.4091 21.4658Z" fill="#4CAF50"/>
</svg>
