<svg width="30" height="30" viewBox="0 0 30 30" fill="none" xmlns="http://www.w3.org/2000/svg">
<rect width="30" height="30" rx="5" fill="#2196F3"/>
<path d="M15.0002 23.9583C14.8002 23.9583 14.6002 23.9334 14.4085 23.875C10.0835 22.6834 6.9502 18.6417 6.9502 14.2583V10.6C6.9502 9.66665 7.6252 8.65836 8.49187 8.30002L13.1335 6.4C14.3419 5.90833 15.6669 5.90833 16.8669 6.4L21.5085 8.30002C22.3752 8.65836 23.0502 9.66665 23.0502 10.6V14.2583C23.0502 18.6333 19.9085 22.675 15.5919 23.875C15.4002 23.9334 15.2002 23.9583 15.0002 23.9583ZM15.0002 7.29167C14.5252 7.29167 14.0585 7.38335 13.6085 7.56669L8.96687 9.46666C8.56687 9.63333 8.2002 10.175 8.2002 10.6083V14.2667C8.2002 18.0917 10.9502 21.625 14.7419 22.675C14.9085 22.725 15.0919 22.725 15.2585 22.675C19.0502 21.625 21.8002 18.0917 21.8002 14.2667V10.6083C21.8002 10.175 21.4335 9.63333 21.0335 9.46666L16.3919 7.56669C15.9419 7.38335 15.4752 7.29167 15.0002 7.29167Z" fill="white"/>
<path d="M14.9997 16.0418C13.733 16.0418 12.708 15.0168 12.708 13.7502C12.708 12.4835 13.733 11.4585 14.9997 11.4585C16.2663 11.4585 17.2913 12.4835 17.2913 13.7502C17.2913 15.0168 16.2663 16.0418 14.9997 16.0418ZM14.9997 12.7085C14.4247 12.7085 13.958 13.1752 13.958 13.7502C13.958 14.3252 14.4247 14.7918 14.9997 14.7918C15.5747 14.7918 16.0413 14.3252 16.0413 13.7502C16.0413 13.1752 15.5747 12.7085 14.9997 12.7085Z" fill="white"/>
<path d="M15 18.5415C14.6583 18.5415 14.375 18.2582 14.375 17.9165V15.4165C14.375 15.0748 14.6583 14.7915 15 14.7915C15.3417 14.7915 15.625 15.0748 15.625 15.4165V17.9165C15.625 18.2582 15.3417 18.5415 15 18.5415Z" fill="white"/>
</svg>
