<svg width="30" height="30" viewBox="0 0 30 30" fill="none" xmlns="http://www.w3.org/2000/svg">
<rect width="30" height="30" rx="5" fill="#FF25C4"/>
<path d="M15 23.9581C14.4167 23.9581 13.825 23.7331 13.3833 23.2914L11.9583 21.8831C11.6 21.5331 11.1333 21.3415 10.6333 21.3415H10C8.275 21.3415 6.875 19.9498 6.875 18.2415V9.14978C6.875 7.44145 8.275 6.0498 10 6.0498H20C21.725 6.0498 23.125 7.44145 23.125 9.14978V18.2415C23.125 19.9498 21.725 21.3415 20 21.3415H19.3667C18.8667 21.3415 18.3917 21.5331 18.0417 21.8831L16.6167 23.2914C16.175 23.7331 15.5833 23.9581 15 23.9581ZM10 7.29146C8.96667 7.29146 8.125 8.12477 8.125 9.14144V18.2331C8.125 19.2581 8.96667 20.0831 10 20.0831H10.6333C11.4667 20.0831 12.25 20.4081 12.8417 20.9914L14.2667 22.3998C14.675 22.7998 15.3333 22.7998 15.7417 22.3998L17.1667 20.9914C17.7583 20.4081 18.5417 20.0831 19.375 20.0831H20C21.0333 20.0831 21.875 19.2498 21.875 18.2331V9.14144C21.875 8.11644 21.0333 7.29146 20 7.29146H10Z" fill="white"/>
<path d="M13.6502 17.0918H11.4169C11.0502 17.0918 10.7085 16.9168 10.4919 16.6168C10.2835 16.3334 10.2335 15.9835 10.3335 15.6502C10.6252 14.7585 11.3419 14.2752 11.9752 13.8418C12.6419 13.3918 13.0169 13.1085 13.0169 12.6252C13.0169 12.1918 12.6669 11.8418 12.2335 11.8418C11.8002 11.8418 11.4502 12.1918 11.4502 12.6252C11.4502 12.9668 11.1669 13.2502 10.8252 13.2502C10.4835 13.2502 10.2002 12.9668 10.2002 12.6252C10.2002 11.5085 11.1085 10.5918 12.2335 10.5918C13.3585 10.5918 14.2669 11.5002 14.2669 12.6252C14.2669 13.8002 13.3835 14.4002 12.6752 14.8835C12.2335 15.1835 11.8169 15.4668 11.6085 15.8418H13.6419C13.9835 15.8418 14.2669 16.1252 14.2669 16.4668C14.2669 16.8085 13.9919 17.0918 13.6502 17.0918Z" fill="white"/>
<path d="M18.3667 17.0919C18.0251 17.0919 17.7417 16.8086 17.7417 16.4669V15.8919H16.1084C16.1084 15.8919 16.1084 15.8919 16.1001 15.8919C15.6917 15.8919 15.3167 15.6753 15.1084 15.3253C14.9001 14.967 14.9001 14.5253 15.1084 14.1753C15.6751 13.2003 16.3334 12.0919 16.9334 11.1253C17.2001 10.7003 17.7084 10.5086 18.1834 10.642C18.6584 10.7836 18.9917 11.217 18.9834 11.717V14.6502H19.1667C19.5084 14.6502 19.7917 14.9336 19.7917 15.2752C19.7917 15.6169 19.5084 15.9002 19.1667 15.9002H18.9917V16.4753C18.9917 16.817 18.7167 17.0919 18.3667 17.0919ZM17.7417 12.2003C17.2501 13.0003 16.7417 13.8586 16.2834 14.6419H17.7417V12.2003Z" fill="white"/>
</svg>
