<svg width="30" height="31" viewBox="0 0 30 31" fill="none" xmlns="http://www.w3.org/2000/svg">
<rect y="0.5" width="30" height="30" rx="15" fill="#2196F3"/>
<rect y="0.5" width="30" height="30" rx="15" fill="white" fill-opacity="0.9"/>
<path d="M18.4091 21.4659H11.5909C8.58409 21.4659 7.67045 20.5523 7.67045 17.5455V17.2045C7.67045 16.925 7.90227 16.6932 8.18182 16.6932C8.83636 16.6932 9.375 16.1545 9.375 15.5C9.375 14.8455 8.83636 14.3068 8.18182 14.3068C7.90227 14.3068 7.67045 14.075 7.67045 13.7955V13.4545C7.67045 10.4477 8.58409 9.53409 11.5909 9.53409H18.4091C21.4159 9.53409 22.3295 10.4477 22.3295 13.4545V14.1364C22.3295 14.4159 22.0977 14.6477 21.8182 14.6477C21.1636 14.6477 20.625 15.1864 20.625 15.8409C20.625 16.4955 21.1636 17.0341 21.8182 17.0341C22.0977 17.0341 22.3295 17.2659 22.3295 17.5455C22.3295 20.5523 21.4159 21.4659 18.4091 21.4659ZM8.69318 17.6545C8.70682 20 9.19091 20.4432 11.5909 20.4432H18.4091C20.6864 20.4432 21.2386 20.0409 21.3 17.9955C20.325 17.7636 19.6023 16.8841 19.6023 15.8409C19.6023 14.7977 20.3318 13.9182 21.3068 13.6864V13.4545C21.3068 11.0205 20.85 10.5568 18.4091 10.5568H11.5909C9.19091 10.5568 8.70682 11 8.69318 13.3455C9.66818 13.5773 10.3977 14.4568 10.3977 15.5C10.3977 16.5432 9.66818 17.4227 8.69318 17.6545Z" fill="#2196F3"/>
<path d="M13.6364 12.2614C13.3568 12.2614 13.125 12.0295 13.125 11.75V10.0455C13.125 9.76591 13.3568 9.53409 13.6364 9.53409C13.9159 9.53409 14.1477 9.76591 14.1477 10.0455V11.75C14.1477 12.0295 13.9159 12.2614 13.6364 12.2614Z" fill="#2196F3"/>
<path d="M13.6364 17.2591C13.3568 17.2591 13.125 17.0273 13.125 16.7477V14.2454C13.125 13.9659 13.3568 13.7341 13.6364 13.7341C13.9159 13.7341 14.1477 13.9659 14.1477 14.2454V16.7477C14.1477 17.0341 13.9159 17.2591 13.6364 17.2591Z" fill="#2196F3"/>
<path d="M13.6364 21.4659C13.3568 21.4659 13.125 21.2341 13.125 20.9546V19.25C13.125 18.9705 13.3568 18.7386 13.6364 18.7386C13.9159 18.7386 14.1477 18.9705 14.1477 19.25V20.9546C14.1477 21.2341 13.9159 21.4659 13.6364 21.4659Z" fill="#2196F3"/>
</svg>
