<svg width="50" height="50" viewBox="0 0 50 50" fill="none" xmlns="http://www.w3.org/2000/svg">
<rect width="50" height="50" rx="25" fill="#FAF6F2"/>
<path d="M31.6667 13.6667H18.3334C14.3334 13.6667 11.6667 15.6667 11.6667 20.3333V29.6667C11.6667 34.3333 14.3334 36.3333 18.3334 36.3333H31.6667C35.6667 36.3333 38.3334 34.3333 38.3334 29.6667V20.3333C38.3334 15.6667 35.6667 13.6667 31.6667 13.6667ZM17.3334 28.3333C17.3334 28.88 16.88 29.3333 16.3334 29.3333C15.7867 29.3333 15.3334 28.88 15.3334 28.3333V21.6667C15.3334 21.12 15.7867 20.6667 16.3334 20.6667C16.88 20.6667 17.3334 21.12 17.3334 21.6667V28.3333ZM25 29C22.7867 29 21 27.2133 21 25C21 22.7867 22.7867 21 25 21C27.2134 21 29 22.7867 29 25C29 27.2133 27.2134 29 25 29ZM34.6667 28.3333C34.6667 28.88 34.2134 29.3333 33.6667 29.3333C33.12 29.3333 32.6667 28.88 32.6667 28.3333V21.6667C32.6667 21.12 33.12 20.6667 33.6667 20.6667C34.2134 20.6667 34.6667 21.12 34.6667 21.6667V28.3333Z" fill="#FE840A"/>
</svg>
