<svg width="209" height="276" viewBox="0 0 209 276" fill="none" xmlns="http://www.w3.org/2000/svg">
<g clip-path="url(#clip0_883_770)">
<rect x="0.880905" y="0.645264" width="207.2" height="273.81" rx="5.95238" transform="rotate(0.168029 0.880905 0.645264)" fill="white" fill-opacity="0.97"/>
<g clip-path="url(#clip1_883_770)">
<path d="M17.3241 17.0092L16.4873 16.1675L12.9054 19.7284L16.4664 23.3103L17.3081 22.4735L14.5899 19.7333L17.3241 17.0092Z" fill="#A7B2C0"/>
</g>
<path d="M34.473 22.7914L36.9641 16.9393L37.6965 16.9415L40.1451 22.8081L39.3639 22.8058L37.328 17.7054L35.2542 22.7937L34.473 22.7914ZM35.7481 20.8746L35.7499 20.2724L38.883 20.2816L38.8812 20.8838L35.7481 20.8746ZM42.3688 22.9122C42.0623 22.9114 41.7967 22.8414 41.5719 22.7024C41.3472 22.5634 41.1741 22.3649 41.0528 22.1068C40.9315 21.8487 40.8714 21.5407 40.8724 21.1826L40.8806 18.4157L41.5641 18.4177L41.5562 21.1317C41.5551 21.4898 41.6221 21.7816 41.7571 22.0071C41.892 22.23 42.1359 22.3419 42.4885 22.3429C42.7516 22.3437 42.9797 22.2766 43.1727 22.1415C43.3657 22.0064 43.5155 21.8034 43.6221 21.5325C43.7314 21.2615 43.7866 20.9226 43.7878 20.5157L43.794 18.4242L44.4775 18.4262L44.4647 22.8207L43.8218 22.8189L43.8248 21.7853L43.8527 21.9644C43.738 22.2354 43.5529 22.4613 43.2974 22.6423C43.0446 22.8234 42.735 22.9133 42.3688 22.9122ZM47.4812 24.5142C46.8275 24.5122 46.3463 24.4186 46.0376 24.2332C45.7288 24.0506 45.575 23.768 45.5762 23.3855C45.5768 23.1685 45.633 22.9747 45.7447 22.8041C45.8564 22.6336 46.0494 22.5026 46.3237 22.4111C46.2208 22.3485 46.1369 22.2655 46.0721 22.1622C46.0073 22.0589 45.9751 21.9435 45.9755 21.8161C45.9759 21.6641 46.0238 21.5286 46.1191 21.4096C46.2144 21.2878 46.3503 21.2014 46.5267 21.1503C46.3101 21.0222 46.1411 20.8495 46.0196 20.6321C45.9009 20.412 45.842 20.1569 45.8428 19.8666C45.8438 19.5519 45.9137 19.2809 46.0527 19.0534C46.1945 18.8232 46.3944 18.6462 46.6524 18.5221C46.9132 18.3981 47.2227 18.3366 47.5807 18.3377C47.9388 18.3387 48.2479 18.402 48.5079 18.5276C48.7707 18.6531 48.9722 18.8314 49.1126 19.0624C49.2557 19.2934 49.3268 19.5676 49.3259 19.885C49.325 20.1969 49.2523 20.4666 49.1078 20.694C48.9661 20.9188 48.7635 21.0932 48.5 21.2172C48.2365 21.3385 47.923 21.3986 47.5595 21.3975L47.1811 21.3964C46.8393 21.3954 46.6681 21.4966 46.6675 21.7001C46.667 21.8927 46.8322 21.9895 47.1631 21.9904L48.042 21.993C48.3892 21.994 48.6685 22.0355 48.8799 22.1175C49.0939 22.1968 49.2564 22.3004 49.3672 22.4282C49.4808 22.5533 49.5577 22.6892 49.598 22.8358C49.6382 22.9824 49.6582 23.1222 49.6578 23.2551C49.6565 23.6864 49.4996 24.0047 49.187 24.2099C48.8745 24.4152 48.39 24.5168 47.7335 24.5149L47.4812 24.5142ZM47.4828 23.9689L47.7351 23.9697C48.5435 23.972 48.9484 23.7318 48.9498 23.2489C48.9504 23.0482 48.8776 22.8839 48.7315 22.7559C48.5881 22.628 48.3414 22.5636 47.9915 22.5625L47.2347 22.5603C46.9634 22.5595 46.7367 22.6145 46.5547 22.7251C46.3726 22.8331 46.2812 23.0119 46.2805 23.2614C46.2798 23.5002 46.3769 23.6768 46.5719 23.7913C46.7696 23.9085 47.0732 23.9677 47.4828 23.9689ZM47.5732 20.9174C47.9177 20.9184 48.1824 20.831 48.3674 20.6553C48.5524 20.4768 48.6454 20.2193 48.6463 19.883C48.6473 19.5493 48.5559 19.29 48.3719 19.105C48.188 18.92 47.9238 18.827 47.5793 18.826C47.2375 18.8249 46.9755 18.9164 46.7932 19.1003C46.6109 19.2816 46.5193 19.5403 46.5183 19.8767C46.5173 20.2131 46.6074 20.4711 46.7886 20.6506C46.9699 20.8275 47.2314 20.9164 47.5732 20.9174ZM48.3037 18.7996L48.3049 18.3642C48.3055 18.1879 48.371 18.0429 48.5015 17.9294C48.6321 17.8131 48.7842 17.7553 48.9578 17.7558L49.4867 17.7573L49.4851 18.327L49.0497 18.3257C48.9656 18.3255 48.9099 18.3402 48.8827 18.37C48.8582 18.3997 48.8458 18.4594 48.8456 18.5489L48.8448 18.8012L48.3037 18.7996Z" fill="#A7B2C0"/>
<path d="M58.0476 18.9678L60.2731 21.2065L62.5118 18.9809L58.0476 18.9678Z" fill="#A7B2C0"/>
<g clip-path="url(#clip2_883_770)">
<path d="M80.9452 16.3565L80.1034 17.1933L82.8216 19.9334L80.0874 22.6575L80.9242 23.4993L84.5061 19.9384L80.9452 16.3565Z" fill="#A7B2C0"/>
</g>
<g clip-path="url(#clip3_883_770)">
<path d="M124.762 17.3241L123.925 16.4824L120.343 20.0433L123.904 23.6252L124.746 22.7884L122.027 20.0483L124.762 17.3241Z" fill="#A7B2C0"/>
</g>
<path d="M141.903 23.1064L141.905 22.6262L143.969 20.8867C144.249 20.6488 144.477 20.4324 144.654 20.2376C144.834 20.0428 144.966 19.8452 145.051 19.6447C145.135 19.4442 145.178 19.2205 145.179 18.9737C145.18 18.7051 145.133 18.4798 145.038 18.2978C144.947 18.1131 144.813 17.9744 144.637 17.8816C144.461 17.7889 144.245 17.7421 143.99 17.7414C143.697 17.7405 143.46 17.7981 143.278 17.9142C143.098 18.0276 142.964 18.1819 142.873 18.3769C142.786 18.572 142.734 18.7916 142.717 19.0356L141.936 18.7933C141.953 18.5329 142.048 18.2768 142.219 18.0251C142.394 17.7733 142.632 17.5651 142.933 17.4005C143.235 17.2359 143.586 17.1542 143.988 17.1554C144.216 17.1561 144.445 17.1893 144.675 17.2551C144.906 17.3209 145.117 17.4259 145.309 17.5703C145.504 17.7119 145.659 17.8982 145.775 18.1291C145.894 18.3573 145.953 18.6342 145.952 18.9597C145.951 19.4235 145.823 19.8382 145.57 20.2037C145.317 20.5664 144.963 20.9303 144.509 21.2951L142.914 22.5803L142.398 22.4812L146.056 22.4919L146.054 23.1185L141.903 23.1064ZM149.14 23.2252C148.462 23.2232 147.936 22.9572 147.564 22.4272C147.191 21.8944 147.006 21.1492 147.009 20.1916C147.011 19.2341 147.201 18.4913 147.577 17.9635C147.953 17.4329 148.48 17.1686 149.158 17.1706C149.839 17.1726 150.364 17.44 150.734 17.9727C151.107 18.5028 151.292 19.2466 151.289 20.2042C151.286 21.1618 151.097 21.9058 150.721 22.4364C150.348 22.9643 149.821 23.2272 149.14 23.2252ZM149.142 22.6393C149.592 22.6406 149.933 22.4341 150.165 22.0197C150.397 21.6054 150.514 20.9994 150.516 20.2019C150.518 19.4044 150.405 18.7978 150.176 18.3821C149.946 17.9663 149.606 17.7578 149.156 17.7565C148.706 17.7552 148.365 17.9617 148.133 18.3761C147.901 18.7904 147.784 19.3964 147.782 20.1939C147.779 20.9914 147.893 21.598 148.122 22.0138C148.352 22.4295 148.692 22.638 149.142 22.6393ZM152.105 23.1363L152.106 22.6561L154.17 20.9166C154.45 20.6787 154.679 20.4623 154.856 20.2675C155.035 20.0728 155.168 19.8751 155.252 19.6746C155.337 19.4741 155.38 19.2505 155.38 19.0036C155.381 18.7351 155.334 18.5098 155.24 18.3277C155.148 18.143 155.014 18.0043 154.838 17.9115C154.662 17.8188 154.447 17.772 154.192 17.7713C153.899 17.7704 153.661 17.828 153.479 17.9442C153.3 18.0576 153.165 18.2118 153.075 18.4068C152.988 18.6019 152.935 18.8215 152.918 19.0656L152.138 18.8232C152.155 18.5628 152.249 18.3068 152.421 18.055C152.595 17.8032 152.833 17.595 153.135 17.4304C153.436 17.2659 153.788 17.1842 154.189 17.1853C154.417 17.186 154.646 17.2192 154.877 17.285C155.107 17.3508 155.318 17.4558 155.511 17.6002C155.706 17.7418 155.861 17.9281 155.977 18.159C156.096 18.3872 156.155 18.6641 156.154 18.9896C156.152 19.4535 156.025 19.8681 155.772 20.2336C155.518 20.5964 155.164 20.9602 154.71 21.3251L153.116 22.6103L152.599 22.5111L156.257 22.5218L156.255 23.1484L152.105 23.1363ZM159.167 23.2546C158.803 23.2536 158.467 23.1821 158.158 23.0401C157.852 22.8981 157.6 22.6926 157.403 22.4235C157.206 22.1516 157.09 21.8203 157.056 21.4296L157.797 21.1998C157.826 21.6367 157.958 21.9911 158.193 22.263C158.428 22.5323 158.749 22.6675 159.156 22.6687C159.522 22.6697 159.827 22.5648 160.069 22.354C160.313 22.1404 160.436 21.8328 160.437 21.4314C160.438 21.274 160.405 21.1071 160.337 20.9306C160.273 20.7514 160.155 20.5991 159.985 20.4738C159.814 20.3485 159.571 20.2854 159.257 20.2845L158.451 20.2822L158.453 19.6637L159.193 19.6658C159.538 19.6668 159.801 19.5767 159.984 19.3955C160.169 19.2116 160.262 19.0044 160.262 18.7738C160.263 18.5025 160.169 18.2703 159.979 18.0772C159.79 17.884 159.522 17.7869 159.175 17.7859C158.746 17.7846 158.431 17.9058 158.229 18.1493C158.031 18.3929 157.916 18.7316 157.885 19.1656L157.145 18.9315C157.162 18.6521 157.256 18.3798 157.428 18.1144C157.6 17.8491 157.836 17.6301 158.138 17.4573C158.44 17.2846 158.794 17.1988 159.201 17.2C159.534 17.201 159.837 17.267 160.108 17.398C160.381 17.529 160.598 17.7087 160.757 17.937C160.916 18.1626 160.996 18.4233 160.995 18.719C160.994 18.9143 160.953 19.0946 160.871 19.2598C160.789 19.4223 160.667 19.5617 160.504 19.6778C160.341 19.794 160.134 19.8802 159.884 19.9364C160.297 20.0109 160.62 20.1868 160.855 20.4642C161.093 20.7389 161.212 21.0566 161.211 21.4174C161.21 21.7429 161.151 22.0221 161.033 22.2551C160.919 22.488 160.763 22.6788 160.568 22.8274C160.372 22.9733 160.153 23.0812 159.912 23.151C159.67 23.2209 159.422 23.2554 159.167 23.2546Z" fill="#A7B2C0"/>
<path d="M169.485 19.2944L171.711 21.5331L173.95 19.3075L169.485 19.2944Z" fill="#A7B2C0"/>
<g clip-path="url(#clip4_883_770)">
<path d="M192.383 16.6831L191.541 17.5199L194.259 20.2601L191.525 22.9842L192.362 23.826L195.944 20.265L192.383 16.6831Z" fill="#A7B2C0"/>
</g>
<path d="M18.7046 55.6739C16.8285 55.6684 15.9549 54.7706 15.9585 53.5515L15.9586 53.4944L16.6444 53.4964L16.644 53.6202C16.6413 54.5345 17.2113 55.0314 18.7065 55.0358C19.9827 55.0395 20.5647 54.6888 20.5668 53.965C20.5689 53.2507 20.1411 52.9923 19.2083 52.7991L17.8567 52.538C16.8192 52.335 15.9919 51.8945 15.995 50.8373C15.9975 49.9707 16.743 49.0967 18.5715 49.102C20.3715 49.1073 21.1687 50.062 21.1653 51.2239L21.1652 51.2811L20.4794 51.279L20.4798 51.1648C20.4825 50.241 19.9125 49.744 18.522 49.74C17.2554 49.7363 16.6829 50.0965 16.6809 50.7917C16.6787 51.5155 17.0971 51.7358 18.0394 51.9386L19.3815 52.2092C20.5237 52.4316 21.2556 52.9194 21.2527 53.9099C21.25 54.8242 20.4761 55.6791 18.7046 55.6739Z" fill="#0D080B"/>
<path d="M44.2114 55.6536L43.5352 55.6516L43.5539 49.2707L44.4777 49.2734L46.6083 53.4416L47.1668 54.6242L47.2144 54.6243L47.7702 53.445L49.9158 49.2894L50.8491 49.2921L50.8304 55.673L50.1542 55.6711L50.1674 51.1758L50.1889 50.3188L50.1318 50.3186L49.7293 51.1746L47.5934 55.2826L46.7744 55.2802L44.6626 51.1597L44.2556 50.3014L44.208 50.3012L44.2245 51.1584L44.2114 55.6536Z" fill="#0D080B"/>
<path d="M76.0932 55.7471L75.417 55.7451L75.4339 49.9832L72.8053 49.9755L72.8071 49.3565L78.7309 49.3738L78.7291 49.9929L76.1101 49.9852L76.0932 55.7471Z" fill="#0D080B"/>
<path d="M102.423 55.8242L101.413 55.8213L99.5845 49.4349L100.337 49.4371L101.591 53.8408L101.92 55.1466L101.977 55.1467L102.362 53.8431L103.861 49.4475L104.813 49.4503L106.438 53.8551L106.863 55.1611L106.911 55.1612L107.21 53.8573L108.337 49.4606L109.08 49.4628L107.413 55.8389L106.404 55.8359L104.864 51.679L104.363 50.1918L104.297 50.1916L103.845 51.676L102.423 55.8242Z" fill="#0D080B"/>
<path d="M133.236 55.9146L132.56 55.9126L132.576 50.1507L129.948 50.143L129.95 49.5239L135.874 49.5413L135.872 50.1604L133.253 50.1527L133.236 55.9146Z" fill="#0D080B"/>
<path d="M159.868 55.9926L159.192 55.9906L159.211 49.6097L163.992 49.6237L163.99 50.2428L159.885 50.2307L159.878 52.6688L163.84 52.6804L163.838 53.29L159.876 53.2783L159.868 55.9926Z" fill="#0D080B"/>
<path d="M190.132 56.1768C188.256 56.1713 187.383 55.2735 187.386 54.0544L187.386 53.9973L188.072 53.9993L188.072 54.1231C188.069 55.0374 188.639 55.5343 190.134 55.5387C191.411 55.5424 191.992 55.1918 191.995 54.468C191.997 53.7537 191.569 53.4953 190.636 53.3021L189.285 53.041C188.247 52.8379 187.42 52.3974 187.423 51.3403C187.425 50.4736 188.171 49.5996 189.999 49.6049C191.799 49.6102 192.597 50.5649 192.593 51.7268L192.593 51.784L191.907 51.782L191.908 51.6677C191.91 50.7439 191.34 50.247 189.95 50.2429C188.683 50.2392 188.111 50.5994 188.109 51.2946C188.107 52.0185 188.525 52.2387 189.467 52.4415L190.809 52.7121C191.951 52.9345 192.683 53.4224 192.68 54.4128C192.678 55.3271 191.904 56.182 190.132 56.1768Z" fill="#0D080B"/>
<path d="M16.6503 84.6443L16.6519 84.0955L19.0108 82.1075C19.3309 81.8356 19.5921 81.5883 19.7942 81.3657C19.9995 81.1431 20.1505 80.9172 20.2473 80.6881C20.3441 80.459 20.3929 80.2033 20.3937 79.9212C20.3946 79.6143 20.3411 79.3568 20.2332 79.1488C20.1284 78.9377 19.9754 78.7791 19.7742 78.6731C19.573 78.5671 19.3267 78.5137 19.0353 78.5128C18.7005 78.5118 18.429 78.5777 18.2209 78.7104C18.0159 78.84 17.8619 79.0163 17.759 79.2392C17.6591 79.4621 17.5995 79.7131 17.58 79.992L16.688 79.715C16.7075 79.4175 16.8153 79.1248 17.0114 78.8371C17.2107 78.5493 17.4827 78.3114 17.8273 78.1233C18.172 77.9352 18.5738 77.8418 19.0326 77.8432C19.293 77.8439 19.5549 77.8819 19.8182 77.9571C20.0815 78.0323 20.3229 78.1523 20.5426 78.3173C20.7653 78.4792 20.9429 78.692 21.0755 78.9559C21.2111 79.2168 21.2784 79.5332 21.2773 79.9052C21.2757 80.4353 21.1302 80.9092 20.8407 81.3269C20.5511 81.7415 20.1469 82.1573 19.6279 82.5743L17.8053 84.0431L17.2151 83.9298L21.3957 83.942L21.3936 84.6582L16.6503 84.6443ZM25.0763 84.7806C24.264 84.7782 23.648 84.4788 23.2281 83.8823C22.8113 83.2858 22.6044 82.4745 22.6074 81.4484C22.6089 80.9461 22.6614 80.4781 22.765 80.0444C22.8686 79.6076 23.0247 79.2267 23.2334 78.9018C23.4452 78.5738 23.7094 78.3188 24.0262 78.1368C24.3429 77.9518 24.7152 77.8598 25.1431 77.8611C25.5833 77.8624 25.9643 77.955 26.2862 78.1388C26.6112 78.3196 26.8663 78.5466 27.0515 78.82C27.2367 79.0934 27.3444 79.3712 27.3746 79.6534L26.523 79.8694C26.5055 79.4695 26.3763 79.1467 26.1352 78.901C25.8972 78.6554 25.5705 78.532 25.155 78.5308C24.8419 78.5299 24.5813 78.5973 24.3732 78.7331C24.1651 78.8689 23.9972 79.0482 23.8694 79.2711C23.7447 79.4939 23.6495 79.7385 23.5836 80.005C23.5208 80.2683 23.4782 80.5301 23.4557 80.7905C23.4363 81.0509 23.4264 81.2849 23.4257 81.4926L23.3516 81.418C23.4827 81.1146 23.6989 80.8455 24.0003 80.6107C24.3048 80.376 24.7004 80.2594 25.1872 80.2608C25.5778 80.2619 25.9372 80.3513 26.2653 80.529C26.5965 80.7036 26.8608 80.9601 27.0582 81.2986C27.2556 81.6341 27.3536 82.0436 27.3522 82.5272C27.3509 82.986 27.2552 83.3857 27.065 83.7261C26.8749 84.0635 26.6091 84.3247 26.2675 84.5097C25.926 84.6916 25.5289 84.7819 25.0763 84.7806ZM25.0782 84.1109C25.534 84.1123 25.8862 83.9707 26.1351 83.6862C26.3871 83.3986 26.5138 83.0068 26.5152 82.5108C26.5167 82.0117 26.3938 81.6238 26.1466 81.3471C25.8994 81.0705 25.5557 80.9315 25.1155 80.9302C24.6628 80.9289 24.2966 81.072 24.0167 81.3595C23.74 81.6439 23.6009 82.0341 23.5994 82.5301C23.598 83.0138 23.7302 83.3986 23.996 83.6846C24.2648 83.9675 24.6256 84.1096 25.0782 84.1109Z" fill="#A7B2C0"/>
<path d="M45.5982 84.7291L45.5998 84.1804L47.9587 82.1923C48.2788 81.9204 48.54 81.6732 48.7421 81.4505C48.9474 81.2279 49.0984 81.0021 49.1952 80.7729C49.292 80.5438 49.3408 80.2882 49.3416 80.0061C49.3425 79.6991 49.289 79.4417 49.1811 79.2336C49.0763 79.0225 48.9233 78.8639 48.7221 78.758C48.5209 78.652 48.2746 78.5985 47.9832 78.5977C47.6484 78.5967 47.3769 78.6626 47.1688 78.7953C46.9638 78.9249 46.8098 79.1011 46.7069 79.324C46.607 79.547 46.5474 79.7979 46.528 80.0769L45.6359 79.7999C45.6554 79.5023 45.7632 79.2097 45.9594 78.9219C46.1586 78.6342 46.4306 78.3963 46.7753 78.2082C47.1199 78.0201 47.5217 77.9267 47.9805 77.928C48.2409 77.9288 48.5028 77.9668 48.7661 78.0419C49.0294 78.1171 49.2708 78.2372 49.4905 78.4021C49.7132 78.564 49.8908 78.7769 50.0234 79.0408C50.159 79.3016 50.2263 79.618 50.2252 79.99C50.2237 80.5202 50.0781 80.9941 49.7886 81.4118C49.499 81.8263 49.0948 82.2421 48.5758 82.6591L46.7532 84.1279L46.163 84.0146L50.3436 84.0269L50.3415 84.743L45.5982 84.7291ZM52.0993 84.7482C52.3476 83.5956 52.7072 82.5379 53.1782 81.5752C53.6491 80.6093 54.2316 79.6763 54.9256 78.7761L51.2054 78.7652L51.2075 78.0491L55.7554 78.0624L55.7536 78.6902C55.436 79.1636 55.1354 79.6386 54.8519 80.1152C54.5715 80.5918 54.3143 81.0778 54.0803 81.5732C53.8495 82.0654 53.6496 82.5748 53.4806 83.1014C53.3117 83.6279 53.1798 84.1778 53.0851 84.7511L52.0993 84.7482Z" fill="#A7B2C0"/>
<path d="M73.8999 84.812L73.9015 84.2633L76.2604 82.2752C76.5806 82.0034 76.8417 81.7561 77.0439 81.5335C77.2491 81.3109 77.4002 81.085 77.4969 80.8559C77.5937 80.6267 77.6425 80.3711 77.6433 80.089C77.6442 79.7821 77.5907 79.5246 77.4828 79.3166C77.3781 79.1055 77.2251 78.9469 77.0239 78.8409C76.8227 78.7349 76.5763 78.6815 76.2849 78.6806C75.9501 78.6796 75.6786 78.7455 75.4705 78.8782C75.2655 79.0078 75.1116 79.1841 75.0086 79.407C74.9087 79.6299 74.8491 79.8808 74.8297 80.1598L73.9376 79.8828C73.9571 79.5853 74.0649 79.2926 74.2611 79.0049C74.4603 78.7171 74.7323 78.4792 75.077 78.2911C75.4217 78.103 75.8234 78.0096 76.2822 78.011C76.5427 78.0117 76.8045 78.0497 77.0678 78.1249C77.3311 78.2001 77.5726 78.3201 77.7922 78.4851C78.0149 78.6469 78.1926 78.8598 78.3251 79.1237C78.4608 79.3846 78.528 79.701 78.5269 80.073C78.5254 80.6031 78.3798 81.077 78.0903 81.4947C77.8008 81.9093 77.3965 82.3251 76.8776 82.7421L75.055 84.2109L74.4647 84.0976L78.6453 84.1098L78.6432 84.826L73.8999 84.812ZM82.0748 84.9476C81.616 84.9463 81.2085 84.8614 80.8525 84.6929C80.4996 84.5214 80.2228 84.2834 80.0222 83.979C79.8247 83.6746 79.7265 83.324 79.7277 82.9272C79.7289 82.5024 79.8571 82.123 80.1123 81.789C80.3675 81.4518 80.7402 81.239 81.2303 81.1505C80.9731 81.0877 80.7487 80.9894 80.5568 80.8556C80.365 80.7217 80.2167 80.5585 80.1118 80.366C80.0101 80.1704 79.9596 79.9532 79.9603 79.7145C79.9612 79.389 80.052 79.0994 80.2326 78.8457C80.4162 78.5889 80.6679 78.3881 80.9877 78.2433C81.3105 78.0986 81.6812 78.0268 82.0997 78.028C82.5214 78.0293 82.8901 78.1032 83.2059 78.2498C83.5248 78.3965 83.7737 78.5987 83.9528 78.8566C84.1318 79.1113 84.2209 79.4014 84.2199 79.727C84.2192 79.9657 84.1659 80.1825 84.0599 80.3775C83.9571 80.5695 83.8109 80.7318 83.6214 80.8645C83.4319 80.9973 83.2084 81.0943 82.9509 81.1555C83.4404 81.2469 83.8118 81.4619 84.0651 81.8006C84.3183 82.1361 84.4443 82.5163 84.443 82.941C84.4419 83.3378 84.3401 83.6878 84.1377 83.9911C83.9353 84.2943 83.6556 84.5306 83.2986 84.7001C82.9446 84.8665 82.5367 84.949 82.0748 84.9476ZM82.0816 84.2129C82.5435 84.2143 82.9081 84.096 83.1755 83.858C83.4428 83.6201 83.577 83.2934 83.5783 82.878C83.5795 82.4719 83.4471 82.1475 83.1812 81.9049C82.9153 81.6592 82.5514 81.5357 82.0895 81.5343C81.6306 81.533 81.2644 81.6544 80.9909 81.8985C80.7205 82.1395 80.5847 82.4631 80.5835 82.8692C80.5823 83.2877 80.7162 83.6168 80.9852 83.8563C81.2573 84.0927 81.6228 84.2116 82.0816 84.2129ZM82.0915 80.8461C82.4914 80.8473 82.8063 80.7567 83.0363 80.5745C83.2662 80.3923 83.3817 80.1384 83.3826 79.8129C83.3836 79.4749 83.2697 79.2064 83.0409 79.0074C82.8121 78.8052 82.4977 78.7035 82.0978 78.7023C81.6978 78.7012 81.3813 78.801 81.1482 79.0018C80.9151 79.1995 80.7981 79.4674 80.7971 79.8053C80.7961 80.1308 80.9116 80.3854 81.1436 80.569C81.3756 80.7525 81.6915 80.8449 82.0915 80.8461Z" fill="#A7B2C0"/>
<path d="M102.322 84.8956L102.324 84.3469L104.683 82.3588C105.003 82.0869 105.264 81.8397 105.466 81.617C105.672 81.3944 105.823 81.1686 105.919 80.9394C106.016 80.7103 106.065 80.4547 106.066 80.1726C106.067 79.8656 106.013 79.6082 105.905 79.4001C105.8 79.189 105.647 79.0304 105.446 78.9245C105.245 78.8185 104.999 78.765 104.707 78.7642C104.372 78.7632 104.101 78.8291 103.893 78.9617C103.688 79.0914 103.534 79.2676 103.431 79.4905C103.331 79.7135 103.271 79.9644 103.252 80.2434L102.36 79.9664C102.379 79.6688 102.487 79.3762 102.683 79.0884C102.883 78.8007 103.155 78.5628 103.499 78.3747C103.844 78.1866 104.246 78.0932 104.705 78.0945C104.965 78.0953 105.227 78.1333 105.49 78.2084C105.753 78.2836 105.995 78.4037 106.215 78.5686C106.437 78.7305 106.615 78.9434 106.747 79.2073C106.883 79.4681 106.95 79.7845 106.949 80.1565C106.948 80.6867 106.802 81.1606 106.513 81.5783C106.223 81.9928 105.819 82.4086 105.3 82.8256L103.477 84.2944L102.887 84.1811L107.068 84.1934L107.066 84.9095L102.322 84.8956ZM110.637 85.0316C110.181 85.0303 109.791 84.9392 109.466 84.7584C109.144 84.5746 108.892 84.346 108.71 84.0726C108.531 83.7993 108.426 83.5231 108.396 83.2439L109.247 83.0232C109.265 83.4294 109.386 83.7537 109.612 83.9962C109.838 84.2387 110.181 84.3606 110.643 84.362C110.947 84.3629 111.198 84.2954 111.397 84.1596C111.596 84.0237 111.753 83.8444 111.869 83.6215C111.987 83.3986 112.074 83.1555 112.131 82.8922C112.188 82.6257 112.226 82.3623 112.245 82.102C112.264 81.8416 112.276 81.6076 112.28 81.3999L112.354 81.5303C112.223 81.8306 112.005 82.0997 111.7 82.3375C111.399 82.5723 111.008 82.6889 110.527 82.6875C110.134 82.6864 109.771 82.5954 109.44 82.4146C109.112 82.2307 108.848 81.968 108.647 81.6264C108.45 81.2848 108.352 80.8737 108.353 80.3932C108.354 79.925 108.453 79.5208 108.65 79.1803C108.849 78.8368 109.124 78.5725 109.475 78.3875C109.826 78.2025 110.229 78.1107 110.685 78.1121C111.141 78.1134 111.523 78.2044 111.833 78.3851C112.142 78.5628 112.389 78.81 112.575 79.1267C112.763 79.4404 112.897 79.802 112.976 80.2114C113.058 80.6209 113.099 81.0566 113.098 81.5185C113.096 81.9804 113.05 82.4221 112.959 82.8434C112.871 83.2648 112.729 83.6411 112.532 83.9722C112.339 84.3003 112.086 84.56 111.772 84.7512C111.462 84.9395 111.083 85.0329 110.637 85.0316ZM110.632 82.0182C111.084 82.0195 111.449 81.8718 111.726 81.5749C112.002 81.2781 112.142 80.8724 112.143 80.3578C112.145 79.8711 112.015 79.4878 111.756 79.208C111.499 78.9252 111.145 78.7831 110.692 78.7817C110.233 78.7804 109.875 78.925 109.617 79.2157C109.359 79.5033 109.229 79.8997 109.227 80.405C109.226 80.9011 109.349 81.2936 109.596 81.5827C109.846 81.8717 110.191 82.0169 110.632 82.0182Z" fill="#A7B2C0"/>
<path d="M133.205 85.0977C132.789 85.0965 132.405 85.0148 132.052 84.8525C131.702 84.6903 131.415 84.4554 131.189 84.1478C130.964 83.8371 130.832 83.4585 130.793 83.012L131.64 82.7494C131.672 83.2486 131.823 83.6536 132.092 83.9644C132.361 84.2721 132.728 84.4267 133.193 84.428C133.611 84.4293 133.959 84.3094 134.235 84.0684C134.515 83.8243 134.656 83.4728 134.657 83.014C134.658 82.8342 134.619 82.6434 134.542 82.4417C134.469 82.2368 134.334 82.0628 134.139 81.9196C133.944 81.7765 133.667 81.7043 133.308 81.7033L132.387 81.7006L132.389 80.9938L133.235 80.9962C133.629 80.9974 133.93 80.8944 134.138 80.6873C134.35 80.4771 134.456 80.2403 134.457 79.9767C134.458 79.6667 134.35 79.4013 134.133 79.1806C133.917 78.9598 133.61 78.8489 133.214 78.8477C132.724 78.8463 132.364 78.9847 132.134 79.2631C131.906 79.5414 131.775 79.9286 131.74 80.4245L130.894 80.157C130.914 79.8377 131.021 79.5264 131.218 79.2232C131.414 78.9199 131.684 78.6696 132.029 78.4722C132.374 78.2748 132.778 78.1768 133.244 78.1782C133.625 78.1793 133.97 78.2547 134.28 78.4044C134.593 78.5541 134.84 78.7595 135.022 79.0204C135.204 79.2783 135.295 79.5762 135.294 79.9141C135.293 80.1373 135.246 80.3433 135.153 80.5322C135.059 80.7179 134.919 80.8772 134.733 81.0099C134.546 81.1427 134.31 81.2412 134.025 81.3055C134.496 81.3906 134.866 81.5916 135.135 81.9086C135.406 82.2225 135.542 82.5857 135.541 82.998C135.54 83.37 135.472 83.6891 135.338 83.9554C135.207 84.2216 135.029 84.4396 134.806 84.6095C134.582 84.7762 134.332 84.8995 134.056 84.9793C133.78 85.0591 133.496 85.0986 133.205 85.0977ZM139.338 85.1157C138.563 85.1134 137.963 84.8094 137.537 84.2036C137.111 83.5947 136.899 82.7431 136.902 81.6487C136.906 80.5544 137.122 79.7055 137.552 79.1023C137.981 78.4959 138.584 78.1938 139.359 78.1961C140.137 78.1984 140.737 78.504 141.16 79.1128C141.586 79.7186 141.798 80.5687 141.795 81.6631C141.791 82.7574 141.575 83.6078 141.145 84.2142C140.719 84.8175 140.116 85.118 139.338 85.1157ZM139.34 84.4461C139.855 84.4476 140.245 84.2116 140.51 83.738C140.775 83.2644 140.908 82.5719 140.911 81.6605C140.914 80.749 140.784 80.0558 140.522 79.5807C140.26 79.1056 139.871 78.8672 139.357 78.8657C138.842 78.8642 138.452 79.1003 138.187 79.5738C137.922 80.0474 137.789 80.7399 137.786 81.6513C137.783 82.5628 137.913 83.2561 138.175 83.7312C138.437 84.2063 138.826 84.4446 139.34 84.4461Z" fill="#A7B2C0"/>
<path d="M163.148 85.1855C162.732 85.1843 162.348 85.1025 161.995 84.9403C161.645 84.778 161.358 84.5431 161.132 84.2356C160.907 83.9249 160.775 83.5463 160.736 83.0997L161.583 82.8371C161.615 83.3364 161.766 83.7414 162.035 84.0522C162.304 84.3599 162.671 84.5144 163.136 84.5158C163.554 84.517 163.902 84.3971 164.178 84.1561C164.458 83.912 164.599 83.5606 164.6 83.1017C164.601 82.9219 164.562 82.7312 164.485 82.5294C164.412 82.3246 164.277 82.1506 164.082 82.0074C163.888 81.8642 163.61 81.7921 163.251 81.7911L162.33 81.7884L162.332 81.0815L163.178 81.084C163.572 81.0851 163.873 80.9822 164.081 80.7751C164.293 80.5649 164.399 80.328 164.4 80.0645C164.401 79.7545 164.293 79.4891 164.076 79.2684C163.86 79.0476 163.554 78.9366 163.157 78.9355C162.667 78.934 162.307 79.0725 162.077 79.3508C161.849 79.6292 161.718 80.0163 161.683 80.5123L160.837 80.2447C160.857 79.9255 160.964 79.6142 161.161 79.311C161.357 79.0077 161.627 78.7574 161.972 78.56C162.317 78.3626 162.722 78.2646 163.187 78.2659C163.568 78.267 163.913 78.3425 164.223 78.4922C164.536 78.6419 164.783 78.8472 164.965 79.1082C165.147 79.3661 165.238 79.6639 165.237 80.0019C165.236 80.2251 165.189 80.4311 165.096 80.6199C165.002 80.8057 164.862 80.9649 164.676 81.0977C164.489 81.2304 164.253 81.329 163.968 81.3932C164.439 81.4783 164.809 81.6794 165.078 81.9964C165.349 82.3103 165.485 82.6734 165.484 83.0857C165.483 83.4578 165.415 83.7769 165.281 84.0431C165.15 84.3093 164.973 84.5274 164.749 84.6972C164.525 84.864 164.275 84.9873 163.999 85.0671C163.723 85.1469 163.439 85.1863 163.148 85.1855ZM167.863 85.0877L167.879 79.7538C167.633 79.9639 167.404 80.1415 167.189 80.2866C166.975 80.4286 166.736 80.5488 166.472 80.6472L166.474 79.8567C166.611 79.792 166.755 79.7118 166.908 79.6161C167.06 79.5174 167.232 79.3737 167.425 79.1852C167.621 78.9935 167.846 78.7291 168.102 78.3919L168.701 78.3937L168.682 85.0901L167.863 85.0877Z" fill="#A7B2C0"/>
<g clip-path="url(#clip5_883_770)">
<path d="M193.542 85.163L193.558 79.8291C193.312 80.0392 193.082 80.2168 192.868 80.3618C192.654 80.5038 192.415 80.624 192.151 80.7225L192.153 79.9319C192.29 79.8672 192.434 79.787 192.586 79.6914C192.738 79.5926 192.911 79.449 193.104 79.2604C193.3 79.0688 193.525 78.8044 193.78 78.4672L194.38 78.469L194.361 85.1654L193.542 85.163Z" fill="#0D080B"/>
</g>
<g clip-path="url(#clip6_883_770)">
<path d="M19.5799 113.224L19.5815 112.676L21.9404 110.688C22.2605 110.416 22.5216 110.168 22.7238 109.946C22.9291 109.723 23.0801 109.497 23.1769 109.268C23.2737 109.039 23.3225 108.783 23.3233 108.501C23.3242 108.194 23.2707 107.937 23.1628 107.729C23.058 107.518 22.905 107.359 22.7038 107.253C22.5026 107.147 22.2563 107.094 21.9649 107.093C21.6301 107.092 21.3586 107.158 21.1505 107.291C20.9455 107.42 20.7915 107.596 20.6886 107.819C20.5887 108.042 20.5291 108.293 20.5096 108.572L19.6176 108.295C19.6371 107.998 19.7449 107.705 19.941 107.417C20.1403 107.129 20.4123 106.892 20.7569 106.703C21.1016 106.515 21.5034 106.422 21.9622 106.423C22.2226 106.424 22.4845 106.462 22.7478 106.537C23.0111 106.612 23.2525 106.732 23.4722 106.897C23.6949 107.059 23.8725 107.272 24.0051 107.536C24.1407 107.797 24.208 108.113 24.2069 108.485C24.2053 109.015 24.0598 109.489 23.7702 109.907C23.4807 110.322 23.0765 110.737 22.5575 111.154L20.7349 112.623L20.1447 112.51L24.3253 112.522L24.3232 113.238L19.5799 113.224Z" fill="#0D080B"/>
</g>
<g clip-path="url(#clip7_883_770)">
<path d="M50.5643 113.427C50.1489 113.426 49.7647 113.344 49.4117 113.182C49.0619 113.019 48.7742 112.784 48.5488 112.477C48.3234 112.166 48.1912 111.788 48.1522 111.341L48.9994 111.078C49.032 111.578 49.1827 111.983 49.4515 112.294C49.7203 112.601 50.0873 112.756 50.5523 112.757C50.9708 112.758 51.3184 112.638 51.595 112.397C51.8748 112.153 52.0153 111.802 52.0166 111.343C52.0172 111.163 51.979 110.972 51.9021 110.771C51.8283 110.566 51.6939 110.392 51.499 110.249C51.3041 110.106 51.0269 110.033 50.6672 110.032L49.7465 110.03L49.7486 109.323L50.5949 109.325C50.9886 109.326 51.2897 109.223 51.498 109.016C51.7094 108.806 51.8155 108.569 51.8163 108.306C51.8172 107.996 51.7095 107.73 51.4931 107.51C51.2767 107.289 50.9701 107.178 50.5733 107.177C50.0835 107.175 49.7235 107.314 49.4932 107.592C49.2661 107.871 49.1347 108.258 49.0992 108.754L48.2536 108.486C48.2732 108.167 48.381 107.856 48.5772 107.552C48.7734 107.249 49.0439 106.999 49.3886 106.801C49.7333 106.604 50.1382 106.506 50.6032 106.507C50.9845 106.508 51.33 106.584 51.6395 106.733C51.9522 106.883 52.1996 107.089 52.3818 107.35C52.5639 107.607 52.6545 107.905 52.6535 108.243C52.6529 108.466 52.6058 108.672 52.5122 108.861C52.4187 109.047 52.2787 109.206 52.0923 109.339C51.9059 109.472 51.67 109.57 51.3846 109.635C51.8555 109.72 52.2254 109.921 52.4942 110.238C52.7661 110.552 52.9015 110.915 52.9003 111.327C52.8992 111.699 52.8316 112.018 52.6975 112.284C52.5665 112.551 52.3891 112.769 52.1654 112.939C51.9417 113.105 51.6918 113.229 51.4156 113.308C51.1395 113.388 50.8557 113.428 50.5643 113.427Z" fill="#0D080B"/>
</g>
<g clip-path="url(#clip8_883_770)">
<path d="M80.0289 113.402L80.0354 111.188L80.0447 111.188L80.0563 107.226L80.2596 107.673L77.2824 111.189L77.0041 110.947L81.6358 110.96L81.6337 111.676L76.63 111.662L76.6323 110.862L80.1741 106.706L80.867 106.708L80.8474 113.404L80.0289 113.402Z" fill="#0D080B"/>
</g>
<g clip-path="url(#clip9_883_770)">
<path d="M107.73 113.595C107.343 113.593 106.972 113.513 106.619 113.354C106.267 113.192 105.971 112.957 105.733 112.649C105.499 112.339 105.362 111.96 105.323 111.513L106.17 111.251C106.203 111.722 106.344 112.119 106.594 112.443C106.848 112.763 107.218 112.923 107.704 112.925C108.005 112.926 108.269 112.855 108.495 112.713C108.725 112.568 108.906 112.369 109.037 112.115C109.168 111.861 109.234 111.57 109.234 111.241C109.236 110.742 109.093 110.359 108.805 110.091C108.521 109.824 108.166 109.69 107.742 109.688C107.367 109.687 107.072 109.781 106.857 109.969C106.646 110.155 106.49 110.364 106.39 110.596L105.581 110.51L105.862 106.781L109.694 106.792L109.692 107.508L106.553 107.499L106.369 110.028L106.141 110.009C106.309 109.724 106.542 109.485 106.841 109.29C107.139 109.096 107.502 108.999 107.93 109.001C108.339 109.002 108.706 109.096 109.031 109.283C109.356 109.47 109.612 109.729 109.801 110.062C109.989 110.394 110.082 110.779 110.081 111.216C110.079 111.7 109.97 112.121 109.752 112.48C109.534 112.836 109.246 113.111 108.889 113.305C108.532 113.499 108.146 113.596 107.73 113.595Z" fill="#0D080B"/>
</g>
<g clip-path="url(#clip10_883_770)">
<path d="M136.371 113.679C135.559 113.676 134.943 113.377 134.523 112.78C134.106 112.184 133.9 111.372 133.903 110.346C133.904 109.844 133.957 109.376 134.06 108.942C134.164 108.506 134.32 108.125 134.529 107.8C134.74 107.472 135.005 107.217 135.321 107.035C135.638 106.85 136.01 106.758 136.438 106.759C136.878 106.76 137.259 106.853 137.581 107.037C137.906 107.218 138.161 107.445 138.347 107.718C138.532 107.991 138.64 108.269 138.67 108.551L137.818 108.767C137.801 108.367 137.671 108.045 137.43 107.799C137.192 107.553 136.866 107.43 136.45 107.429C136.137 107.428 135.876 107.495 135.668 107.631C135.46 107.767 135.292 107.946 135.165 108.169C135.04 108.392 134.945 108.637 134.879 108.903C134.816 109.166 134.773 109.428 134.751 109.688C134.731 109.949 134.721 110.183 134.721 110.391L134.647 110.316C134.778 110.013 134.994 109.743 135.295 109.509C135.6 109.274 135.996 109.157 136.482 109.159C136.873 109.16 137.232 109.249 137.56 109.427C137.892 109.602 138.156 109.858 138.353 110.197C138.551 110.532 138.649 110.942 138.647 111.425C138.646 111.884 138.55 112.284 138.36 112.624C138.17 112.961 137.904 113.223 137.563 113.408C137.221 113.59 136.824 113.68 136.371 113.679ZM136.373 113.009C136.829 113.01 137.181 112.869 137.43 112.584C137.682 112.297 137.809 111.905 137.81 111.409C137.812 110.91 137.689 110.522 137.442 110.245C137.195 109.968 136.851 109.829 136.411 109.828C135.958 109.827 135.592 109.97 135.312 110.257C135.035 110.542 134.896 110.932 134.895 111.428C134.893 111.912 135.025 112.297 135.291 112.583C135.56 112.865 135.921 113.008 136.373 113.009Z" fill="#0D080B"/>
</g>
<g clip-path="url(#clip11_883_770)">
<path d="M163.469 113.646C163.717 112.494 164.077 111.436 164.548 110.473C165.019 109.507 165.601 108.574 166.295 107.674L162.575 107.663L162.577 106.947L167.125 106.961L167.123 107.588C166.805 108.062 166.505 108.537 166.221 109.013C165.941 109.49 165.684 109.976 165.45 110.471C165.219 110.964 165.019 111.473 164.85 112C164.681 112.526 164.549 113.076 164.455 113.649L163.469 113.646Z" fill="#0D080B"/>
</g>
<g clip-path="url(#clip12_883_770)">
<path d="M193.402 113.846C192.943 113.844 192.536 113.759 192.18 113.591C191.827 113.419 191.55 113.181 191.35 112.877C191.152 112.573 191.054 112.222 191.055 111.825C191.056 111.4 191.185 111.021 191.44 110.687C191.695 110.35 192.068 110.137 192.558 110.049C192.301 109.986 192.076 109.887 191.884 109.754C191.692 109.62 191.544 109.457 191.439 109.264C191.337 109.068 191.287 108.851 191.288 108.613C191.289 108.287 191.379 107.997 191.56 107.744C191.744 107.487 191.995 107.286 192.315 107.141C192.638 106.997 193.009 106.925 193.427 106.926C193.849 106.927 194.217 107.001 194.533 107.148C194.852 107.295 195.101 107.497 195.28 107.755C195.459 108.009 195.548 108.3 195.547 108.625C195.547 108.864 195.493 109.081 195.387 109.276C195.284 109.468 195.138 109.63 194.949 109.763C194.759 109.895 194.536 109.992 194.278 110.054C194.768 110.145 195.139 110.36 195.392 110.699C195.646 111.034 195.772 111.414 195.77 111.839C195.769 112.236 195.667 112.586 195.465 112.889C195.263 113.192 194.983 113.429 194.626 113.598C194.272 113.765 193.864 113.847 193.402 113.846ZM193.409 113.111C193.871 113.112 194.236 112.994 194.503 112.756C194.77 112.518 194.904 112.191 194.906 111.776C194.907 111.37 194.774 111.046 194.509 110.803C194.243 110.557 193.879 110.434 193.417 110.432C192.958 110.431 192.592 110.552 192.318 110.797C192.048 111.038 191.912 111.361 191.911 111.767C191.91 112.186 192.044 112.515 192.313 112.754C192.585 112.991 192.95 113.11 193.409 113.111ZM193.419 109.744C193.819 109.745 194.134 109.655 194.364 109.473C194.594 109.29 194.709 109.036 194.71 108.711C194.711 108.373 194.597 108.105 194.368 107.905C194.139 107.703 193.825 107.602 193.425 107.6C193.025 107.599 192.709 107.699 192.476 107.9C192.243 108.098 192.125 108.365 192.124 108.703C192.124 109.029 192.239 109.283 192.471 109.467C192.703 109.651 193.019 109.743 193.419 109.744Z" fill="#0D080B"/>
</g>
<g clip-path="url(#clip13_883_770)">
<path d="M21.8023 141.914C21.3466 141.913 20.9562 141.822 20.6312 141.641C20.3093 141.457 20.0573 141.228 19.8752 140.955C19.6962 140.682 19.5916 140.405 19.5614 140.126L20.4131 139.906C20.4305 140.312 20.552 140.636 20.7776 140.879C21.0032 141.121 21.347 141.243 21.8089 141.244C22.1127 141.245 22.3641 141.178 22.5629 141.042C22.7617 140.906 22.9188 140.727 23.0341 140.504C23.1526 140.281 23.2401 140.038 23.2967 139.775C23.3533 139.508 23.3912 139.245 23.4106 138.984C23.43 138.724 23.4415 138.49 23.4452 138.282L23.5192 138.413C23.3882 138.713 23.1703 138.982 22.8658 139.22C22.5644 139.455 22.1735 139.571 21.6929 139.57C21.2992 139.569 20.9367 139.478 20.6056 139.297C20.2775 139.113 20.0132 138.85 19.8127 138.509C19.6152 138.167 19.5172 137.756 19.5187 137.276C19.52 136.807 19.6189 136.403 19.8152 136.063C20.0146 135.719 20.2897 135.455 20.6406 135.27C20.9915 135.085 21.3948 134.993 21.8505 134.995C22.3062 134.996 22.6888 135.087 22.9983 135.268C23.3078 135.445 23.5551 135.692 23.7402 136.009C23.9284 136.323 24.0622 136.684 24.1416 137.094C24.2241 137.503 24.2647 137.939 24.2633 138.401C24.262 138.863 24.2157 139.305 24.1246 139.726C24.0365 140.147 23.8944 140.524 23.6981 140.855C23.5049 141.183 23.2515 141.442 22.9378 141.634C22.6272 141.822 22.2487 141.915 21.8023 141.914ZM21.7972 138.901C22.2498 138.902 22.6145 138.754 22.8913 138.457C23.1681 138.161 23.3073 137.755 23.3088 137.24C23.3102 136.754 23.1811 136.37 22.9215 136.09C22.665 135.808 22.3105 135.665 21.8578 135.664C21.399 135.663 21.0405 135.807 20.7823 136.098C20.5242 136.386 20.3944 136.782 20.3929 137.287C20.3914 137.784 20.5143 138.176 20.7615 138.465C21.0117 138.754 21.357 138.899 21.7972 138.901Z" fill="#0D080B"/>
</g>
<g clip-path="url(#clip14_883_770)">
<path d="M47.4581 141.878L47.4738 136.544C47.2283 136.754 46.9983 136.931 46.784 137.077C46.5696 137.218 46.3306 137.339 46.0668 137.437L46.0691 136.647C46.2057 136.582 46.3501 136.502 46.5023 136.406C46.6545 136.307 46.827 136.164 47.0197 135.975C47.2156 135.783 47.4411 135.519 47.6963 135.182L48.2962 135.184L48.2766 141.88L47.4581 141.878ZM52.2523 142.003C51.4772 142.001 50.8767 141.697 50.4506 141.091C50.0246 140.482 49.8131 139.631 49.8164 138.536C49.8196 137.442 50.036 136.593 50.4656 135.99C50.8952 135.383 51.4975 135.081 52.2725 135.084C53.0507 135.086 53.6512 135.392 54.0742 136C54.5002 136.606 54.7117 137.456 54.7084 138.551C54.7052 139.645 54.4888 140.495 54.0592 141.102C53.6327 141.705 53.0304 142.006 52.2523 142.003ZM52.2542 141.334C52.7688 141.335 53.1586 141.099 53.4235 140.626C53.6884 140.152 53.8222 139.46 53.8249 138.548C53.8276 137.637 53.6978 136.943 53.4357 136.468C53.1736 135.993 52.7852 135.755 52.2706 135.753C51.756 135.752 51.3662 135.988 51.1013 136.461C50.8364 136.935 50.7026 137.627 50.6999 138.539C50.6972 139.45 50.827 140.144 51.0891 140.619C51.3512 141.094 51.7396 141.332 52.2542 141.334Z" fill="#0D080B"/>
</g>
<g clip-path="url(#clip15_883_770)">
<path d="M77.3038 141.965L77.3194 136.631C77.0739 136.841 76.8439 137.019 76.6296 137.164C76.4153 137.306 76.1762 137.426 75.9124 137.525L75.9147 136.734C76.0513 136.669 76.1957 136.589 76.3479 136.494C76.5001 136.395 76.6726 136.251 76.8653 136.063C77.0612 135.871 77.2868 135.607 77.542 135.269L78.1418 135.271L78.1222 141.967L77.3038 141.965ZM80.8752 141.976L80.8908 136.642C80.6453 136.852 80.4153 137.029 80.201 137.174C79.9867 137.316 79.7476 137.437 79.4838 137.535L79.4861 136.745C79.6227 136.68 79.7671 136.6 79.9193 136.504C80.0715 136.405 80.244 136.262 80.4368 136.073C80.6326 135.881 80.8582 135.617 81.1134 135.28L81.7133 135.282L81.6936 141.978L80.8752 141.976Z" fill="#0D080B"/>
</g>
<g clip-path="url(#clip16_883_770)">
<path d="M104.773 142.046L104.788 136.712C104.543 136.922 104.313 137.1 104.099 137.245C103.884 137.387 103.645 137.507 103.381 137.605L103.384 136.815C103.52 136.75 103.665 136.67 103.817 136.574C103.969 136.476 104.142 136.332 104.334 136.143C104.53 135.952 104.756 135.687 105.011 135.35L105.611 135.352L105.591 142.048L104.773 142.046ZM107.01 142.052L107.011 141.504L109.37 139.516C109.69 139.244 109.951 138.996 110.154 138.774C110.359 138.551 110.51 138.325 110.607 138.096C110.703 137.867 110.752 137.611 110.753 137.329C110.754 137.022 110.7 136.765 110.593 136.557C110.488 136.346 110.335 136.187 110.134 136.081C109.932 135.975 109.686 135.922 109.395 135.921C109.06 135.92 108.788 135.986 108.58 136.119C108.375 136.248 108.221 136.424 108.118 136.647C108.018 136.87 107.959 137.121 107.939 137.4L107.047 137.123C107.067 136.826 107.175 136.533 107.371 136.245C107.57 135.957 107.842 135.72 108.187 135.531C108.531 135.343 108.933 135.25 109.392 135.251C109.652 135.252 109.914 135.29 110.178 135.365C110.441 135.44 110.682 135.56 110.902 135.725C111.125 135.887 111.302 136.1 111.435 136.364C111.57 136.625 111.638 136.941 111.637 137.313C111.635 137.843 111.49 138.317 111.2 138.735C110.91 139.15 110.506 139.565 109.987 139.982L108.165 141.451L107.574 141.338L111.755 141.35L111.753 142.066L107.01 142.052Z" fill="#0D080B"/>
</g>
<g clip-path="url(#clip17_883_770)">
<path d="M133.34 142.13L133.355 136.796C133.11 137.006 132.88 137.183 132.665 137.328C132.451 137.47 132.212 137.591 131.948 137.689L131.951 136.899C132.087 136.834 132.232 136.754 132.384 136.658C132.536 136.559 132.708 136.416 132.901 136.227C133.097 136.035 133.323 135.771 133.578 135.434L134.178 135.436L134.158 142.132L133.34 142.13ZM137.98 142.255C137.565 142.254 137.181 142.172 136.828 142.01C136.478 141.847 136.19 141.612 135.965 141.305C135.739 140.994 135.607 140.616 135.568 140.169L136.415 139.906C136.448 140.406 136.599 140.811 136.868 141.122C137.136 141.429 137.503 141.584 137.968 141.585C138.387 141.586 138.734 141.466 139.011 141.225C139.291 140.981 139.431 140.63 139.433 140.171C139.433 139.991 139.395 139.8 139.318 139.599C139.244 139.394 139.11 139.22 138.915 139.077C138.72 138.934 138.443 138.861 138.083 138.86L137.162 138.858L137.165 138.151L138.011 138.153C138.405 138.154 138.706 138.051 138.914 137.844C139.125 137.634 139.232 137.397 139.232 137.134C139.233 136.824 139.125 136.558 138.909 136.338C138.693 136.117 138.386 136.006 137.989 136.005C137.499 136.003 137.139 136.142 136.909 136.42C136.682 136.699 136.551 137.086 136.515 137.582L135.67 137.314C135.689 136.995 135.797 136.684 135.993 136.38C136.189 136.077 136.46 135.827 136.805 135.629C137.149 135.432 137.554 135.334 138.019 135.335C138.401 135.336 138.746 135.412 139.056 135.561C139.368 135.711 139.616 135.917 139.798 136.178C139.98 136.435 140.071 136.733 140.07 137.071C140.069 137.294 140.022 137.5 139.928 137.689C139.835 137.875 139.695 138.034 139.508 138.167C139.322 138.3 139.086 138.398 138.801 138.463C139.272 138.548 139.641 138.749 139.91 139.066C140.182 139.38 140.317 139.743 140.316 140.155C140.315 140.527 140.248 140.846 140.113 141.112C139.982 141.379 139.805 141.597 139.581 141.767C139.358 141.933 139.108 142.057 138.832 142.136C138.555 142.216 138.272 142.256 137.98 142.255Z" fill="#0D080B"/>
</g>
<g clip-path="url(#clip18_883_770)">
<path d="M161.869 142.213L161.885 136.879C161.639 137.089 161.409 137.267 161.195 137.412C160.981 137.554 160.741 137.674 160.478 137.773L160.48 136.982C160.617 136.917 160.761 136.837 160.913 136.742C161.065 136.643 161.238 136.499 161.431 136.311C161.626 136.119 161.852 135.855 162.107 135.517L162.707 135.519L162.687 142.216L161.869 142.213ZM167.445 142.23L167.451 140.016L167.46 140.016L167.472 136.054L167.675 136.501L164.698 140.017L164.42 139.775L169.052 139.788L169.049 140.504L164.046 140.49L164.048 139.69L167.59 135.534L168.283 135.536L168.263 142.232L167.445 142.23Z" fill="#0D080B"/>
</g>
<g clip-path="url(#clip19_883_770)">
<path d="M190.422 142.297L190.437 136.963C190.192 137.173 189.962 137.351 189.747 137.496C189.533 137.638 189.294 137.758 189.03 137.856L189.033 137.066C189.169 137.001 189.314 136.921 189.466 136.825C189.618 136.727 189.79 136.583 189.983 136.394C190.179 136.203 190.405 135.938 190.66 135.601L191.26 135.603L191.24 142.299L190.422 142.297ZM195.188 142.422C194.8 142.421 194.43 142.341 194.077 142.182C193.724 142.02 193.429 141.785 193.191 141.477C192.956 141.167 192.819 140.788 192.78 140.341L193.628 140.079C193.66 140.55 193.802 140.947 194.052 141.271C194.305 141.591 194.675 141.751 195.162 141.753C195.463 141.754 195.726 141.683 195.953 141.541C196.183 141.396 196.363 141.197 196.494 140.943C196.625 140.689 196.691 140.398 196.692 140.069C196.694 139.57 196.551 139.187 196.263 138.919C195.979 138.652 195.624 138.517 195.199 138.516C194.824 138.515 194.529 138.609 194.315 138.797C194.104 138.983 193.948 139.192 193.848 139.424L193.039 139.338L193.32 135.609L197.152 135.62L197.149 136.336L194.011 136.327L193.826 138.856L193.599 138.837C193.767 138.552 194 138.313 194.298 138.118C194.596 137.924 194.959 137.827 195.387 137.829C195.797 137.83 196.164 137.924 196.489 138.111C196.814 138.298 197.07 138.557 197.258 138.89C197.446 139.222 197.54 139.607 197.539 140.044C197.537 140.527 197.427 140.949 197.209 141.308C196.991 141.664 196.704 141.939 196.347 142.133C195.989 142.327 195.603 142.424 195.188 142.422Z" fill="#0D080B"/>
</g>
<g clip-path="url(#clip20_883_770)">
<path d="M18.8822 170.365L18.8978 165.032C18.6523 165.242 18.4223 165.419 18.208 165.564C17.9937 165.706 17.7546 165.826 17.4908 165.925L17.4931 165.134C17.6297 165.07 17.7741 164.989 17.9263 164.894C18.0785 164.795 18.251 164.651 18.4438 164.463C18.6396 164.271 18.8652 164.007 19.1204 163.67L19.7203 163.671L19.7006 170.368L18.8822 170.365ZM23.7042 170.491C22.8919 170.489 22.2759 170.189 21.856 169.593C21.4392 168.996 21.2323 168.185 21.2353 167.159C21.2368 166.657 21.2893 166.189 21.3929 165.755C21.4965 165.318 21.6526 164.937 21.8613 164.612C22.0731 164.284 22.3373 164.029 22.6541 163.847C22.9709 163.662 23.3432 163.57 23.771 163.572C24.2112 163.573 24.5923 163.666 24.9141 163.849C25.2391 164.03 25.4942 164.257 25.6794 164.531C25.8647 164.804 25.9723 165.082 26.0025 165.364L25.1509 165.58C25.1335 165.18 25.0042 164.857 24.7631 164.612C24.5251 164.366 24.1984 164.243 23.783 164.241C23.4698 164.24 23.2092 164.308 23.0011 164.444C22.793 164.579 22.6251 164.759 22.4973 164.982C22.3726 165.204 22.2774 165.449 22.2115 165.716C22.1487 165.979 22.1061 166.241 22.0836 166.501C22.0643 166.761 22.0543 166.995 22.0537 167.203L21.9795 167.129C22.1106 166.825 22.3268 166.556 22.6282 166.321C22.9327 166.087 23.3284 165.97 23.8151 165.971C24.2057 165.973 24.5651 166.062 24.8932 166.24C25.2244 166.414 25.4887 166.671 25.6861 167.009C25.8836 167.345 25.9816 167.754 25.9801 168.238C25.9788 168.697 25.8831 169.096 25.693 169.437C25.5029 169.774 25.237 170.035 24.8955 170.22C24.5539 170.402 24.1568 170.492 23.7042 170.491ZM23.7061 169.822C24.1619 169.823 24.5142 169.681 24.763 169.397C25.015 169.109 25.1417 168.717 25.1431 168.221C25.1446 167.722 25.0217 167.334 24.7745 167.058C24.5273 166.781 24.1836 166.642 23.7434 166.641C23.2907 166.639 22.9245 166.783 22.6446 167.07C22.3679 167.354 22.2288 167.745 22.2273 168.241C22.2259 168.724 22.3581 169.109 22.6239 169.395C22.8928 169.678 23.2535 169.82 23.7061 169.822Z" fill="#0D080B"/>
</g>
<g clip-path="url(#clip21_883_770)">
<rect x="38.5221" y="155.518" width="23.8095" height="23.8095" rx="11.9048" transform="rotate(0.168029 38.5221 155.518)" fill="#A30162"/>
<path d="M47.7557 170.45L47.7713 165.116C47.5258 165.326 47.2958 165.504 47.0815 165.649C46.8672 165.791 46.6281 165.911 46.3643 166.01L46.3666 165.219C46.5032 165.154 46.6476 165.074 46.7998 164.978C46.952 164.88 47.1245 164.736 47.3172 164.547C47.5131 164.356 47.7387 164.091 47.9939 163.754L48.5938 163.756L48.5741 170.452L47.7557 170.45ZM50.8016 170.459C51.0499 169.306 51.4095 168.249 51.8805 167.286C52.3514 166.32 52.9339 165.387 53.6279 164.487L49.9077 164.476L49.9098 163.76L54.4578 163.773L54.4559 164.401C54.1383 164.874 53.8377 165.349 53.5542 165.826C53.2738 166.303 53.0166 166.789 52.7826 167.284C52.5518 167.776 52.3519 168.286 52.1829 168.812C52.014 169.339 51.8821 169.889 51.7875 170.462L50.8016 170.459Z" fill="white"/>
</g>
<g clip-path="url(#clip22_883_770)">
<path d="M76.0528 170.533L76.0684 165.199C75.8229 165.409 75.5929 165.587 75.3786 165.732C75.1643 165.874 74.9252 165.994 74.6614 166.092L74.6637 165.302C74.8003 165.237 74.9447 165.157 75.0969 165.061C75.2491 164.963 75.4216 164.819 75.6143 164.63C75.8102 164.439 76.0358 164.174 76.291 163.837L76.8908 163.839L76.8712 170.535L76.0528 170.533ZM80.7818 170.658C80.3229 170.657 79.9155 170.572 79.5595 170.404C79.2066 170.232 78.9298 169.994 78.7292 169.69C78.5316 169.385 78.4335 169.035 78.4346 168.638C78.4359 168.213 78.5641 167.834 78.8193 167.5C79.0745 167.163 79.4471 166.95 79.9372 166.861C79.6801 166.799 79.4556 166.7 79.2638 166.566C79.072 166.432 78.9237 166.269 78.8188 166.077C78.7171 165.881 78.6666 165.664 78.6673 165.425C78.6682 165.1 78.759 164.81 78.9395 164.556C79.1232 164.3 79.3749 164.099 79.6946 163.954C80.0175 163.809 80.3882 163.738 80.8067 163.739C81.2283 163.74 81.597 163.814 81.9128 163.961C82.2317 164.107 82.4807 164.31 82.6598 164.567C82.8388 164.822 82.9279 165.112 82.9269 165.438C82.9262 165.676 82.8729 165.893 82.7669 166.088C82.664 166.28 82.5178 166.443 82.3283 166.575C82.1388 166.708 81.9153 166.805 81.6578 166.866C82.1474 166.958 82.5188 167.173 82.772 167.511C83.0253 167.847 83.1513 168.227 83.15 168.652C83.1488 169.049 83.0471 169.399 82.8447 169.702C82.6423 170.005 82.3625 170.241 82.0055 170.411C81.6516 170.577 81.2437 170.66 80.7818 170.658ZM80.7886 169.924C81.2505 169.925 81.6151 169.807 81.8824 169.569C82.1497 169.331 82.284 169.004 82.2852 168.589C82.2864 168.183 82.1541 167.858 81.8882 167.616C81.6223 167.37 81.2583 167.247 80.7964 167.245C80.3376 167.244 79.9714 167.365 79.6979 167.609C79.4275 167.85 79.2916 168.174 79.2905 168.58C79.2892 168.999 79.4231 169.328 79.6921 169.567C79.9643 169.803 80.3297 169.922 80.7886 169.924ZM80.7984 166.557C81.1984 166.558 81.5133 166.468 81.7433 166.285C81.9732 166.103 82.0887 165.849 82.0896 165.524C82.0906 165.186 81.9767 164.917 81.7478 164.718C81.519 164.516 81.2047 164.414 80.8047 164.413C80.4048 164.412 80.0883 164.512 79.8552 164.713C79.6221 164.91 79.505 165.178 79.5041 165.516C79.5031 165.842 79.6186 166.096 79.8506 166.28C80.0826 166.463 80.3985 166.556 80.7984 166.557Z" fill="#0D080B"/>
</g>
<g clip-path="url(#clip23_883_770)">
<path d="M104.554 170.617L104.57 165.283C104.324 165.493 104.094 165.671 103.88 165.816C103.666 165.958 103.427 166.078 103.163 166.176L103.165 165.386C103.302 165.321 103.446 165.241 103.598 165.145C103.751 165.046 103.923 164.903 104.116 164.714C104.312 164.523 104.537 164.258 104.792 163.921L105.392 163.923L105.373 170.619L104.554 170.617ZM109.265 170.742C108.809 170.741 108.419 170.65 108.094 170.469C107.772 170.285 107.52 170.057 107.338 169.783C107.159 169.51 107.054 169.234 107.024 168.955L107.875 168.734C107.893 169.14 108.014 169.464 108.24 169.707C108.466 169.949 108.809 170.071 109.271 170.073C109.575 170.073 109.826 170.006 110.025 169.87C110.224 169.734 110.381 169.555 110.496 169.332C110.615 169.109 110.702 168.866 110.759 168.603C110.816 168.336 110.854 168.073 110.873 167.813C110.892 167.552 110.904 167.318 110.908 167.11L110.982 167.241C110.85 167.541 110.633 167.81 110.328 168.048C110.027 168.283 109.636 168.399 109.155 168.398C108.761 168.397 108.399 168.306 108.068 168.125C107.74 167.941 107.475 167.679 107.275 167.337C107.078 166.995 106.98 166.584 106.981 166.104C106.982 165.636 107.081 165.231 107.277 164.891C107.477 164.547 107.752 164.283 108.103 164.098C108.454 163.913 108.857 163.821 109.313 163.823C109.769 163.824 110.151 163.915 110.461 164.096C110.77 164.273 111.017 164.521 111.202 164.837C111.391 165.151 111.524 165.513 111.604 165.922C111.686 166.331 111.727 166.767 111.726 167.229C111.724 167.691 111.678 168.133 111.587 168.554C111.499 168.975 111.357 169.352 111.16 169.683C110.967 170.011 110.714 170.271 110.4 170.462C110.09 170.65 109.711 170.743 109.265 170.742ZM109.259 167.729C109.712 167.73 110.077 167.582 110.354 167.286C110.63 166.989 110.77 166.583 110.771 166.068C110.772 165.582 110.643 165.198 110.384 164.919C110.127 164.636 109.773 164.494 109.32 164.492C108.861 164.491 108.503 164.636 108.245 164.926C107.986 165.214 107.857 165.61 107.855 166.116C107.854 166.612 107.977 167.004 108.224 167.293C108.474 167.582 108.819 167.727 109.259 167.729Z" fill="#0D080B"/>
</g>
<g clip-path="url(#clip24_883_770)">
<path d="M130.605 170.693L130.607 170.144L132.966 168.156C133.286 167.884 133.547 167.637 133.749 167.415C133.954 167.192 134.105 166.966 134.202 166.737C134.299 166.508 134.348 166.252 134.349 165.97C134.35 165.663 134.296 165.406 134.188 165.198C134.083 164.987 133.93 164.828 133.729 164.722C133.528 164.616 133.282 164.563 132.99 164.562C132.655 164.561 132.384 164.627 132.176 164.759C131.971 164.889 131.817 165.065 131.714 165.288C131.614 165.511 131.554 165.762 131.535 166.041L130.643 165.764C130.662 165.466 130.77 165.174 130.966 164.886C131.166 164.598 131.438 164.36 131.782 164.172C132.127 163.984 132.529 163.891 132.988 163.892C133.248 163.893 133.51 163.931 133.773 164.006C134.036 164.081 134.278 164.201 134.497 164.366C134.72 164.528 134.898 164.741 135.03 165.005C135.166 165.266 135.233 165.582 135.232 165.954C135.231 166.484 135.085 166.958 134.796 167.376C134.506 167.79 134.102 168.206 133.583 168.623L131.76 170.092L131.17 169.979L135.351 169.991L135.348 170.707L130.605 170.693ZM139.003 170.829C138.228 170.827 137.628 170.523 137.202 169.917C136.776 169.308 136.564 168.457 136.567 167.362C136.571 166.268 136.787 165.419 137.217 164.816C137.646 164.21 138.249 163.907 139.024 163.91C139.802 163.912 140.402 164.218 140.825 164.826C141.251 165.432 141.463 166.282 141.459 167.377C141.456 168.471 141.24 169.321 140.81 169.928C140.384 170.531 139.781 170.832 139.003 170.829ZM139.005 170.16C139.52 170.161 139.91 169.925 140.175 169.452C140.439 168.978 140.573 168.286 140.576 167.374C140.579 166.463 140.449 165.769 140.187 165.294C139.925 164.819 139.536 164.581 139.022 164.579C138.507 164.578 138.117 164.814 137.852 165.287C137.587 165.761 137.454 166.453 137.451 167.365C137.448 168.276 137.578 168.97 137.84 169.445C138.102 169.92 138.491 170.158 139.005 170.16Z" fill="#0D080B"/>
</g>
<g clip-path="url(#clip25_883_770)">
<path d="M160.478 170.781L160.48 170.232L162.839 168.244C163.159 167.972 163.42 167.725 163.622 167.502C163.828 167.279 163.979 167.054 164.075 166.824C164.172 166.595 164.221 166.34 164.222 166.058C164.223 165.751 164.169 165.493 164.061 165.285C163.957 165.074 163.804 164.916 163.602 164.81C163.401 164.704 163.155 164.65 162.863 164.649C162.529 164.648 162.257 164.714 162.049 164.847C161.844 164.976 161.69 165.153 161.587 165.376C161.487 165.599 161.428 165.849 161.408 166.128L160.516 165.851C160.536 165.554 160.643 165.261 160.84 164.973C161.039 164.686 161.311 164.448 161.656 164.26C162 164.072 162.402 163.978 162.861 163.98C163.121 163.98 163.383 164.018 163.646 164.093C163.91 164.169 164.151 164.289 164.371 164.454C164.593 164.616 164.771 164.828 164.904 165.092C165.039 165.353 165.107 165.67 165.105 166.042C165.104 166.572 164.958 167.046 164.669 167.463C164.379 167.878 163.975 168.294 163.456 168.711L161.634 170.179L161.043 170.066L165.224 170.078L165.222 170.795L160.478 170.781ZM167.598 170.802L167.614 165.468C167.368 165.678 167.138 165.855 166.924 166C166.71 166.142 166.47 166.263 166.207 166.361L166.209 165.571C166.346 165.506 166.49 165.426 166.642 165.33C166.794 165.231 166.967 165.088 167.16 164.899C167.356 164.707 167.581 164.443 167.836 164.106L168.436 164.108L168.416 170.804L167.598 170.802Z" fill="#0D080B"/>
</g>
<g clip-path="url(#clip26_883_770)">
<path d="M187.915 170.861L187.917 170.312L190.276 168.324C190.596 168.052 190.857 167.805 191.059 167.583C191.264 167.36 191.415 167.134 191.512 166.905C191.609 166.676 191.658 166.42 191.658 166.138C191.659 165.831 191.606 165.574 191.498 165.366C191.393 165.154 191.24 164.996 191.039 164.89C190.838 164.784 190.591 164.73 190.3 164.73C189.965 164.729 189.694 164.795 189.486 164.927C189.281 165.057 189.127 165.233 189.024 165.456C188.924 165.679 188.864 165.93 188.845 166.209L187.953 165.932C187.972 165.634 188.08 165.342 188.276 165.054C188.475 164.766 188.747 164.528 189.092 164.34C189.437 164.152 189.838 164.059 190.297 164.06C190.558 164.061 190.82 164.099 191.083 164.174C191.346 164.249 191.588 164.369 191.807 164.534C192.03 164.696 192.208 164.909 192.34 165.173C192.476 165.434 192.543 165.75 192.542 166.122C192.54 166.652 192.395 167.126 192.105 167.544C191.816 167.958 191.412 168.374 190.893 168.791L189.07 170.26L188.48 170.147L192.66 170.159L192.658 170.875L187.915 170.861ZM193.765 170.878L193.767 170.329L196.126 168.341C196.446 168.07 196.707 167.822 196.909 167.6C197.114 167.377 197.265 167.151 197.362 166.922C197.459 166.693 197.508 166.437 197.508 166.155C197.509 165.848 197.456 165.591 197.348 165.383C197.243 165.172 197.09 165.013 196.889 164.907C196.688 164.801 196.441 164.748 196.15 164.747C195.815 164.746 195.544 164.812 195.336 164.944C195.131 165.074 194.977 165.25 194.874 165.473C194.774 165.696 194.714 165.947 194.695 166.226L193.803 165.949C193.822 165.651 193.93 165.359 194.126 165.071C194.325 164.783 194.597 164.545 194.942 164.357C195.287 164.169 195.689 164.076 196.147 164.077C196.408 164.078 196.67 164.116 196.933 164.191C197.196 164.266 197.438 164.386 197.657 164.551C197.88 164.713 198.058 164.926 198.19 165.19C198.326 165.451 198.393 165.767 198.392 166.139C198.391 166.669 198.245 167.143 197.955 167.561C197.666 167.975 197.262 168.391 196.743 168.808L194.92 170.277L194.33 170.164L198.51 170.176L198.508 170.892L193.765 170.878Z" fill="#0D080B"/>
</g>
<g clip-path="url(#clip27_883_770)">
<path d="M16.4267 198.93L16.4283 198.381L18.7872 196.393C19.1074 196.121 19.3685 195.874 19.5707 195.651C19.7759 195.429 19.927 195.203 20.0237 194.974C20.1205 194.744 20.1693 194.489 20.1701 194.207C20.171 193.9 20.1175 193.642 20.0096 193.434C19.9049 193.223 19.7519 193.065 19.5507 192.959C19.3495 192.853 19.1031 192.799 18.8117 192.798C18.4769 192.797 18.2055 192.863 17.9973 192.996C17.7924 193.125 17.6384 193.302 17.5354 193.525C17.4356 193.748 17.3759 193.999 17.3565 194.277L16.4644 194.001C16.4839 193.703 16.5917 193.41 16.7879 193.123C16.9872 192.835 17.2591 192.597 17.6038 192.409C17.9485 192.221 18.3502 192.127 18.809 192.129C19.0695 192.129 19.3313 192.167 19.5946 192.243C19.8579 192.318 20.0994 192.438 20.319 192.603C20.5417 192.765 20.7194 192.978 20.8519 193.241C20.9876 193.502 21.0548 193.819 21.0538 194.191C21.0522 194.721 20.9066 195.195 20.6171 195.612C20.3276 196.027 19.9233 196.443 19.4044 196.86L17.5818 198.329L16.9915 198.215L21.1721 198.228L21.17 198.944L16.4267 198.93ZM24.6249 199.065C24.2094 199.064 23.8252 198.982 23.4723 198.82C23.1224 198.658 22.8348 198.423 22.6094 198.115C22.384 197.805 22.2518 197.426 22.2128 196.98L23.0599 196.717C23.0926 197.216 23.2433 197.621 23.5121 197.932C23.7809 198.24 24.1478 198.394 24.6129 198.396C25.0314 198.397 25.379 198.277 25.6556 198.036C25.9353 197.792 26.0759 197.44 26.0772 196.982C26.0777 196.802 26.0395 196.611 25.9626 196.409C25.8888 196.205 25.7545 196.03 25.5596 195.887C25.3647 195.744 25.0874 195.672 24.7278 195.671L23.8071 195.668L23.8091 194.961L24.6555 194.964C25.0492 194.965 25.3502 194.862 25.5585 194.655C25.77 194.445 25.8761 194.208 25.8769 193.944C25.8778 193.634 25.77 193.369 25.5537 193.148C25.3373 192.928 25.0307 192.817 24.6339 192.815C24.144 192.814 23.784 192.952 23.5538 193.231C23.3267 193.509 23.1953 193.896 23.1598 194.392L22.3142 194.125C22.3337 193.805 22.4416 193.494 22.6378 193.191C22.834 192.888 23.1044 192.637 23.4491 192.44C23.7939 192.242 24.1987 192.144 24.6637 192.146C25.0451 192.147 25.3905 192.222 25.7001 192.372C26.0128 192.522 26.2602 192.727 26.4423 192.988C26.6245 193.246 26.7151 193.544 26.7141 193.882C26.7134 194.105 26.6663 194.311 26.5728 194.5C26.4792 194.686 26.3392 194.845 26.1528 194.978C25.9664 195.11 25.7305 195.209 25.4451 195.273C25.9161 195.358 26.286 195.559 26.5548 195.876C26.8267 196.19 26.962 196.553 26.9608 196.966C26.9597 197.338 26.8921 197.657 26.758 197.923C26.6271 198.189 26.4497 198.407 26.226 198.577C26.0023 198.744 25.7524 198.867 25.4762 198.947C25.2001 199.027 24.9163 199.066 24.6249 199.065Z" fill="#0D080B"/>
</g>
<g clip-path="url(#clip28_883_770)">
<path d="M45.1003 199.014L45.1019 198.465L47.4608 196.477C47.7809 196.205 48.042 195.958 48.2442 195.735C48.4495 195.513 48.6005 195.287 48.6973 195.058C48.794 194.828 48.8429 194.573 48.8437 194.291C48.8446 193.984 48.7911 193.726 48.6832 193.518C48.5784 193.307 48.4254 193.149 48.2242 193.043C48.023 192.937 47.7767 192.883 47.4853 192.882C47.1504 192.881 46.879 192.947 46.6709 193.08C46.4659 193.21 46.3119 193.386 46.2089 193.609C46.1091 193.832 46.0494 194.083 46.03 194.362L45.138 194.085C45.1575 193.787 45.2653 193.494 45.4614 193.207C45.6607 192.919 45.9327 192.681 46.2773 192.493C46.622 192.305 47.0238 192.211 47.4826 192.213C47.743 192.213 48.0049 192.251 48.2681 192.327C48.5314 192.402 48.7729 192.522 48.9925 192.687C49.2153 192.849 49.3929 193.062 49.5255 193.325C49.6611 193.586 49.7284 193.903 49.7273 194.275C49.7257 194.805 49.5802 195.279 49.2906 195.696C49.0011 196.111 48.5969 196.527 48.0779 196.944L46.2553 198.413L45.6651 198.299L49.8457 198.312L49.8436 199.028L45.1003 199.014ZM53.9451 199.04L53.9516 196.826L53.9609 196.826L53.9725 192.864L54.1758 193.311L51.1986 196.827L50.9203 196.585L55.552 196.598L55.5499 197.315L50.5462 197.3L50.5485 196.5L54.0903 192.344L54.7832 192.346L54.7635 199.042L53.9451 199.04Z" fill="#0D080B"/>
</g>
<g clip-path="url(#clip29_883_770)">
<path d="M73.5601 199.097L73.5617 198.548L75.9206 196.56C76.2407 196.289 76.5019 196.041 76.704 195.819C76.9093 195.596 77.0603 195.37 77.1571 195.141C77.2539 194.912 77.3027 194.656 77.3035 194.374C77.3044 194.067 77.2509 193.81 77.143 193.602C77.0382 193.391 76.8852 193.232 76.684 193.126C76.4828 193.02 76.2365 192.967 75.9451 192.966C75.6103 192.965 75.3388 193.031 75.1307 193.163C74.9257 193.293 74.7718 193.469 74.6688 193.692C74.5689 193.915 74.5093 194.166 74.4899 194.445L73.5978 194.168C73.6173 193.87 73.7251 193.578 73.9213 193.29C74.1205 193.002 74.3925 192.764 74.7372 192.576C75.0818 192.388 75.4836 192.295 75.9424 192.296C76.2028 192.297 76.4647 192.335 76.728 192.41C76.9913 192.485 77.2328 192.605 77.4524 192.77C77.6751 192.932 77.8528 193.145 77.9853 193.409C78.1209 193.67 78.1882 193.986 78.1871 194.358C78.1856 194.888 78.04 195.362 77.7505 195.78C77.4609 196.194 77.0567 196.61 76.5377 197.027L74.7152 198.496L74.1249 198.383L78.3055 198.395L78.3034 199.111L73.5601 199.097ZM81.7815 199.233C81.394 199.232 81.0237 199.152 80.6708 198.992C80.3178 198.83 80.0224 198.595 79.7846 198.288C79.5499 197.977 79.4131 197.598 79.3741 197.152L80.2212 196.889C80.2539 197.361 80.3954 197.758 80.6455 198.081C80.8988 198.401 81.2688 198.562 81.7555 198.563C82.0563 198.564 82.32 198.494 82.5467 198.352C82.7766 198.207 82.957 198.007 83.0879 197.753C83.2189 197.499 83.2848 197.208 83.2858 196.88C83.2872 196.38 83.1442 195.997 82.8567 195.73C82.5722 195.462 82.2177 195.328 81.7929 195.327C81.4178 195.326 81.123 195.419 80.9085 195.608C80.6972 195.793 80.5416 196.002 80.4417 196.234L79.6328 196.148L79.9134 192.419L83.7453 192.431L83.7432 193.147L80.6042 193.138L80.4201 195.667L80.1923 195.648C80.3605 195.363 80.5937 195.123 80.8919 194.929C81.1901 194.734 81.5531 194.638 81.981 194.639C82.3902 194.64 82.7573 194.734 83.0823 194.921C83.4072 195.108 83.6638 195.368 83.8519 195.7C84.0401 196.032 84.1335 196.417 84.1322 196.854C84.1308 197.338 84.0211 197.759 83.803 198.118C83.5849 198.474 83.2974 198.749 82.9403 198.943C82.5832 199.138 82.1969 199.234 81.7815 199.233Z" fill="#0D080B"/>
</g>
<g clip-path="url(#clip30_883_770)">
<path d="M102.029 199.181L102.031 198.632L104.39 196.644C104.71 196.372 104.971 196.125 105.173 195.902C105.378 195.68 105.529 195.454 105.626 195.225C105.723 194.996 105.772 194.74 105.772 194.458C105.773 194.151 105.72 193.893 105.612 193.685C105.507 193.474 105.354 193.316 105.153 193.21C104.952 193.104 104.705 193.05 104.414 193.049C104.079 193.048 103.808 193.114 103.6 193.247C103.395 193.377 103.241 193.553 103.138 193.776C103.038 193.999 102.978 194.25 102.959 194.529L102.067 194.252C102.086 193.954 102.194 193.661 102.39 193.374C102.589 193.086 102.861 192.848 103.206 192.66C103.551 192.472 103.952 192.378 104.411 192.38C104.672 192.381 104.934 192.419 105.197 192.494C105.46 192.569 105.702 192.689 105.921 192.854C106.144 193.016 106.322 193.229 106.454 193.493C106.59 193.753 106.657 194.07 106.656 194.442C106.654 194.972 106.509 195.446 106.219 195.864C105.93 196.278 105.526 196.694 105.007 197.111L103.184 198.58L102.594 198.466L106.774 198.479L106.772 199.195L102.029 199.181ZM110.455 199.317C109.643 199.315 109.027 199.015 108.607 198.419C108.19 197.822 107.983 197.011 107.986 195.985C107.988 195.483 108.04 195.015 108.144 194.581C108.247 194.144 108.403 193.763 108.612 193.438C108.824 193.11 109.088 192.855 109.405 192.673C109.722 192.488 110.094 192.396 110.522 192.398C110.962 192.399 111.343 192.492 111.665 192.675C111.99 192.856 112.245 193.083 112.43 193.357C112.615 193.63 112.723 193.908 112.753 194.19L111.902 194.406C111.884 194.006 111.755 193.683 111.514 193.438C111.276 193.192 110.949 193.069 110.534 193.067C110.221 193.066 109.96 193.134 109.752 193.27C109.544 193.406 109.376 193.585 109.248 193.808C109.123 194.031 109.028 194.275 108.962 194.542C108.9 194.805 108.857 195.067 108.834 195.327C108.815 195.587 108.805 195.822 108.804 196.029L108.73 195.955C108.861 195.651 109.078 195.382 109.379 195.147C109.684 194.913 110.079 194.796 110.566 194.797C110.957 194.799 111.316 194.888 111.644 195.066C111.975 195.24 112.24 195.497 112.437 195.835C112.634 196.171 112.732 196.58 112.731 197.064C112.73 197.523 112.634 197.922 112.444 198.263C112.254 198.6 111.988 198.861 111.646 199.046C111.305 199.228 110.908 199.319 110.455 199.317ZM110.457 198.648C110.913 198.649 111.265 198.507 111.514 198.223C111.766 197.935 111.892 197.543 111.894 197.047C111.895 196.548 111.773 196.16 111.525 195.884C111.278 195.607 110.934 195.468 110.494 195.467C110.042 195.466 109.675 195.609 109.395 195.896C109.119 196.181 108.98 196.571 108.978 197.067C108.977 197.55 109.109 197.935 109.375 198.221C109.644 198.504 110.004 198.646 110.457 198.648Z" fill="#0D080B"/>
</g>
<g clip-path="url(#clip31_883_770)">
<path d="M130.977 199.266L130.979 198.717L133.338 196.729C133.658 196.457 133.919 196.21 134.121 195.987C134.326 195.765 134.477 195.539 134.574 195.31C134.671 195.08 134.72 194.825 134.721 194.543C134.721 194.236 134.668 193.978 134.56 193.77C134.455 193.559 134.302 193.401 134.101 193.295C133.9 193.189 133.654 193.135 133.362 193.134C133.027 193.133 132.756 193.199 132.548 193.332C132.343 193.461 132.189 193.638 132.086 193.861C131.986 194.084 131.926 194.335 131.907 194.613L131.015 194.336C131.034 194.039 131.142 193.746 131.338 193.459C131.538 193.171 131.81 192.933 132.154 192.745C132.499 192.557 132.901 192.463 133.359 192.465C133.62 192.465 133.882 192.503 134.145 192.579C134.408 192.654 134.65 192.774 134.869 192.939C135.092 193.101 135.27 193.314 135.402 193.577C135.538 193.838 135.605 194.155 135.604 194.527C135.603 195.057 135.457 195.531 135.168 195.948C134.878 196.363 134.474 196.779 133.955 197.196L132.132 198.665L131.542 198.551L135.723 198.563L135.72 199.28L130.977 199.266ZM137.478 199.285C137.727 198.132 138.086 197.075 138.557 196.112C139.028 195.146 139.611 194.213 140.305 193.313L136.584 193.302L136.586 192.586L141.134 192.599L141.133 193.227C140.815 193.7 140.514 194.175 140.231 194.652C139.95 195.128 139.693 195.614 139.459 196.11C139.228 196.602 139.029 197.111 138.86 197.638C138.691 198.165 138.559 198.714 138.464 199.288L137.478 199.285Z" fill="#0D080B"/>
</g>
<g clip-path="url(#clip32_883_770)">
<path d="M159.279 199.349L159.28 198.8L161.639 196.812C161.959 196.54 162.22 196.293 162.423 196.07C162.628 195.848 162.779 195.622 162.876 195.392C162.972 195.163 163.021 194.908 163.022 194.626C163.023 194.319 162.969 194.061 162.862 193.853C162.757 193.642 162.604 193.484 162.403 193.378C162.201 193.272 161.955 193.218 161.664 193.217C161.329 193.216 161.057 193.282 160.849 193.415C160.644 193.544 160.49 193.721 160.387 193.944C160.287 194.167 160.228 194.417 160.208 194.696L159.316 194.419C159.336 194.122 159.444 193.829 159.64 193.541C159.839 193.254 160.111 193.016 160.456 192.828C160.8 192.64 161.202 192.546 161.661 192.548C161.921 192.548 162.183 192.586 162.446 192.662C162.71 192.737 162.951 192.857 163.171 193.022C163.394 193.184 163.571 193.396 163.704 193.66C163.839 193.921 163.907 194.238 163.906 194.61C163.904 195.14 163.759 195.614 163.469 196.031C163.179 196.446 162.775 196.862 162.256 197.279L160.434 198.748L159.843 198.634L164.024 198.646L164.022 199.363L159.279 199.349ZM167.453 199.484C166.995 199.483 166.587 199.398 166.231 199.23C165.878 199.058 165.601 198.82 165.401 198.516C165.203 198.211 165.105 197.861 165.106 197.464C165.108 197.039 165.236 196.66 165.491 196.326C165.746 195.988 166.119 195.776 166.609 195.687C166.352 195.624 166.127 195.526 165.936 195.392C165.744 195.258 165.595 195.095 165.491 194.903C165.389 194.707 165.338 194.49 165.339 194.251C165.34 193.926 165.431 193.636 165.611 193.382C165.795 193.126 166.047 192.925 166.366 192.78C166.689 192.635 167.06 192.563 167.478 192.565C167.9 192.566 168.269 192.64 168.585 192.786C168.903 192.933 169.152 193.135 169.331 193.393C169.511 193.648 169.6 193.938 169.599 194.264C169.598 194.502 169.545 194.719 169.439 194.914C169.336 195.106 169.19 195.268 169 195.401C168.811 195.534 168.587 195.631 168.33 195.692C168.819 195.784 169.191 195.999 169.444 196.337C169.697 196.673 169.823 197.053 169.822 197.478C169.821 197.874 169.719 198.224 169.516 198.528C169.314 198.831 169.034 199.067 168.677 199.237C168.323 199.403 167.915 199.486 167.453 199.484ZM167.46 198.75C167.922 198.751 168.287 198.633 168.554 198.395C168.821 198.157 168.956 197.83 168.957 197.415C168.958 197.008 168.826 196.684 168.56 196.442C168.294 196.196 167.93 196.072 167.468 196.071C167.009 196.07 166.643 196.191 166.37 196.435C166.099 196.676 165.963 197 165.962 197.406C165.961 197.824 166.095 198.153 166.364 198.393C166.636 198.629 167.001 198.748 167.46 198.75ZM167.47 195.383C167.87 195.384 168.185 195.293 168.415 195.111C168.645 194.929 168.76 194.675 168.761 194.349C168.762 194.012 168.648 193.743 168.42 193.544C168.191 193.342 167.876 193.24 167.476 193.239C167.077 193.238 166.76 193.338 166.527 193.538C166.294 193.736 166.177 194.004 166.176 194.342C166.175 194.667 166.29 194.922 166.522 195.106C166.754 195.289 167.07 195.382 167.47 195.383Z" fill="#0D080B"/>
</g>
<g clip-path="url(#clip33_883_770)">
<path d="M187.701 199.432L187.703 198.883L190.062 196.895C190.382 196.623 190.643 196.376 190.845 196.153C191.05 195.931 191.201 195.705 191.298 195.476C191.395 195.247 191.444 194.991 191.444 194.709C191.445 194.402 191.392 194.145 191.284 193.937C191.179 193.725 191.026 193.567 190.825 193.461C190.624 193.355 190.377 193.301 190.086 193.301C189.751 193.3 189.48 193.365 189.272 193.498C189.067 193.628 188.913 193.804 188.81 194.027C188.71 194.25 188.65 194.501 188.631 194.78L187.739 194.503C187.758 194.205 187.866 193.913 188.062 193.625C188.261 193.337 188.533 193.099 188.878 192.911C189.223 192.723 189.624 192.63 190.083 192.631C190.344 192.632 190.606 192.67 190.869 192.745C191.132 192.82 191.374 192.94 191.593 193.105C191.816 193.267 191.994 193.48 192.126 193.744C192.262 194.004 192.329 194.321 192.328 194.693C192.326 195.223 192.181 195.697 191.891 196.115C191.602 196.529 191.198 196.945 190.679 197.362L188.856 198.831L188.266 198.717L192.446 198.73L192.444 199.446L187.701 199.432ZM196.015 199.568C195.56 199.567 195.169 199.476 194.844 199.295C194.522 199.111 194.27 198.882 194.088 198.609C193.909 198.336 193.805 198.059 193.775 197.78L194.626 197.56C194.644 197.966 194.765 198.29 194.991 198.533C195.216 198.775 195.56 198.897 196.022 198.898C196.326 198.899 196.577 198.832 196.776 198.696C196.975 198.56 197.132 198.381 197.247 198.158C197.366 197.935 197.453 197.692 197.51 197.429C197.566 197.162 197.604 196.899 197.624 196.638C197.643 196.378 197.655 196.144 197.658 195.936L197.732 196.067C197.601 196.367 197.383 196.636 197.079 196.874C196.777 197.109 196.387 197.225 195.906 197.224C195.512 197.223 195.15 197.132 194.819 196.951C194.491 196.767 194.226 196.504 194.026 196.163C193.828 195.821 193.73 195.41 193.732 194.93C193.733 194.461 193.832 194.057 194.028 193.717C194.228 193.373 194.503 193.109 194.854 192.924C195.205 192.739 195.608 192.647 196.064 192.648C196.519 192.65 196.902 192.741 197.211 192.922C197.521 193.099 197.768 193.346 197.953 193.663C198.141 193.977 198.275 194.338 198.355 194.748C198.437 195.157 198.478 195.593 198.476 196.055C198.475 196.517 198.429 196.958 198.338 197.38C198.25 197.801 198.107 198.177 197.911 198.509C197.718 198.837 197.465 199.096 197.151 199.288C196.84 199.476 196.462 199.569 196.015 199.568ZM196.01 196.555C196.463 196.556 196.828 196.408 197.104 196.111C197.381 195.815 197.52 195.409 197.522 194.894C197.523 194.407 197.394 194.024 197.135 193.744C196.878 193.462 196.524 193.319 196.071 193.318C195.612 193.317 195.254 193.461 194.995 193.752C194.737 194.04 194.607 194.436 194.606 194.941C194.604 195.437 194.727 195.83 194.975 196.119C195.225 196.408 195.57 196.553 196.01 196.555Z" fill="#0D080B"/>
</g>
<g clip-path="url(#clip34_883_770)">
<path d="M18.5003 227.619C18.0849 227.618 17.7007 227.536 17.3478 227.374C16.9979 227.212 16.7103 226.977 16.4849 226.669C16.2595 226.358 16.1273 225.98 16.0883 225.533L16.9354 225.271C16.9681 225.77 17.1188 226.175 17.3876 226.486C17.6564 226.793 18.0233 226.948 18.4884 226.949C18.9069 226.951 19.2545 226.831 19.5311 226.59C19.8108 226.346 19.9514 225.994 19.9527 225.535C19.9532 225.355 19.915 225.165 19.8381 224.963C19.7643 224.758 19.63 224.584 19.4351 224.441C19.2402 224.298 18.9629 224.226 18.6033 224.225L17.6826 224.222L17.6846 223.515L18.531 223.517C18.9247 223.519 19.2257 223.416 19.434 223.209C19.6455 222.998 19.7516 222.762 19.7523 222.498C19.7533 222.188 19.6455 221.923 19.4292 221.702C19.2128 221.481 18.9062 221.37 18.5094 221.369C18.0195 221.368 17.6595 221.506 17.4293 221.784C17.2022 222.063 17.0708 222.45 17.0353 222.946L16.1897 222.678C16.2092 222.359 16.3171 222.048 16.5133 221.744C16.7095 221.441 16.9799 221.191 17.3246 220.993C17.6693 220.796 18.0742 220.698 18.5392 220.699C18.9206 220.701 19.266 220.776 19.5756 220.926C19.8883 221.075 20.1357 221.281 20.3178 221.542C20.5 221.8 20.5906 222.097 20.5896 222.435C20.5889 222.659 20.5418 222.865 20.4483 223.053C20.3547 223.239 20.2147 223.398 20.0283 223.531C19.8419 223.664 19.606 223.762 19.3206 223.827C19.7916 223.912 20.1615 224.113 20.4303 224.43C20.7022 224.744 20.8375 225.107 20.8363 225.519C20.8352 225.891 20.7676 226.21 20.6335 226.477C20.5026 226.743 20.3252 226.961 20.1015 227.131C19.8778 227.297 19.6279 227.421 19.3517 227.501C19.0755 227.58 18.7918 227.62 18.5003 227.619ZM24.6341 227.637C23.859 227.635 23.2585 227.331 22.8324 226.725C22.4064 226.116 22.195 225.264 22.1982 224.17C22.2014 223.076 22.4178 222.227 22.8474 221.624C23.277 221.017 23.8793 220.715 24.6544 220.717C25.4325 220.72 26.033 221.025 26.456 221.634C26.882 222.24 27.0935 223.09 27.0903 224.184C27.087 225.279 26.8706 226.129 26.441 226.735C26.0145 227.339 25.4122 227.639 24.6341 227.637ZM24.636 226.967C25.1507 226.969 25.5404 226.733 25.8053 226.259C26.0702 225.786 26.204 225.093 26.2067 224.182C26.2094 223.27 26.0796 222.577 25.8175 222.102C25.5554 221.627 25.167 221.388 24.6524 221.387C24.1378 221.385 23.748 221.621 23.4831 222.095C23.2182 222.569 23.0844 223.261 23.0817 224.173C23.079 225.084 23.2088 225.777 23.4709 226.252C23.733 226.727 24.1214 226.966 24.636 226.967Z" fill="#0D080B"/>
</g>
<path d="M50.2667 227.6L50.2823 222.267C50.0368 222.477 49.8068 222.654 49.5925 222.799C49.3782 222.941 49.1391 223.062 48.8753 223.16L48.8776 222.369C49.0142 222.305 49.1586 222.225 49.3108 222.129C49.463 222.03 49.6355 221.886 49.8282 221.698C50.0241 221.506 50.2496 221.242 50.5049 220.905L51.1047 220.906L51.0851 227.603L50.2667 227.6Z" fill="#49454F"/>
<path d="M76.3874 227.677L76.389 227.128L78.7479 225.14C79.068 224.868 79.3292 224.621 79.5313 224.398C79.7366 224.176 79.8876 223.95 79.9844 223.721C80.0812 223.492 80.13 223.236 80.1308 222.954C80.1317 222.647 80.0782 222.39 79.9703 222.182C79.8655 221.97 79.7125 221.812 79.5113 221.706C79.3101 221.6 79.0638 221.546 78.7724 221.546C78.4376 221.545 78.1661 221.61 77.958 221.743C77.753 221.873 77.599 222.049 77.4961 222.272C77.3962 222.495 77.3366 222.746 77.3172 223.025L76.4251 222.748C76.4446 222.45 76.5524 222.158 76.7486 221.87C76.9478 221.582 77.2198 221.344 77.5645 221.156C77.9091 220.968 78.3109 220.875 78.7697 220.876C79.0301 220.877 79.292 220.915 79.5553 220.99C79.8186 221.065 80.06 221.185 80.2797 221.35C80.5024 221.512 80.68 221.725 80.8126 221.989C80.9482 222.25 81.0155 222.566 81.0144 222.938C81.0129 223.468 80.8673 223.942 80.5778 224.36C80.2882 224.774 79.884 225.19 79.365 225.607L77.5424 227.076L76.9522 226.963L81.1328 226.975L81.1307 227.691L76.3874 227.677Z" fill="#49454F"/>
<path d="M107.372 227.88C106.956 227.878 106.572 227.797 106.219 227.634C105.869 227.472 105.582 227.237 105.356 226.93C105.131 226.619 104.999 226.24 104.96 225.794L105.807 225.531C105.839 226.031 105.99 226.436 106.259 226.746C106.528 227.054 106.895 227.209 107.36 227.21C107.778 227.211 108.126 227.091 108.403 226.85C108.682 226.606 108.823 226.255 108.824 225.796C108.825 225.616 108.786 225.425 108.71 225.224C108.636 225.019 108.501 224.845 108.306 224.702C108.112 224.558 107.834 224.486 107.475 224.485L106.554 224.483L106.556 223.776L107.402 223.778C107.796 223.779 108.097 223.676 108.305 223.469C108.517 223.259 108.623 223.022 108.624 222.759C108.625 222.449 108.517 222.183 108.301 221.963C108.084 221.742 107.778 221.631 107.381 221.63C106.891 221.628 106.531 221.767 106.301 222.045C106.074 222.323 105.942 222.711 105.907 223.206L105.061 222.939C105.081 222.62 105.189 222.308 105.385 222.005C105.581 221.702 105.851 221.452 106.196 221.254C106.541 221.057 106.946 220.959 107.411 220.96C107.792 220.961 108.137 221.037 108.447 221.186C108.76 221.336 109.007 221.541 109.189 221.802C109.371 222.06 109.462 222.358 109.461 222.696C109.46 222.919 109.413 223.125 109.32 223.314C109.226 223.5 109.086 223.659 108.9 223.792C108.713 223.925 108.477 224.023 108.192 224.087C108.663 224.173 109.033 224.374 109.302 224.691C109.574 225.004 109.709 225.368 109.708 225.78C109.707 226.152 109.639 226.471 109.505 226.737C109.374 227.004 109.197 227.222 108.973 227.391C108.749 227.558 108.499 227.681 108.223 227.761C107.947 227.841 107.663 227.881 107.372 227.88Z" fill="#49454F"/>
<path d="M136.836 227.854L136.843 225.641L136.852 225.641L136.864 221.679L137.067 222.126L134.09 225.642L133.812 225.399L138.443 225.413L138.441 226.129L133.437 226.115L133.44 225.315L136.982 221.158L137.674 221.16L137.655 227.857L136.836 227.854Z" fill="#49454F"/>
<path d="M164.538 228.047C164.15 228.046 163.78 227.966 163.427 227.807C163.074 227.645 162.779 227.41 162.541 227.102C162.306 226.791 162.169 226.413 162.13 225.966L162.977 225.704C163.01 226.175 163.152 226.572 163.402 226.895C163.655 227.215 164.025 227.376 164.512 227.378C164.812 227.378 165.076 227.308 165.303 227.166C165.533 227.021 165.713 226.821 165.844 226.568C165.975 226.314 166.041 226.023 166.042 225.694C166.043 225.195 165.9 224.812 165.613 224.544C165.328 224.277 164.974 224.142 164.549 224.141C164.174 224.14 163.879 224.234 163.665 224.422C163.453 224.607 163.298 224.816 163.198 225.048L162.389 224.962L162.67 221.234L166.501 221.245L166.499 221.961L163.36 221.952L163.176 224.481L162.948 224.462C163.117 224.177 163.35 223.938 163.648 223.743C163.946 223.549 164.309 223.452 164.737 223.453C165.146 223.454 165.513 223.549 165.838 223.736C166.163 223.923 166.42 224.182 166.608 224.514C166.796 224.847 166.89 225.231 166.888 225.669C166.887 226.152 166.777 226.573 166.559 226.932C166.341 227.288 166.054 227.563 165.696 227.758C165.339 227.952 164.953 228.048 164.538 228.047Z" fill="#49454F"/>
<path d="M193.179 228.131C192.366 228.129 191.75 227.829 191.33 227.233C190.914 226.636 190.707 225.825 190.71 224.799C190.711 224.297 190.764 223.829 190.867 223.395C190.971 222.958 191.127 222.577 191.336 222.252C191.547 221.924 191.812 221.669 192.129 221.487C192.445 221.302 192.818 221.21 193.245 221.212C193.686 221.213 194.067 221.306 194.389 221.489C194.714 221.67 194.969 221.897 195.154 222.171C195.339 222.444 195.447 222.722 195.477 223.004L194.625 223.22C194.608 222.82 194.479 222.497 194.238 222.252C194 222.006 193.673 221.883 193.257 221.881C192.944 221.88 192.684 221.948 192.476 222.084C192.267 222.219 192.099 222.399 191.972 222.622C191.847 222.845 191.752 223.089 191.686 223.356C191.623 223.619 191.581 223.881 191.558 224.141C191.539 224.401 191.529 224.635 191.528 224.843L191.454 224.769C191.585 224.465 191.801 224.196 192.103 223.961C192.407 223.727 192.803 223.61 193.29 223.611C193.68 223.613 194.04 223.702 194.368 223.88C194.699 224.054 194.963 224.311 195.161 224.649C195.358 224.985 195.456 225.394 195.455 225.878C195.453 226.337 195.357 226.736 195.167 227.077C194.977 227.414 194.711 227.675 194.37 227.86C194.028 228.042 193.631 228.132 193.179 228.131ZM193.181 227.462C193.636 227.463 193.989 227.321 194.237 227.037C194.489 226.749 194.616 226.357 194.618 225.861C194.619 225.362 194.496 224.974 194.249 224.698C194.002 224.421 193.658 224.282 193.218 224.281C192.765 224.279 192.399 224.423 192.119 224.71C191.842 224.994 191.703 225.385 191.702 225.881C191.7 226.364 191.833 226.749 192.098 227.035C192.367 227.318 192.728 227.46 193.181 227.462Z" fill="#49454F"/>
<g clip-path="url(#clip35_883_770)">
<path d="M17.9237 260.922C16.1903 260.917 15.0437 259.781 15.0488 258.039C15.0539 256.297 16.2072 255.167 17.9405 255.172C19.5155 255.177 20.6131 256.014 20.6092 257.347L20.6088 257.464L19.6172 257.461L19.6175 257.344C19.62 256.494 19.0797 256.034 17.9463 256.031C16.638 256.027 16.0029 256.65 15.9988 258.042C15.9947 259.433 16.6262 260.052 17.9345 260.056C19.0679 260.059 19.6109 259.611 19.6134 258.752L19.6137 258.644L20.6054 258.647L20.605 258.755C20.6011 260.097 19.507 260.927 17.9237 260.922ZM22.3107 260.852L21.4107 260.849L21.4271 255.266L22.3271 255.269L22.3107 260.852ZM25.376 260.944C24.0177 260.94 23.1283 260.171 23.1323 258.788C23.1361 257.496 24.022 256.632 25.372 256.636C26.6553 256.64 27.5282 257.351 27.5245 258.609C27.5241 258.759 27.5154 258.876 27.4901 259.001L23.9734 258.99C24.0044 259.79 24.3948 260.216 25.3531 260.219C26.2198 260.222 26.579 259.94 26.5804 259.448L26.5806 259.381L27.4806 259.384L27.4804 259.459C27.4778 260.342 26.6093 260.948 25.376 260.944ZM25.3532 257.344C24.4366 257.342 24.0354 257.749 23.9832 258.49L26.6749 258.498L26.6749 258.481C26.6772 257.715 26.2366 257.347 25.3532 257.344ZM29.5572 260.957C28.6989 260.954 28.1584 260.552 28.1604 259.869C28.1623 259.227 28.6799 258.896 29.4969 258.806L31.3808 258.612L31.3815 258.37C31.3835 257.687 31.0842 257.444 30.2925 257.442C29.5259 257.44 29.1501 257.689 29.1484 258.297L29.1483 258.33L28.2566 258.328L28.2567 258.294C28.2595 257.353 29.0449 256.647 30.3615 256.651C31.6782 256.654 32.2677 257.373 32.2648 258.365L32.2575 260.881L31.4325 260.879L31.4355 259.845L31.3772 259.845C31.1584 260.545 30.4989 260.959 29.5572 260.957ZM29.0606 259.813C29.0596 260.147 29.2841 260.306 29.8008 260.307C30.7425 260.31 31.3768 259.962 31.3792 259.145L29.7537 259.324C29.2868 259.381 29.0615 259.488 29.0606 259.813ZM34.1096 260.887L33.2096 260.884L33.2218 256.742L34.0468 256.745L34.0435 257.861L34.1018 257.862C34.2288 257.195 34.6804 256.663 35.5304 256.666C36.472 256.669 36.8784 257.345 36.8761 258.128L36.8745 258.67L35.9828 258.667L35.9839 258.3C35.9856 257.709 35.7364 257.433 35.1198 257.431C34.4114 257.429 34.1186 257.82 34.1165 258.562L34.1096 260.887Z" fill="#A30162"/>
</g>
<g clip-path="url(#clip36_883_770)">
<path d="M135.524 261.268C133.791 261.262 132.644 260.126 132.65 258.384C132.655 256.642 133.808 255.512 135.541 255.518C137.116 255.522 138.214 256.359 138.21 257.692L138.21 257.809L137.218 257.806L137.218 257.689C137.221 256.839 136.68 256.379 135.547 256.376C134.239 256.372 133.604 256.995 133.6 258.387C133.595 259.779 134.227 260.397 135.535 260.401C136.669 260.404 137.212 259.956 137.214 259.097L137.214 258.989L138.206 258.992L138.206 259.1C138.202 260.442 137.108 261.272 135.524 261.268ZM140.228 261.281C139.37 261.279 138.829 260.877 138.831 260.194C138.833 259.552 139.351 259.22 140.168 259.131L142.051 258.937L142.052 258.695C142.054 258.012 141.755 257.769 140.963 257.767C140.197 257.765 139.821 258.013 139.819 258.622L139.819 258.655L138.927 258.652L138.927 258.619C138.93 257.677 139.716 256.971 141.032 256.975C142.349 256.979 142.938 257.698 142.936 258.689L142.928 261.206L142.103 261.203L142.106 260.17L142.048 260.17C141.829 260.869 141.17 261.284 140.228 261.281ZM139.731 260.138C139.73 260.472 139.955 260.63 140.471 260.632C141.413 260.635 142.047 260.287 142.05 259.47L140.424 259.649C139.958 259.705 139.732 259.813 139.731 260.138ZM144.78 261.211L143.88 261.209L143.892 257.067L144.717 257.069L144.714 258.353L144.772 258.353C144.899 257.653 145.451 256.988 146.501 256.991C147.651 256.995 148.215 257.771 148.213 258.73L148.205 261.221L147.305 261.219L147.312 258.969C147.314 258.194 146.965 257.801 146.107 257.799C145.199 257.796 144.789 258.261 144.786 259.161L144.78 261.211ZM151.247 261.314C149.881 261.31 148.992 260.432 148.995 259.157C148.999 257.865 149.893 257.001 151.26 257.005C152.502 257.009 153.408 257.712 153.405 258.745L153.405 258.828L152.513 258.826L152.513 258.776C152.515 258.134 152.049 257.816 151.241 257.814C150.308 257.811 149.89 258.251 149.887 259.16C149.885 260.051 150.3 260.502 151.233 260.505C152.042 260.508 152.509 260.192 152.511 259.551L152.511 259.492L153.403 259.495L153.403 259.587C153.4 260.62 152.489 261.317 151.247 261.314ZM156.295 261.328C154.937 261.324 154.047 260.555 154.051 259.172C154.055 257.88 154.941 257.016 156.291 257.02C157.574 257.024 158.447 257.735 158.444 258.993C158.443 259.143 158.435 259.26 158.409 259.385L154.893 259.374C154.924 260.174 155.314 260.601 156.272 260.603C157.139 260.606 157.498 260.324 157.5 259.832L157.5 259.765L158.4 259.768L158.4 259.843C158.397 260.726 157.528 261.332 156.295 261.328ZM156.272 257.728C155.356 257.726 154.955 258.133 154.902 258.874L157.594 258.882L157.594 258.866C157.596 258.099 157.156 257.731 156.272 257.728ZM160.16 261.256L159.26 261.254L159.276 255.67L160.176 255.673L160.16 261.256Z" fill="#A30162"/>
</g>
<g clip-path="url(#clip37_883_770)">
<path d="M183.569 261.408C181.819 261.403 180.664 260.267 180.669 258.525C180.674 256.783 181.835 255.653 183.585 255.658C185.352 255.664 186.499 256.8 186.494 258.542C186.489 260.284 185.335 261.414 183.569 261.408ZM183.571 260.542C184.896 260.546 185.54 259.931 185.544 258.539C185.548 257.147 184.908 256.521 183.583 256.517C182.258 256.513 181.623 257.136 181.619 258.528C181.615 259.919 182.246 260.538 183.571 260.542ZM188.199 261.339L187.299 261.336L187.316 255.753L188.216 255.755L188.209 258.139L189.9 258.144L191.541 255.765L192.607 255.768L190.649 258.521L192.583 261.351L191.516 261.348L189.914 259.01L188.206 259.005L188.199 261.339Z" fill="#A30162"/>
</g>
</g>
<defs>
<clipPath id="clip0_883_770">
<rect x="0.880905" y="0.645264" width="207.2" height="273.81" rx="5.95238" transform="rotate(0.168029 0.880905 0.645264)" fill="white"/>
</clipPath>
<clipPath id="clip1_883_770">
<rect x="3.2409" y="7.79517" width="23.8095" height="23.8095" rx="11.9048" transform="rotate(0.168029 3.2409 7.79517)" fill="white"/>
</clipPath>
<clipPath id="clip2_883_770">
<rect x="70.431" y="7.99219" width="23.8095" height="23.8095" rx="11.9048" transform="rotate(0.168029 70.431 7.99219)" fill="white"/>
</clipPath>
<clipPath id="clip3_883_770">
<rect x="110.678" y="8.11011" width="23.8095" height="23.8095" rx="11.9048" transform="rotate(0.168029 110.678 8.11011)" fill="white"/>
</clipPath>
<clipPath id="clip4_883_770">
<rect x="181.869" y="8.31885" width="23.8095" height="23.8095" rx="11.9048" transform="rotate(0.168029 181.869 8.31885)" fill="white"/>
</clipPath>
<clipPath id="clip5_883_770">
<rect x="181.63" y="70.2231" width="23.8095" height="23.8095" rx="11.9048" transform="rotate(0.168029 181.63 70.2231)" fill="white"/>
</clipPath>
<clipPath id="clip6_883_770">
<rect x="10.1184" y="98.2917" width="23.8095" height="23.8095" rx="11.9048" transform="rotate(0.168029 10.1184 98.2917)" fill="white"/>
</clipPath>
<clipPath id="clip7_883_770">
<rect x="38.6897" y="98.3755" width="23.8095" height="23.8095" rx="11.9048" transform="rotate(0.168029 38.6897 98.3755)" fill="white"/>
</clipPath>
<clipPath id="clip8_883_770">
<rect x="67.2611" y="98.4592" width="23.8095" height="23.8095" rx="11.9048" transform="rotate(0.168029 67.2611 98.4592)" fill="white"/>
</clipPath>
<clipPath id="clip9_883_770">
<rect x="95.8323" y="98.5432" width="23.8095" height="23.8095" rx="11.9048" transform="rotate(0.168029 95.8323 98.5432)" fill="white"/>
</clipPath>
<clipPath id="clip10_883_770">
<rect x="124.404" y="98.627" width="23.8095" height="23.8095" rx="11.9048" transform="rotate(0.168029 124.404 98.627)" fill="white"/>
</clipPath>
<clipPath id="clip11_883_770">
<rect x="152.975" y="98.7107" width="23.8095" height="23.8095" rx="11.9048" transform="rotate(0.168029 152.975 98.7107)" fill="white"/>
</clipPath>
<clipPath id="clip12_883_770">
<rect x="181.546" y="98.7944" width="23.8095" height="23.8095" rx="11.9048" transform="rotate(0.168029 181.546 98.7944)" fill="white"/>
</clipPath>
<clipPath id="clip13_883_770">
<rect x="10.0346" y="126.863" width="23.8095" height="23.8095" rx="11.9048" transform="rotate(0.168029 10.0346 126.863)" fill="white"/>
</clipPath>
<clipPath id="clip14_883_770">
<rect x="38.6059" y="126.947" width="23.8095" height="23.8095" rx="11.9048" transform="rotate(0.168029 38.6059 126.947)" fill="white"/>
</clipPath>
<clipPath id="clip15_883_770">
<rect x="67.1773" y="127.031" width="23.8095" height="23.8095" rx="11.9048" transform="rotate(0.168029 67.1773 127.031)" fill="white"/>
</clipPath>
<clipPath id="clip16_883_770">
<rect x="95.7485" y="127.115" width="23.8095" height="23.8095" rx="11.9048" transform="rotate(0.168029 95.7485 127.115)" fill="white"/>
</clipPath>
<clipPath id="clip17_883_770">
<rect x="124.32" y="127.198" width="23.8095" height="23.8095" rx="11.9048" transform="rotate(0.168029 124.32 127.198)" fill="white"/>
</clipPath>
<clipPath id="clip18_883_770">
<rect x="152.891" y="127.282" width="23.8095" height="23.8095" rx="11.9048" transform="rotate(0.168029 152.891 127.282)" fill="white"/>
</clipPath>
<clipPath id="clip19_883_770">
<rect x="181.462" y="127.366" width="23.8095" height="23.8095" rx="11.9048" transform="rotate(0.168029 181.462 127.366)" fill="white"/>
</clipPath>
<clipPath id="clip20_883_770">
<rect x="9.95084" y="155.434" width="23.8095" height="23.8095" rx="11.9048" transform="rotate(0.168029 9.95084 155.434)" fill="white"/>
</clipPath>
<clipPath id="clip21_883_770">
<rect x="38.5221" y="155.518" width="23.8095" height="23.8095" rx="11.9048" transform="rotate(0.168029 38.5221 155.518)" fill="white"/>
</clipPath>
<clipPath id="clip22_883_770">
<rect x="67.0935" y="155.602" width="23.8095" height="23.8095" rx="11.9048" transform="rotate(0.168029 67.0935 155.602)" fill="white"/>
</clipPath>
<clipPath id="clip23_883_770">
<rect x="95.6647" y="155.686" width="23.8095" height="23.8095" rx="11.9048" transform="rotate(0.168029 95.6647 155.686)" fill="white"/>
</clipPath>
<clipPath id="clip24_883_770">
<rect x="124.236" y="155.77" width="23.8095" height="23.8095" rx="11.9048" transform="rotate(0.168029 124.236 155.77)" fill="white"/>
</clipPath>
<clipPath id="clip25_883_770">
<rect x="152.807" y="155.853" width="23.8095" height="23.8095" rx="11.9048" transform="rotate(0.168029 152.807 155.853)" fill="white"/>
</clipPath>
<clipPath id="clip26_883_770">
<rect x="181.379" y="155.937" width="23.8095" height="23.8095" rx="11.9048" transform="rotate(0.168029 181.379 155.937)" fill="white"/>
</clipPath>
<clipPath id="clip27_883_770">
<rect x="9.86705" y="184.006" width="23.8095" height="23.8095" rx="11.9048" transform="rotate(0.168029 9.86705 184.006)" fill="white"/>
</clipPath>
<clipPath id="clip28_883_770">
<rect x="38.4383" y="184.089" width="23.8095" height="23.8095" rx="11.9048" transform="rotate(0.168029 38.4383 184.089)" fill="white"/>
</clipPath>
<clipPath id="clip29_883_770">
<rect x="67.0097" y="184.173" width="23.8095" height="23.8095" rx="11.9048" transform="rotate(0.168029 67.0097 184.173)" fill="white"/>
</clipPath>
<clipPath id="clip30_883_770">
<rect x="95.5809" y="184.257" width="23.8095" height="23.8095" rx="11.9048" transform="rotate(0.168029 95.5809 184.257)" fill="white"/>
</clipPath>
<clipPath id="clip31_883_770">
<rect x="124.152" y="184.341" width="23.8095" height="23.8095" rx="11.9048" transform="rotate(0.168029 124.152 184.341)" fill="white"/>
</clipPath>
<clipPath id="clip32_883_770">
<rect x="152.724" y="184.425" width="23.8095" height="23.8095" rx="11.9048" transform="rotate(0.168029 152.724 184.425)" fill="white"/>
</clipPath>
<clipPath id="clip33_883_770">
<rect x="181.295" y="184.508" width="23.8095" height="23.8095" rx="11.9048" transform="rotate(0.168029 181.295 184.508)" fill="white"/>
</clipPath>
<clipPath id="clip34_883_770">
<rect x="9.78326" y="212.577" width="23.8095" height="23.8095" rx="11.9048" transform="rotate(0.168029 9.78326 212.577)" fill="white"/>
</clipPath>
<clipPath id="clip35_883_770">
<rect x="7.30453" y="245.903" width="37.2857" height="23.8095" rx="11.9048" transform="rotate(0.168029 7.30453 245.903)" fill="white"/>
</clipPath>
<clipPath id="clip36_883_770">
<rect x="124.885" y="246.248" width="43.2857" height="23.8095" rx="11.9048" transform="rotate(0.168029 124.885 246.248)" fill="white"/>
</clipPath>
<clipPath id="clip37_883_770">
<rect x="172.932" y="246.389" width="27.2857" height="23.8095" rx="11.9048" transform="rotate(0.168029 172.932 246.389)" fill="white"/>
</clipPath>
</defs>
</svg>
