<svg width="309" height="84" viewBox="0 0 309 84" fill="none" xmlns="http://www.w3.org/2000/svg">
<rect y="10" width="61" height="61" rx="30.5" fill="white"/>
<path d="M41.67 35.45C41.03 33.28 39.22 31.47 37.05 30.83C35.4 30.35 34.26 30.39 33.47 30.98C32.52 31.69 32.41 32.97 32.41 33.88V36.37C32.41 38.83 33.53 40.08 35.73 40.08H38.6C39.5 40.08 40.79 39.97 41.5 39.02C42.11 38.24 42.16 37.1 41.67 35.45Z" fill="#34C759"/>
<path d="M38.91 41.86C38.65 41.56 38.27 41.39 37.88 41.39H34.3C32.54 41.39 31.11 39.96 31.11 38.2V34.62C31.11 34.23 30.94 33.85 30.64 33.59C30.35 33.33 29.95 33.21 29.57 33.26C27.22 33.56 25.06 34.85 23.65 36.79C22.23 38.74 21.71 41.12 22.16 43.5C22.81 46.94 25.56 49.69 29.01 50.34C29.56 50.45 30.11 50.5 30.66 50.5C32.47 50.5 34.22 49.94 35.71 48.85C37.65 47.44 38.94 45.28 39.24 42.93C39.29 42.54 39.17 42.15 38.91 41.86Z" fill="#34C759"/>
<g filter="url(#filter0_b_20_91)">
<mask id="path-4-inside-1_20_91" fill="white">
<path fill-rule="evenodd" clip-rule="evenodd" d="M47 0C42.8588 0 39.3056 2.51723 37.7869 6.10504C36.9258 8.13943 38.8064 9.96234 40.9782 10.3667C53.3305 12.6663 62.7859 25.5057 62.7859 41C62.7859 57.3122 52.306 70.6817 38.9989 71.9082C37.899 72.0096 37 72.8954 37 74C37 79.5229 41.4771 84 47 84H299C304.523 84 309 79.5228 309 74V10C309 4.47715 304.523 0 299 0H47Z"/>
</mask>
<path fill-rule="evenodd" clip-rule="evenodd" d="M47 0C42.8588 0 39.3056 2.51723 37.7869 6.10504C36.9258 8.13943 38.8064 9.96234 40.9782 10.3667C53.3305 12.6663 62.7859 25.5057 62.7859 41C62.7859 57.3122 52.306 70.6817 38.9989 71.9082C37.899 72.0096 37 72.8954 37 74C37 79.5229 41.4771 84 47 84H299C304.523 84 309 79.5228 309 74V10C309 4.47715 304.523 0 299 0H47Z" fill="white" fill-opacity="0.8"/>
<path d="M38.9989 71.9082L38.8153 69.9167L38.9989 71.9082ZM39.6287 6.88465C40.8453 4.01041 43.6902 2 47 2V-2C42.0275 -2 37.7658 1.02404 35.9451 5.32543L39.6287 6.88465ZM40.6121 12.3329C51.7893 14.4138 60.7859 26.2167 60.7859 41H64.7859C64.7859 24.7947 54.8718 10.9189 41.3443 8.40046L40.6121 12.3329ZM60.7859 41C60.7859 56.583 50.816 68.8106 38.8153 69.9167L39.1824 73.8998C53.7959 72.5529 64.7859 58.0414 64.7859 41H60.7859ZM47 82C42.5817 82 39 78.4183 39 74H35C35 80.6274 40.3726 86 47 86V82ZM299 82H47V86H299V82ZM307 74C307 78.4183 303.418 82 299 82V86C305.627 86 311 80.6274 311 74H307ZM307 10V74H311V10H307ZM299 2C303.418 2 307 5.58172 307 10H311C311 3.37258 305.627 -2 299 -2V2ZM47 2H299V-2H47V2ZM38.8153 69.9167C36.8048 70.102 35 71.7472 35 74H39C39 73.998 39.0002 73.9982 38.9999 73.9996C38.9996 74.0008 38.9994 74.0012 38.9997 74.0003C39.0005 73.9986 39.0053 73.9881 39.0202 73.9728C39.0535 73.9387 39.1114 73.9063 39.1824 73.8998L38.8153 69.9167ZM35.9451 5.32543C35.1722 7.1513 35.6841 8.89821 36.7089 10.1277C37.6831 11.2964 39.137 12.0582 40.6121 12.3329L41.3443 8.40046C40.6476 8.27076 40.0752 7.91898 39.7815 7.56654C39.6444 7.40216 39.596 7.27348 39.5808 7.19443C39.5684 7.12989 39.5643 7.03693 39.6287 6.88465L35.9451 5.32543Z" fill="white" mask="url(#path-4-inside-1_20_91)"/>
</g>
<path d="M100 0L100 84" stroke="black" stroke-opacity="0.12" stroke-dasharray="2 2"/>
<path d="M132.119 27.0043C132.774 27.9277 133.102 29.2433 133.102 30.9511C133.102 32.6191 132.774 33.9099 132.119 34.8234C131.464 35.727 130.545 36.1787 129.364 36.1787C128.172 36.1787 127.244 35.722 126.579 34.8085C125.923 33.8851 125.596 32.5794 125.596 30.8915C125.596 29.2035 125.923 27.9028 126.579 26.9894C127.244 26.066 128.172 25.6043 129.364 25.6043C130.555 25.6043 131.474 26.0709 132.119 27.0043ZM131.255 34.0043C131.672 33.3489 131.881 32.3113 131.881 30.8915C131.881 29.5014 131.672 28.4738 131.255 27.8085C130.838 27.1333 130.208 26.7957 129.364 26.7957C128.52 26.7957 127.889 27.1333 127.472 27.8085C127.055 28.4738 126.847 29.5014 126.847 30.8915C126.847 32.3113 127.055 33.3489 127.472 34.0043C127.889 34.6596 128.52 34.9872 129.364 34.9872C130.208 34.9872 130.838 34.6596 131.255 34.0043ZM136.864 27.3915L134.541 29.5362V27.9277L136.864 25.783H138.056V36H136.864V27.3915Z" fill="#A30162"/>
<path d="M125.613 50.2426H128.536C129.438 50.2426 130.166 50.4936 130.719 50.9957C131.272 51.4979 131.549 52.2213 131.549 53.166C131.549 53.7872 131.417 54.3191 131.153 54.7617C130.898 55.2043 130.54 55.5362 130.081 55.7574C129.63 55.9787 129.115 56.0894 128.536 56.0894H126.711V59H125.613V50.2426ZM128.204 55.1319C128.953 55.1319 129.506 54.9872 129.864 54.6979C130.23 54.4 130.413 53.8851 130.413 53.1532C130.413 52.4383 130.23 51.9362 129.864 51.6468C129.506 51.3574 128.953 51.2128 128.204 51.2128H126.711V55.1319H128.204ZM135.678 59.1532C134.69 59.1532 133.916 58.8468 133.354 58.234C132.792 57.6128 132.512 56.7702 132.512 55.7064C132.512 55.0085 132.635 54.4 132.882 53.8809C133.137 53.3617 133.499 52.9617 133.967 52.6809C134.435 52.4 134.984 52.2596 135.614 52.2596C136.55 52.2596 137.269 52.5617 137.771 53.166C138.273 53.7617 138.529 54.6128 138.537 55.7191V55.9872H133.571C133.673 57.4766 134.384 58.2213 135.703 58.2213C136.656 58.2213 137.261 57.8213 137.516 57.0213L138.524 57.2255C138.312 57.8894 137.971 58.3787 137.503 58.6936C137.044 59 136.435 59.1532 135.678 59.1532ZM137.465 55.1447C137.363 53.8085 136.733 53.1404 135.575 53.1404C134.988 53.1404 134.524 53.3149 134.184 53.6638C133.852 54.0128 133.652 54.5064 133.584 55.1447H137.465ZM139.96 52.4128H140.994V53.6255C141.164 53.1745 141.415 52.834 141.747 52.6043C142.079 52.3745 142.517 52.2596 143.062 52.2596C143.206 52.2596 143.317 52.2638 143.394 52.2723L143.317 53.2809C143.223 53.2723 143.092 53.2681 142.921 53.2681C142.377 53.2681 141.968 53.3617 141.696 53.5489C141.423 53.7362 141.24 54.0298 141.147 54.4298C141.053 54.8213 141.002 55.383 140.994 56.1149V59H139.96V52.4128ZM145.351 57.0723C145.461 57.5149 145.653 57.8255 145.925 58.0043C146.206 58.183 146.636 58.2723 147.214 58.2723C147.734 58.2723 148.121 58.1745 148.376 57.9787C148.64 57.783 148.772 57.4979 148.772 57.1234C148.772 56.7745 148.653 56.5191 148.414 56.3574C148.185 56.1957 147.768 56.0809 147.163 56.0128C146.244 55.8851 145.572 55.6681 145.146 55.3617C144.721 55.0553 144.508 54.6383 144.508 54.1106C144.508 53.5404 144.729 53.0894 145.172 52.7574C145.623 52.4255 146.227 52.2596 146.985 52.2596C147.7 52.2596 148.291 52.4043 148.759 52.6936C149.227 52.9745 149.525 53.3702 149.653 53.8809L148.708 54.0851C148.631 53.7362 148.453 53.4851 148.172 53.3319C147.9 53.1702 147.504 53.0894 146.985 53.0894C146.534 53.0894 146.176 53.1787 145.912 53.3574C145.657 53.5277 145.529 53.7617 145.529 54.0596C145.529 54.383 145.649 54.6255 145.887 54.7872C146.125 54.9404 146.551 55.0638 147.163 55.1574C148.951 55.4213 149.844 56.0809 149.844 57.1362C149.844 57.7489 149.606 58.2383 149.129 58.6043C148.661 58.9617 148.023 59.1404 147.214 59.1404C145.538 59.1404 144.568 58.5191 144.304 57.2766L145.351 57.0723ZM154.221 59.1532C153.583 59.1532 153.026 59.0128 152.549 58.7319C152.072 58.4511 151.702 58.0511 151.438 57.5319C151.183 57.0128 151.055 56.4043 151.055 55.7064C151.055 55.0085 151.183 54.4 151.438 53.8809C151.702 53.3617 152.072 52.9617 152.549 52.6809C153.026 52.4 153.583 52.2596 154.221 52.2596C154.86 52.2596 155.413 52.4043 155.881 52.6936C156.358 52.9745 156.723 53.3787 156.979 53.9064C157.234 54.4255 157.362 55.0383 157.362 55.7447C157.362 56.434 157.234 57.0383 156.979 57.5574C156.723 58.0681 156.358 58.4638 155.881 58.7447C155.413 59.017 154.86 59.1532 154.221 59.1532ZM154.209 58.2723C154.864 58.2723 155.37 58.0468 155.728 57.5957C156.085 57.1447 156.264 56.5064 156.264 55.6809C156.264 54.8638 156.085 54.234 155.728 53.7915C155.37 53.3489 154.864 53.1277 154.209 53.1277C153.553 53.1277 153.047 53.3489 152.689 53.7915C152.332 54.234 152.153 54.8638 152.153 55.6809C152.153 56.5064 152.332 57.1447 152.689 57.5957C153.047 58.0468 153.553 58.2723 154.209 58.2723ZM158.785 52.4128H159.831V53.5106C160.078 53.1277 160.376 52.8255 160.725 52.6043C161.083 52.3745 161.47 52.2596 161.887 52.2596C162.687 52.2596 163.291 52.5064 163.7 53C164.117 53.4851 164.325 54.1404 164.325 54.966V59H163.253V55.2851C163.253 54.7489 163.21 54.3319 163.125 54.034C163.048 53.7362 162.895 53.5149 162.665 53.3702C162.436 53.2255 162.095 53.1532 161.644 53.1532C160.453 53.1532 159.848 53.9021 159.831 55.4V59H158.785V52.4128Z" fill="#767779"/>
<path d="M177.591 27.0638C177.224 27.3617 176.986 27.7936 176.877 28.3596L175.715 28.0766C175.904 27.3121 176.286 26.7064 176.862 26.2596C177.448 25.8128 178.143 25.5894 178.947 25.5894C179.95 25.5894 180.754 25.8525 181.36 26.3787C181.965 26.905 182.268 27.6099 182.268 28.4936C182.268 29.0695 182.129 29.6305 181.851 30.1766C181.583 30.7128 181.235 31.2241 180.809 31.7106C180.391 32.1872 179.796 32.8177 179.021 33.6021L177.815 34.8383H182.387V35.9702H175.789V35.0021C176.613 34.2177 177.239 33.627 177.666 33.2298C178.55 32.4057 179.205 31.7702 179.632 31.3234C180.059 30.8766 180.396 30.4348 180.645 29.9979C180.903 29.5511 181.032 29.0943 181.032 28.6277C181.032 27.9823 180.853 27.4858 180.496 27.1383C180.138 26.7809 179.647 26.6021 179.021 26.6021C178.445 26.6021 177.969 26.756 177.591 27.0638ZM187.524 36.1787C186.392 36.1787 185.493 35.9106 184.828 35.3745C184.163 34.8284 183.83 34.0986 183.83 33.1851C183.83 32.5695 183.994 32.0383 184.322 31.5915C184.659 31.1447 185.126 30.8121 185.722 30.5936C185.265 30.3553 184.902 30.0376 184.634 29.6404C184.376 29.2433 184.247 28.7965 184.247 28.3C184.247 27.7837 184.386 27.322 184.664 26.9149C184.942 26.5078 185.329 26.1901 185.826 25.9617C186.322 25.7333 186.888 25.6191 187.524 25.6191C188.149 25.6191 188.705 25.7333 189.192 25.9617C189.688 26.1801 190.076 26.4929 190.354 26.9C190.632 27.2972 190.771 27.7539 190.771 28.2702C190.771 28.7766 190.641 29.2333 190.383 29.6404C190.125 30.0376 189.768 30.3553 189.311 30.5936C189.917 30.8121 190.378 31.1496 190.696 31.6064C191.024 32.0532 191.188 32.5894 191.188 33.2149C191.188 34.1284 190.855 34.8532 190.19 35.3894C189.534 35.9156 188.646 36.1787 187.524 36.1787ZM187.524 35.1213C188.258 35.1213 188.839 34.9426 189.266 34.5851C189.703 34.2177 189.922 33.7213 189.922 33.0957C189.922 32.4801 189.703 31.9936 189.266 31.6362C188.839 31.2688 188.258 31.0851 187.524 31.0851C186.789 31.0851 186.203 31.2688 185.766 31.6362C185.339 31.9936 185.126 32.4801 185.126 33.0957C185.126 33.7213 185.339 34.2177 185.766 34.5851C186.203 34.9426 186.789 35.1213 187.524 35.1213ZM187.524 30.1915C188.199 30.1915 188.715 30.0326 189.073 29.7149C189.44 29.3972 189.624 28.9504 189.624 28.3745C189.624 27.7986 189.44 27.3518 189.073 27.034C188.715 26.7163 188.199 26.5574 187.524 26.5574C186.849 26.5574 186.327 26.7163 185.96 27.034C185.593 27.3418 185.409 27.7887 185.409 28.3745C185.409 28.9603 185.593 29.4121 185.96 29.7298C186.327 30.0376 186.849 30.1915 187.524 30.1915Z" fill="#A30162"/>
<path d="M176.43 58.5915C175.962 58.2085 175.621 57.6085 175.409 56.7915L176.417 56.3957C176.57 57 176.8 57.4468 177.106 57.7362C177.421 58.017 177.813 58.1574 178.281 58.1574C178.843 58.1574 179.251 57.9532 179.506 57.5447C179.762 57.1277 179.889 56.4894 179.889 55.6298V50.2426H180.987V55.6936C180.996 56.8596 180.779 57.7277 180.336 58.2979C179.894 58.8681 179.209 59.1532 178.281 59.1532C177.523 59.1532 176.906 58.966 176.43 58.5915ZM187.943 59H186.896V57.9021C186.65 58.2851 186.348 58.5915 185.99 58.8213C185.641 59.0426 185.258 59.1532 184.841 59.1532C184.041 59.1532 183.433 58.9106 183.016 58.4255C182.607 57.9319 182.403 57.2723 182.403 56.4468V52.4128H183.475V56.1277C183.475 56.6638 183.513 57.0809 183.59 57.3787C183.675 57.6766 183.833 57.8979 184.062 58.0426C184.292 58.1872 184.633 58.2596 185.084 58.2596C186.275 58.2596 186.879 57.5106 186.896 56.0128V52.4128H187.943V59ZM189.573 52.4128H190.62V53.5106C190.867 53.1277 191.164 52.8255 191.513 52.6043C191.871 52.3745 192.258 52.2596 192.675 52.2596C193.475 52.2596 194.079 52.5064 194.488 53C194.905 53.4851 195.113 54.1404 195.113 54.966V59H194.041V55.2851C194.041 54.7489 193.998 54.3319 193.913 54.034C193.837 53.7362 193.684 53.5149 193.454 53.3702C193.224 53.2255 192.884 53.1532 192.432 53.1532C191.241 53.1532 190.637 53.9021 190.62 55.4V59H189.573V52.4128ZM199.603 59.1532C198.615 59.1532 197.841 58.8468 197.279 58.234C196.717 57.6128 196.437 56.7702 196.437 55.7064C196.437 55.0085 196.56 54.4 196.807 53.8809C197.062 53.3617 197.424 52.9617 197.892 52.6809C198.36 52.4 198.909 52.2596 199.539 52.2596C200.475 52.2596 201.194 52.5617 201.696 53.166C202.198 53.7617 202.454 54.6128 202.462 55.7191V55.9872H197.496C197.598 57.4766 198.309 58.2213 199.628 58.2213C200.581 58.2213 201.186 57.8213 201.441 57.0213L202.449 57.2255C202.237 57.8894 201.896 58.3787 201.428 58.6936C200.969 59 200.36 59.1532 199.603 59.1532ZM201.39 55.1447C201.288 53.8085 200.658 53.1404 199.5 53.1404C198.913 53.1404 198.449 53.3149 198.109 53.6638C197.777 54.0128 197.577 54.5064 197.509 55.1447H201.39Z" fill="#767779"/>
<path d="M228.013 29.3234L225.102 24.2426H226.238L228.574 28.3915L230.911 24.2426H232.047L229.111 29.3234V33H228.013V29.3234ZM234.892 33.1532C234.254 33.1532 233.697 33.0128 233.22 32.7319C232.744 32.4511 232.373 32.0511 232.109 31.5319C231.854 31.0128 231.726 30.4043 231.726 29.7064C231.726 29.0085 231.854 28.4 232.109 27.8809C232.373 27.3617 232.744 26.9617 233.22 26.6809C233.697 26.4 234.254 26.2596 234.892 26.2596C235.531 26.2596 236.084 26.4043 236.552 26.6936C237.029 26.9745 237.395 27.3787 237.65 27.9064C237.905 28.4255 238.033 29.0383 238.033 29.7447C238.033 30.434 237.905 31.0383 237.65 31.5574C237.395 32.0681 237.029 32.4638 236.552 32.7447C236.084 33.017 235.531 33.1532 234.892 33.1532ZM234.88 32.2723C235.535 32.2723 236.041 32.0468 236.399 31.5957C236.756 31.1447 236.935 30.5064 236.935 29.6809C236.935 28.8638 236.756 28.234 236.399 27.7915C236.041 27.3489 235.535 27.1277 234.88 27.1277C234.224 27.1277 233.718 27.3489 233.361 27.7915C233.003 28.234 232.824 28.8638 232.824 29.6809C232.824 30.5064 233.003 31.1447 233.361 31.5957C233.718 32.0468 234.224 32.2723 234.88 32.2723ZM244.894 33H243.847V31.9021C243.6 32.2851 243.298 32.5915 242.941 32.8213C242.592 33.0426 242.209 33.1532 241.792 33.1532C240.992 33.1532 240.383 32.9106 239.966 32.4255C239.558 31.9319 239.354 31.2723 239.354 30.4468V26.4128H240.426V30.1277C240.426 30.6638 240.464 31.0809 240.541 31.3787C240.626 31.6766 240.783 31.8979 241.013 32.0426C241.243 32.1872 241.583 32.2596 242.034 32.2596C243.226 32.2596 243.83 31.5106 243.847 30.0128V26.4128H244.894V33ZM246.524 26.4128H247.558V27.6255C247.728 27.1745 247.979 26.834 248.311 26.6043C248.643 26.3745 249.081 26.2596 249.626 26.2596C249.771 26.2596 249.881 26.2638 249.958 26.2723L249.881 27.2809C249.788 27.2723 249.656 27.2681 249.485 27.2681C248.941 27.2681 248.532 27.3617 248.26 27.5489C247.988 27.7362 247.805 28.0298 247.711 28.4298C247.617 28.8213 247.566 29.383 247.558 30.1149V33H246.524V26.4128ZM256.755 33.1404C256.177 33.1404 255.73 33.0638 255.415 32.9106C255.109 32.7489 254.892 32.4979 254.764 32.1574C254.645 31.8085 254.585 31.3319 254.585 30.7277V27.383H253.513V26.4128H254.585V24.7532H255.658V26.4128H257.33V27.383H255.658V30.6638C255.658 31.0809 255.679 31.3915 255.721 31.5957C255.772 31.8 255.875 31.9489 256.028 32.0426C256.189 32.1362 256.432 32.183 256.755 32.183C257.002 32.183 257.206 32.166 257.368 32.1319V33.0638C257.198 33.1149 256.994 33.1404 256.755 33.1404ZM259.042 26.4128H260.076V33H259.042V26.4128ZM259.08 25.2383C259.207 25.3574 259.369 25.417 259.565 25.417C259.761 25.417 259.918 25.3574 260.037 25.2383C260.165 25.1106 260.229 24.9489 260.229 24.7532C260.229 24.5574 260.165 24.4 260.037 24.2809C259.918 24.1532 259.761 24.0894 259.565 24.0894C259.369 24.0894 259.207 24.1532 259.08 24.2809C258.952 24.4 258.888 24.5574 258.888 24.7532C258.888 24.9489 258.952 25.1106 259.08 25.2383ZM264.862 33.1532C263.867 33.1532 263.097 32.8468 262.552 32.234C262.016 31.6213 261.748 30.7787 261.748 29.7064C261.748 28.634 262.016 27.7915 262.552 27.1787C263.097 26.566 263.867 26.2596 264.862 26.2596C265.509 26.2596 266.067 26.4255 266.535 26.7574C267.003 27.0809 267.352 27.5362 267.582 28.1234L266.586 28.417C266.441 28.0085 266.224 27.6936 265.935 27.4723C265.645 27.2426 265.288 27.1277 264.862 27.1277C264.207 27.1277 263.705 27.3532 263.356 27.8043C263.016 28.2553 262.845 28.8809 262.845 29.6809C262.845 30.4979 263.016 31.1362 263.356 31.5957C263.705 32.0468 264.207 32.2723 264.862 32.2723C265.271 32.2723 265.616 32.166 265.897 31.9532C266.186 31.7319 266.407 31.4255 266.56 31.034L267.543 31.4043C267.305 31.9489 266.956 32.3787 266.497 32.6936C266.037 33 265.492 33.1532 264.862 33.1532ZM268.949 24.2426H269.996V29.4255L272.984 26.4128H274.388L271.579 29.1702L274.413 33H273.188L270.864 29.8596L269.996 30.7149V33H268.949V24.2426ZM278.077 33.1532C277.09 33.1532 276.315 32.8468 275.753 32.234C275.192 31.6128 274.911 30.7702 274.911 29.7064C274.911 29.0085 275.034 28.4 275.281 27.8809C275.536 27.3617 275.898 26.9617 276.366 26.6809C276.834 26.4 277.383 26.2596 278.013 26.2596C278.949 26.2596 279.668 26.5617 280.17 27.166C280.673 27.7617 280.928 28.6128 280.936 29.7191V29.9872H275.97C276.073 31.4766 276.783 32.2213 278.102 32.2213C279.056 32.2213 279.66 31.8213 279.915 31.0213L280.924 31.2255C280.711 31.8894 280.37 32.3787 279.902 32.6936C279.443 33 278.834 33.1532 278.077 33.1532ZM279.864 29.1447C279.762 27.8085 279.132 27.1404 277.975 27.1404C277.387 27.1404 276.924 27.3149 276.583 27.6638C276.251 28.0128 276.051 28.5064 275.983 29.1447H279.864ZM285.087 33.1404C284.509 33.1404 284.062 33.0638 283.747 32.9106C283.441 32.7489 283.224 32.4979 283.096 32.1574C282.977 31.8085 282.917 31.3319 282.917 30.7277V27.383H281.845V26.4128H282.917V24.7532H283.99V26.4128H285.662V27.383H283.99V30.6638C283.99 31.0809 284.011 31.3915 284.053 31.5957C284.104 31.8 284.207 31.9489 284.36 32.0426C284.521 32.1362 284.764 32.183 285.087 32.183C285.334 32.183 285.538 32.166 285.7 32.1319V33.0638C285.53 33.1149 285.326 33.1404 285.087 33.1404Z" fill="#767779"/>
<path d="M242.333 70V67.3333H245V70H242.333ZM239.667 67.3333V60.6667H242.333V67.3333H239.667ZM250.333 63.3333V58H253V63.3333H250.333ZM247.667 58V55.3333H250.333V58H247.667ZM231.667 60.6667V58H234.333V60.6667H231.667ZM229 58V55.3333H231.667V58H229ZM241 48.6667V46H243.667V48.6667H241ZM231 52H235V48H231V52ZM229 54V46H237V54H229ZM231 68H235V64H231V68ZM229 70V62H237V70H229ZM247 52H251V48H247V52ZM245 54V46H253V54H245ZM247.667 70V66H245V63.3333H250.333V67.3333H253V70H247.667ZM242.333 60.6667V58H247.667V60.6667H242.333ZM237 60.6667V58H234.333V55.3333H242.333V58H239.667V60.6667H237ZM238.333 54V48.6667H241V51.3333H243.667V54H238.333ZM232 51V49H234V51H232ZM232 67V65H234V67H232ZM248 51V49H250V51H248Z" fill="#0D080B"/>
<defs>
<filter id="filter0_b_20_91" x="-863" y="-900" width="2072" height="1884" filterUnits="userSpaceOnUse" color-interpolation-filters="sRGB">
<feFlood flood-opacity="0" result="BackgroundImageFix"/>
<feGaussianBlur in="BackgroundImageFix" stdDeviation="450"/>
<feComposite in2="SourceAlpha" operator="in" result="effect1_backgroundBlur_20_91"/>
<feBlend mode="normal" in="SourceGraphic" in2="effect1_backgroundBlur_20_91" result="shape"/>
</filter>
</defs>
</svg>
