<svg width="324" height="217" viewBox="0 0 324 217" fill="none" xmlns="http://www.w3.org/2000/svg">
<g filter="url(#filter0_b_20_134)">
<g clip-path="url(#clip0_20_134)">
<rect width="324" height="217" rx="10" fill="white" fill-opacity="0.9"/>
<path d="M10.03 33.1C8.38 33.1 7.47 32.33 7.47 31.1V31.04H8.19V31.1C8.19 32.09 8.81 32.44 10.05 32.44C11.35 32.44 11.85 32.05 11.85 30.89C11.85 29.81 11.31 29.38 10.08 29.38C9.19 29.38 8.7 29.61 8.26 29.86L7.63 29.73L7.9 26.3H12.2V26.95H8.53L8.31 29.31H8.33C8.77 28.99 9.43 28.76 10.26 28.76C11.65 28.76 12.56 29.51 12.56 30.88C12.56 32.27 11.71 33.1 10.03 33.1ZM14.7459 33H14.0359V26.3H15.0359L16.9359 30.46L17.5359 31.91H17.5959L18.1959 30.46L20.0759 26.3H21.0859V33H20.3659V28.36L20.3959 27.39H20.3359L19.9259 28.36L17.9859 32.6H17.1259L15.1859 28.36L14.7759 27.39H14.7159L14.7459 28.36V33Z" fill="#0E0416"/>
<path d="M309 188L25 188" stroke="black" stroke-opacity="0.12"/>
<path d="M11.77 64H11.05V62.51H7.16V61.99L10.93 57.3H11.77V61.86H12.87V62.51H11.77V64ZM8.08 61.86H11.05V58.2H11L8.08 61.81V61.86ZM14.8142 64H14.1042V57.3H15.1042L17.0042 61.46L17.6042 62.91H17.6642L18.2642 61.46L20.1442 57.3H21.1542V64H20.4342V59.36L20.4642 58.39H20.4042L19.9942 59.36L18.0542 63.6H17.1942L15.2542 59.36L14.8442 58.39H14.7842L14.8142 59.36V64Z" fill="#0E0416"/>
<path d="M9.94 95.1C8.11 95.1 7.4 94.16 7.4 92.95V92.79H8.11V92.92C8.11 93.95 8.49 94.44 9.94 94.44C11.18 94.44 11.64 94.06 11.64 93.14C11.64 92.19 11.15 91.81 10.04 91.81H8.83V91.2H9.89C10.98 91.2 11.44 90.86 11.44 90.04C11.44 89.22 11.03 88.86 9.87 88.86C8.53 88.86 8.11 89.35 8.11 90.38V90.47H7.4V90.35C7.4 89.14 8.2 88.2 9.88 88.2C11.31 88.2 12.16 88.82 12.16 89.95C12.16 90.71 11.75 91.3 10.91 91.45V91.49C11.84 91.65 12.36 92.27 12.36 93.2C12.36 94.44 11.41 95.1 9.94 95.1ZM14.5017 95H13.7917V88.3H14.7917L16.6917 92.46L17.2917 93.91H17.3517L17.9517 92.46L19.8317 88.3H20.8417V95H20.1217V90.36L20.1517 89.39H20.0917L19.6817 90.36L17.7417 94.6H16.8817L14.9417 90.36L14.5317 89.39H14.4717L14.5017 90.36V95Z" fill="#0E0416"/>
<path d="M12.25 126H7.57V125.55C7.57 124.3 8.35 123.69 9.28 123.17L10.32 122.59C11.12 122.15 11.48 121.8 11.48 121.12C11.48 120.39 11.18 119.86 9.93 119.86C8.54 119.86 8.19 120.39 8.19 121.46V121.58H7.47V121.42C7.47 120.21 8.22 119.2 9.97 119.2C11.52 119.2 12.2 120.05 12.2 121.07C12.2 122.12 11.49 122.68 10.63 123.16L9.62 123.72C8.85 124.15 8.31 124.57 8.32 125.35H12.25V126ZM14.4724 126H13.7624V119.3H14.7624L16.6624 123.46L17.2624 124.91H17.3224L17.9224 123.46L19.8024 119.3H20.8124V126H20.0924V121.36L20.1224 120.39H20.0624L19.6524 121.36L17.7124 125.6H16.8524L14.9124 121.36L14.5024 120.39H14.4424L14.4724 121.36V126Z" fill="#0E0416"/>
<path d="M9.29 157H8.57V151.67H7.26V151.13H7.49C8.12 151.13 8.46 150.9 8.7 150.3H9.29V157ZM11.6599 157H10.9499V150.3H11.9499L13.8499 154.46L14.4499 155.91H14.5099L15.1099 154.46L16.9899 150.3H17.9999V157H17.2799V152.36L17.3099 151.39H17.2499L16.8399 152.36L14.8999 156.6H14.0399L12.0999 152.36L11.6899 151.39H11.6299L11.6599 152.36V157Z" fill="#0E0416"/>
<path d="M10.24 188.1C8.57 188.1 7.47 186.8 7.47 184.65C7.47 182.5 8.57 181.2 10.24 181.2C11.92 181.2 13.01 182.5 13.01 184.65C13.01 186.8 11.92 188.1 10.24 188.1ZM10.24 187.41C11.56 187.41 12.26 186.57 12.26 184.65C12.26 182.73 11.56 181.89 10.24 181.89C8.93 181.89 8.23 182.73 8.23 184.65C8.23 186.57 8.93 187.41 10.24 187.41Z" fill="#0E0416"/>
<path d="M31.016 199.08C29.664 199.08 29.128 198.256 29.128 197.192V196.864H29.728V197.248C29.728 198.096 29.992 198.528 31 198.528C32.008 198.528 32.272 198.096 32.272 197.248V193.64H32.872V197.192C32.872 198.256 32.336 199.08 31.016 199.08ZM35.2639 199.08C34.5439 199.08 33.9999 198.712 33.9999 198.048C33.9999 197.36 34.5119 197.056 35.3759 196.936L36.7679 196.744V196.456C36.7679 195.76 36.4719 195.48 35.7279 195.48C35.0079 195.48 34.6719 195.76 34.6719 196.392V196.512H34.1199V196.448C34.1199 195.624 34.7519 194.968 35.7759 194.968C36.8319 194.968 37.3119 195.648 37.3119 196.528V199H36.7919V198.272L36.7519 198.264C36.5199 198.72 36.0159 199.08 35.2639 199.08ZM34.5599 198.008C34.5599 198.416 34.8159 198.6 35.4239 198.6C36.1039 198.6 36.7679 198.248 36.7679 197.312V197.176L35.4239 197.368C34.7919 197.456 34.5599 197.584 34.5599 198.008ZM39.1678 199H38.5918V195.048H39.1118V195.864H39.1358C39.2878 195.448 39.7358 194.968 40.5518 194.968C41.5678 194.968 42.0318 195.624 42.0318 196.576V199H41.4638V196.704C41.4638 195.848 41.1838 195.472 40.3758 195.472C39.5918 195.472 39.1678 195.84 39.1678 196.72V199Z" fill="#413B2C"/>
<path d="M54.072 199H53.504V193.64H57.088V194.16H54.072V196.2H56.968V196.728H54.072V199ZM59.786 199.08C58.57 199.08 57.938 198.224 57.938 197.024C57.938 195.824 58.65 194.968 59.778 194.968C60.73 194.968 61.514 195.544 61.514 196.712C61.514 196.896 61.498 197.072 61.474 197.184H58.482C58.506 198.056 58.85 198.568 59.794 198.568C60.594 198.568 60.914 198.208 60.914 197.728V197.68H61.482V197.736C61.482 198.496 60.794 199.08 59.786 199.08ZM59.762 195.464C58.882 195.464 58.53 195.968 58.482 196.768H60.97C61.002 195.832 60.538 195.464 59.762 195.464ZM63.1821 199H62.6621V193.64H63.2381V195.8C63.4141 195.368 63.9021 194.968 64.6621 194.968C65.7421 194.968 66.3261 195.776 66.3261 197.024C66.3261 198.272 65.7101 199.08 64.5981 199.08C63.8541 199.08 63.3821 198.736 63.2061 198.24H63.1821V199ZM63.2381 197.368C63.2381 198.176 63.7181 198.584 64.5021 198.584C65.2781 198.584 65.7501 198.232 65.7501 197.024C65.7501 195.816 65.2701 195.464 64.5021 195.464C63.7181 195.464 63.2381 195.872 63.2381 196.688V197.368Z" fill="#413B2C"/>
<path d="M78.072 199H77.504V193.64H78.304L79.824 196.968L80.304 198.128H80.352L80.832 196.968L82.336 193.64H83.144V199H82.568V195.288L82.592 194.512H82.544L82.216 195.288L80.664 198.68H79.976L78.424 195.288L78.096 194.512H78.048L78.072 195.288V199ZM85.5686 199.08C84.8486 199.08 84.3046 198.712 84.3046 198.048C84.3046 197.36 84.8166 197.056 85.6806 196.936L87.0726 196.744V196.456C87.0726 195.76 86.7766 195.48 86.0326 195.48C85.3126 195.48 84.9766 195.76 84.9766 196.392V196.512H84.4246V196.448C84.4246 195.624 85.0566 194.968 86.0806 194.968C87.1366 194.968 87.6166 195.648 87.6166 196.528V199H87.0966V198.272L87.0566 198.264C86.8246 198.72 86.3206 199.08 85.5686 199.08ZM84.8646 198.008C84.8646 198.416 85.1206 198.6 85.7286 198.6C86.4086 198.6 87.0726 198.248 87.0726 197.312V197.176L85.7286 197.368C85.0966 197.456 84.8646 197.584 84.8646 198.008ZM89.4724 199H88.8964V195H89.4164V195.664H89.4564C89.5844 195.296 89.9684 194.968 90.5524 194.968C91.3684 194.968 91.6804 195.552 91.6804 196.232V196.456H91.1044V196.32C91.1044 195.704 90.9124 195.464 90.3444 195.464C89.7284 195.464 89.4724 195.744 89.4724 196.384V199Z" fill="#413B2C"/>
<path d="M101.712 199H101.112L103.28 193.64H104.096L106.264 199H105.648L105 197.432H102.352L101.712 199ZM103.344 195L102.56 196.912H104.784L104 195L103.696 194.184H103.656L103.344 195ZM107.721 200.392H107.145V195.048H107.665V195.816H107.689C107.865 195.312 108.337 194.968 109.081 194.968C110.193 194.968 110.809 195.776 110.809 197.032C110.809 198.272 110.225 199.08 109.145 199.08C108.385 199.08 107.897 198.68 107.721 198.248V200.392ZM107.721 197.368C107.721 198.176 108.201 198.584 108.985 198.584C109.753 198.584 110.233 198.232 110.233 197.032C110.233 195.816 109.761 195.464 108.985 195.464C108.201 195.464 107.721 195.872 107.721 196.688V197.368ZM112.48 199H111.904V195H112.424V195.664H112.464C112.592 195.296 112.976 194.968 113.56 194.968C114.376 194.968 114.688 195.552 114.688 196.232V196.456H114.112V196.32C114.112 195.704 113.92 195.464 113.352 195.464C112.736 195.464 112.48 195.744 112.48 196.384V199Z" fill="#413B2C"/>
<path d="M126.072 199H125.504V193.64H126.304L127.824 196.968L128.304 198.128H128.352L128.832 196.968L130.336 193.64H131.144V199H130.568V195.288L130.592 194.512H130.544L130.216 195.288L128.664 198.68H127.976L126.424 195.288L126.096 194.512H126.048L126.072 195.288V199ZM133.569 199.08C132.849 199.08 132.305 198.712 132.305 198.048C132.305 197.36 132.817 197.056 133.681 196.936L135.073 196.744V196.456C135.073 195.76 134.777 195.48 134.033 195.48C133.313 195.48 132.977 195.76 132.977 196.392V196.512H132.425V196.448C132.425 195.624 133.057 194.968 134.081 194.968C135.137 194.968 135.617 195.648 135.617 196.528V199H135.097V198.272L135.057 198.264C134.825 198.72 134.321 199.08 133.569 199.08ZM132.865 198.008C132.865 198.416 133.121 198.6 133.729 198.6C134.409 198.6 135.073 198.248 135.073 197.312V197.176L133.729 197.368C133.097 197.456 132.865 197.584 132.865 198.008ZM137.245 200.36C137.053 200.36 136.845 200.328 136.733 200.304V199.84H137.181C137.541 199.84 137.661 199.768 137.805 199.456L138.029 198.944L136.333 195.048H136.957L137.885 197.248L138.301 198.216H138.349L138.741 197.248L139.613 195.048H140.237L138.309 199.632C138.053 200.232 137.677 200.36 137.245 200.36Z" fill="#413B2C"/>
<path d="M151.016 199.08C149.664 199.08 149.128 198.256 149.128 197.192V196.864H149.728V197.248C149.728 198.096 149.992 198.528 151 198.528C152.008 198.528 152.272 198.096 152.272 197.248V193.64H152.872V197.192C152.872 198.256 152.336 199.08 151.016 199.08ZM155.695 199.08C154.663 199.08 154.183 198.368 154.183 197.424V195.048H154.759V197.344C154.759 198.2 155.103 198.576 155.879 198.576C156.607 198.576 157.103 198.192 157.103 197.264V195.048H157.671V199H157.151V198.128H157.127C156.967 198.584 156.519 199.08 155.695 199.08ZM159.551 199H158.975V195.048H159.495V195.864H159.519C159.671 195.448 160.119 194.968 160.935 194.968C161.951 194.968 162.415 195.624 162.415 196.576V199H161.847V196.704C161.847 195.848 161.567 195.472 160.759 195.472C159.975 195.472 159.551 195.84 159.551 196.72V199Z" fill="#413B2C"/>
<path d="M175.016 199.08C173.664 199.08 173.128 198.256 173.128 197.192V196.864H173.728V197.248C173.728 198.096 173.992 198.528 175 198.528C176.008 198.528 176.272 198.096 176.272 197.248V193.64H176.872V197.192C176.872 198.256 176.336 199.08 175.016 199.08ZM179.695 199.08C178.663 199.08 178.183 198.368 178.183 197.424V195.048H178.759V197.344C178.759 198.2 179.103 198.576 179.879 198.576C180.607 198.576 181.103 198.192 181.103 197.264V195.048H181.671V199H181.151V198.128H181.127C180.967 198.584 180.519 199.08 179.695 199.08ZM183.551 199H182.975V193.64H183.551V199Z" fill="#413B2C"/>
<path d="M197.712 199H197.112L199.28 193.64H200.096L202.264 199H201.648L201 197.432H198.352L197.712 199ZM199.344 195L198.56 196.912H200.784L200 195L199.696 194.184H199.656L199.344 195ZM204.633 199.08C203.601 199.08 203.121 198.368 203.121 197.424V195.048H203.697V197.344C203.697 198.2 204.041 198.576 204.817 198.576C205.545 198.576 206.041 198.192 206.041 197.264V195.048H206.609V199H206.089V198.128H206.065C205.905 198.584 205.457 199.08 204.633 199.08ZM209.448 198.648C208.36 198.648 207.736 197.928 207.736 196.808C207.736 195.688 208.352 194.968 209.456 194.968C210.152 194.968 210.68 195.312 210.856 195.816H210.888V195.048H211.4V198.832C211.4 199.904 210.712 200.44 209.672 200.44C208.664 200.44 207.952 199.912 207.952 199H208.52C208.52 199.648 208.848 199.928 209.68 199.928C210.528 199.928 210.824 199.624 210.824 198.832V197.824H210.816C210.632 198.28 210.136 198.648 209.448 198.648ZM208.312 196.808C208.312 197.856 208.816 198.152 209.584 198.152C210.296 198.152 210.824 197.744 210.824 196.928V196.688C210.824 195.872 210.288 195.464 209.552 195.464C208.8 195.464 208.312 195.768 208.312 196.808Z" fill="#413B2C"/>
<path d="M223.52 199.08C222.032 199.08 221.384 198.296 221.384 197.376V197.256H221.952V197.344C221.952 198.088 222.344 198.552 223.536 198.552C224.424 198.552 224.84 198.256 224.84 197.64C224.84 197.04 224.568 196.816 223.76 196.64L222.832 196.432C221.992 196.256 221.416 195.872 221.416 195.008C221.416 194.232 222.056 193.56 223.328 193.56C224.72 193.56 225.328 194.408 225.328 195.28V195.384H224.76V195.296C224.76 194.56 224.376 194.088 223.32 194.088C222.432 194.088 221.992 194.384 221.992 194.968C221.992 195.576 222.288 195.752 223.072 195.936L224 196.152C224.888 196.352 225.416 196.768 225.416 197.608C225.416 198.424 224.784 199.08 223.52 199.08ZM228.192 199.08C226.976 199.08 226.344 198.224 226.344 197.024C226.344 195.824 227.056 194.968 228.184 194.968C229.136 194.968 229.92 195.544 229.92 196.712C229.92 196.896 229.904 197.072 229.88 197.184H226.888C226.912 198.056 227.256 198.568 228.2 198.568C229 198.568 229.32 198.208 229.32 197.728V197.68H229.888V197.736C229.888 198.496 229.2 199.08 228.192 199.08ZM228.168 195.464C227.288 195.464 226.936 195.968 226.888 196.768H229.376C229.408 195.832 228.944 195.464 228.168 195.464ZM231.637 200.392H231.061V195.048H231.581V195.816H231.605C231.781 195.312 232.253 194.968 232.997 194.968C234.109 194.968 234.725 195.776 234.725 197.032C234.725 198.272 234.141 199.08 233.061 199.08C232.301 199.08 231.813 198.68 231.637 198.248V200.392ZM231.637 197.368C231.637 198.176 232.117 198.584 232.901 198.584C233.669 198.584 234.149 198.232 234.149 197.032C234.149 195.816 233.677 195.464 232.901 195.464C232.117 195.464 231.637 195.872 231.637 196.688V197.368Z" fill="#413B2C"/>
<path d="M247.752 199.08C246.28 199.08 245.304 197.992 245.304 196.32C245.304 194.648 246.28 193.56 247.752 193.56C249.216 193.56 250.192 194.648 250.192 196.32C250.192 197.992 249.216 199.08 247.752 199.08ZM247.752 198.528C249.008 198.528 249.592 197.808 249.592 196.32C249.592 194.832 249.008 194.112 247.752 194.112C246.496 194.112 245.904 194.832 245.904 196.32C245.904 197.808 246.496 198.528 247.752 198.528ZM253.052 199.088C251.884 199.088 251.18 198.232 251.18 197.032C251.18 195.824 251.884 194.968 253.052 194.968C254.06 194.968 254.74 195.616 254.74 196.544V196.6H254.172V196.552C254.172 195.864 253.804 195.488 253.028 195.488C252.124 195.488 251.748 196.056 251.748 197.032C251.748 198 252.124 198.568 253.028 198.568C253.804 198.568 254.172 198.192 254.172 197.504V197.456H254.74V197.512C254.74 198.44 254.06 199.088 253.052 199.088ZM257.283 199.008C256.555 199.008 256.131 198.72 256.131 197.88V195.544H255.467V195.048H256.139L256.275 194.04H256.707V195.048H257.955V195.544H256.707V197.912C256.707 198.376 256.923 198.48 257.435 198.48H257.955V198.944C257.819 198.968 257.571 199.008 257.283 199.008Z" fill="#413B2C"/>
<path d="M270.072 199H269.504V193.64H270.12L272.528 197.208L273.096 198.048H273.144V193.64H273.72V199H273.096L270.672 195.432L270.112 194.608H270.072V199ZM276.741 199.08C275.581 199.08 274.821 198.224 274.821 197.024C274.821 195.824 275.581 194.968 276.741 194.968C277.893 194.968 278.629 195.824 278.629 197.024C278.629 198.224 277.893 199.08 276.741 199.08ZM276.741 198.568C277.693 198.568 278.069 198.008 278.069 197.024C278.069 196.04 277.693 195.488 276.741 195.488C275.773 195.488 275.389 196.04 275.389 197.024C275.389 198.008 275.773 198.568 276.741 198.568ZM281.505 199H280.793L279.177 195.048H279.801L281.137 198.44H281.177L282.505 195.048H283.121L281.505 199Z" fill="#413B2C"/>
<path d="M295.312 199H293.504V193.64H295.312C296.928 193.64 297.944 194.68 297.944 196.32C297.944 197.96 296.928 199 295.312 199ZM295.312 194.16H294.072V198.48H295.312C296.736 198.48 297.344 197.776 297.344 196.32C297.344 194.864 296.736 194.16 295.312 194.16ZM300.77 199.08C299.554 199.08 298.922 198.224 298.922 197.024C298.922 195.824 299.634 194.968 300.762 194.968C301.714 194.968 302.498 195.544 302.498 196.712C302.498 196.896 302.482 197.072 302.458 197.184H299.466C299.49 198.056 299.834 198.568 300.778 198.568C301.578 198.568 301.898 198.208 301.898 197.728V197.68H302.466V197.736C302.466 198.496 301.778 199.08 300.77 199.08ZM300.746 195.464C299.866 195.464 299.514 195.968 299.466 196.768H301.954C301.986 195.832 301.522 195.464 300.746 195.464ZM305.39 199.088C304.222 199.088 303.518 198.232 303.518 197.032C303.518 195.824 304.222 194.968 305.39 194.968C306.398 194.968 307.078 195.616 307.078 196.544V196.6H306.51V196.552C306.51 195.864 306.142 195.488 305.366 195.488C304.462 195.488 304.086 196.056 304.086 197.032C304.086 198 304.462 198.568 305.366 198.568C306.142 198.568 306.51 198.192 306.51 197.504V197.456H307.078V197.512C307.078 198.44 306.398 199.088 305.39 199.088Z" fill="#413B2C"/>
<path d="M35 89C35 88.4477 35.4477 88 36 88C36.5523 88 37 88.4477 37 89V188H35V89Z" fill="#A30162"/>
<path d="M107 99C107 98.4477 107.448 98 108 98C108.552 98 109 98.4477 109 99V188H107V99Z" fill="#A30162"/>
<path d="M132 179C132 178.448 132.448 178 133 178C133.552 178 134 178.448 134 179V188H132V179Z" fill="#A30162"/>
<line x1="38.5" y1="32.5" x2="300.5" y2="32.5" stroke="#F3E9FB" stroke-linecap="round" stroke-dasharray="4 7"/>
<line x1="38.5" y1="63.5" x2="300.5" y2="63.5" stroke="#F3E9FB" stroke-linecap="round" stroke-dasharray="4 7"/>
<line x1="38.5" y1="94.5" x2="300.5" y2="94.5" stroke="#F3E9FB" stroke-linecap="round" stroke-dasharray="4 7"/>
<line x1="38.5" y1="125.5" x2="300.5" y2="125.5" stroke="#F3E9FB" stroke-linecap="round" stroke-dasharray="4 7"/>
<line x1="38.5" y1="156.5" x2="300.5" y2="156.5" stroke="#F3E9FB" stroke-linecap="round" stroke-dasharray="4 7"/>
<path d="M59 160C59 159.448 59.4477 159 60 159C60.5523 159 61 159.448 61 160V188H59V160Z" fill="#A30162"/>
<path d="M84 149C84 148.448 84.4477 148 85 148C85.5523 148 86 148.448 86 149V188H84V149Z" fill="#A30162"/>
<path d="M155 69C155 68.4477 155.448 68 156 68C156.552 68 157 68.4477 157 69V188H155V69Z" fill="#A30162"/>
<path d="M204 54C204 53.4477 204.448 53 205 53C205.552 53 206 53.4477 206 54V188H204V54Z" fill="#A30162"/>
<path d="M228 46C228 45.4477 228.448 45 229 45C229.552 45 230 45.4477 230 46V188H228V46Z" fill="#A30162"/>
<path d="M251 65C251 64.4477 251.448 64 252 64C252.552 64 253 64.4477 253 65V188H251V65Z" fill="#A30162"/>
<path d="M276 43C276 42.4477 276.448 42 277 42C277.552 42 278 42.4477 278 43V188H276V43Z" fill="#A30162"/>
<path d="M300 34C300 33.4477 300.448 33 301 33C301.552 33 302 33.4477 302 34V188H300V34Z" fill="#A30162"/>
<path d="M178 89C178 88.4477 178.448 88 179 88C179.552 88 180 88.4477 180 89V188H178V89Z" fill="#A30162"/>
<g filter="url(#filter1_d_20_134)">
<rect x="149" y="53" width="89" height="41" rx="5" fill="white"/>
<path d="M156.268 66.09C154.747 66.09 154.144 65.163 154.144 63.966V63.597H154.819V64.029C154.819 64.983 155.116 65.469 156.25 65.469C157.384 65.469 157.681 64.983 157.681 64.029V59.97H158.356V63.966C158.356 65.163 157.753 66.09 156.268 66.09ZM161.482 66.09C160.321 66.09 159.781 65.289 159.781 64.227V61.554H160.429V64.137C160.429 65.1 160.816 65.523 161.689 65.523C162.508 65.523 163.066 65.091 163.066 64.047V61.554H163.705V66H163.12V65.019H163.093C162.913 65.532 162.409 66.09 161.482 66.09ZM165.769 66H165.121V59.97H165.769V66ZM167.716 67.53C167.5 67.53 167.266 67.494 167.14 67.467V66.945H167.644C168.049 66.945 168.184 66.864 168.346 66.513L168.598 65.937L166.69 61.554H167.392L168.436 64.029L168.904 65.118H168.958L169.399 64.029L170.38 61.554H171.082L168.913 66.711C168.625 67.386 168.202 67.53 167.716 67.53Z" fill="#413B2C"/>
<path d="M155.056 85V81.916H154.12V81.148H155.056V80.164H154.12V79.396H155.056V76.432H156.304L157.444 79.396H158.86V76.432H159.808V79.396H160.744V80.164H159.808V81.148H160.744V81.916H159.808V85H158.548L157.408 81.916H155.992V85H155.056ZM155.992 81.148H157.12L156.76 80.164H155.968L155.992 81.148ZM158.86 83.308H158.908L158.872 81.916H158.368L158.86 83.308ZM155.968 79.396H156.472L155.968 77.908H155.92L155.968 79.396ZM158.08 81.148H158.884L158.86 80.164H157.72L158.08 81.148ZM167.577 85.12C165.285 85.12 164.409 84.076 164.409 82.54V82.348H165.681V82.528C165.681 83.536 166.017 83.932 167.601 83.932C168.873 83.932 169.377 83.62 169.377 82.684C169.377 81.676 168.933 81.376 167.817 81.376H166.209V80.296H167.637C168.693 80.296 169.101 80.032 169.101 79.192C169.101 78.352 168.621 78.028 167.493 78.028C166.101 78.028 165.681 78.424 165.681 79.432V79.528H164.409V79.42C164.409 77.884 165.489 76.84 167.505 76.84C169.317 76.84 170.397 77.584 170.397 78.988C170.397 79.912 169.929 80.596 168.909 80.74V80.788C170.013 80.944 170.685 81.664 170.685 82.816C170.685 84.364 169.437 85.12 167.577 85.12ZM172.387 86.416H171.955V85.564H172.351C172.555 85.564 172.663 85.516 172.663 85.252V85H171.931V83.14H173.575V85.228C173.575 86.032 173.143 86.416 172.387 86.416ZM177.154 85.012H175.75C175.75 81.508 177.37 79.372 178.702 78.184V78.124H174.214V76.96H180.25V78.028C178.054 80.032 177.154 82.18 177.154 85.012ZM184.679 85.12C182.519 85.12 181.211 83.524 181.211 80.98C181.211 78.436 182.519 76.84 184.679 76.84C186.839 76.84 188.159 78.436 188.159 80.98C188.159 83.524 186.839 85.12 184.679 85.12ZM184.679 83.872C186.107 83.872 186.779 83.104 186.779 80.98C186.779 78.856 186.107 78.088 184.679 78.088C183.251 78.088 182.591 78.856 182.591 80.98C182.591 83.104 183.251 83.872 184.679 83.872ZM193.504 85.12C191.344 85.12 190.036 83.524 190.036 80.98C190.036 78.436 191.344 76.84 193.504 76.84C195.664 76.84 196.984 78.436 196.984 80.98C196.984 83.524 195.664 85.12 193.504 85.12ZM193.504 83.872C194.932 83.872 195.604 83.104 195.604 80.98C195.604 78.856 194.932 78.088 193.504 78.088C192.076 78.088 191.416 78.856 191.416 80.98C191.416 83.104 192.076 83.872 193.504 83.872ZM198.855 86.416H198.423V85.564H198.819C199.023 85.564 199.131 85.516 199.131 85.252V85H198.399V83.14H200.043V85.228C200.043 86.032 199.611 86.416 198.855 86.416ZM204.945 85.12C202.785 85.12 201.477 83.524 201.477 80.98C201.477 78.436 202.785 76.84 204.945 76.84C207.105 76.84 208.425 78.436 208.425 80.98C208.425 83.524 207.105 85.12 204.945 85.12ZM204.945 83.872C206.373 83.872 207.045 83.104 207.045 80.98C207.045 78.856 206.373 78.088 204.945 78.088C203.517 78.088 202.857 78.856 202.857 80.98C202.857 83.104 203.517 83.872 204.945 83.872ZM213.771 85.12C211.611 85.12 210.303 83.524 210.303 80.98C210.303 78.436 211.611 76.84 213.771 76.84C215.931 76.84 217.251 78.436 217.251 80.98C217.251 83.524 215.931 85.12 213.771 85.12ZM213.771 83.872C215.199 83.872 215.871 83.104 215.871 80.98C215.871 78.856 215.199 78.088 213.771 78.088C212.343 78.088 211.683 78.856 211.683 80.98C211.683 83.104 212.343 83.872 213.771 83.872ZM222.596 85.12C220.436 85.12 219.128 83.524 219.128 80.98C219.128 78.436 220.436 76.84 222.596 76.84C224.756 76.84 226.076 78.436 226.076 80.98C226.076 83.524 224.756 85.12 222.596 85.12ZM222.596 83.872C224.024 83.872 224.696 83.104 224.696 80.98C224.696 78.856 224.024 78.088 222.596 78.088C221.168 78.088 220.508 78.856 220.508 80.98C220.508 83.104 221.168 83.872 222.596 83.872Z" fill="#0E0416"/>
</g>
</g>
<rect x="1" y="1" width="322" height="215" rx="9" stroke="white" stroke-width="2"/>
</g>
<defs>
<filter id="filter0_b_20_134" x="-900" y="-900" width="2124" height="2017" filterUnits="userSpaceOnUse" color-interpolation-filters="sRGB">
<feFlood flood-opacity="0" result="BackgroundImageFix"/>
<feGaussianBlur in="BackgroundImageFix" stdDeviation="450"/>
<feComposite in2="SourceAlpha" operator="in" result="effect1_backgroundBlur_20_134"/>
<feBlend mode="normal" in="SourceGraphic" in2="effect1_backgroundBlur_20_134" result="shape"/>
</filter>
<filter id="filter1_d_20_134" x="49" y="1" width="289" height="241" filterUnits="userSpaceOnUse" color-interpolation-filters="sRGB">
<feFlood flood-opacity="0" result="BackgroundImageFix"/>
<feColorMatrix in="SourceAlpha" type="matrix" values="0 0 0 0 0 0 0 0 0 0 0 0 0 0 0 0 0 0 127 0" result="hardAlpha"/>
<feOffset dy="48"/>
<feGaussianBlur stdDeviation="50"/>
<feColorMatrix type="matrix" values="0 0 0 0 0.0666667 0 0 0 0 0.0470588 0 0 0 0 0.180392 0 0 0 0.15 0"/>
<feBlend mode="normal" in2="BackgroundImageFix" result="effect1_dropShadow_20_134"/>
<feBlend mode="normal" in="SourceGraphic" in2="effect1_dropShadow_20_134" result="shape"/>
</filter>
<clipPath id="clip0_20_134">
<rect width="324" height="217" rx="10" fill="white"/>
</clipPath>
</defs>
</svg>
